0
SECTION
2
HEADER
9
$INSUNITS
70
4
9
$ACADVER
1
AC1014
9
$HANDSEED
5
FFFF
0
ENDSEC
0
SECTION
2
TABLES
0
TABLE
2
VPORT
5
8
100
AcDbSymbolTable
0
ENDTAB
0
TABLE
2
LTYPE
5
5
100
AcDbSymbolTable
0
LTYPE
5
14
100
AcDbSymbolTableRecord
100
AcDbLinetypeTableRecord
2
BYBLOCK
70
0
0
LTYPE
5
15
100
AcDbSymbolTableRecord
100
AcDbLinetypeTableRecord
2
BYLAYER
70
0
0
ENDTAB
0
TABLE
2
LAYER
5
2
100
AcDbSymbolTable
70
2
0
LAYER
5
50
100
AcDbSymbolTableRecord
100
AcDbLayerTableRecord
2
0
70
0
6
CONTINUOUS
0
ENDTAB
0
TABLE
2
STYLE
5
3
100
AcDbSymbolTable
70
1
0
STYLE
5
11
100
AcDbSymbolTableRecord
100
AcDbTextStyleTableRecord
2
STANDARD
70
0
0
ENDTAB
0
TABLE
2
VIEW
5
6
100
AcDbSymbolTable
70
0
0
ENDTAB
0
TABLE
2
UCS
5
7
100
AcDbSymbolTable
70
0
0
ENDTAB
0
TABLE
2
APPID
5
9
100
AcDbSymbolTable
70
2
0
APPID
5
12
100
AcDbSymbolTableRecord
100
AcDbRegAppTableRecord
2
ACAD
70
0
0
ENDTAB
0
TABLE
2
DIMSTYLE
5
A
100
AcDbSymbolTable
70
1
0
ENDTAB
0
TABLE
2
BLOCK_RECORD
5
1
100
AcDbSymbolTable
70
1
0
BLOCK_RECORD
5
1F
100
AcDbSymbolTableRecord
100
AcDbBlockTableRecord
2
*MODEL_SPACE
0
BLOCK_RECORD
5
1B
100
AcDbSymbolTableRecord
100
AcDbBlockTableRecord
2
*PAPER_SPACE
0
ENDTAB
0
ENDSEC
0
SECTION
2
BLOCKS
0
BLOCK
5
20
100
AcDbEntity
100
AcDbBlockBegin
2
*MODEL_SPACE
0
ENDBLK
5
21
100
AcDbEntity
100
AcDbBlockEnd
0
BLOCK
5
1C
100
AcDbEntity
100
AcDbBlockBegin
2
*PAPER_SPACE
0
ENDBLK
5
1D
100
AcDbEntity
100
AcDbBlockEnd
0
ENDSEC
0
SECTION
2
ENTITIES
0
LWPOLYLINE
5
100
100
AcDbEntity
8
0
100
AcDbPolyline
90
8
70
1
43
0.0
10
110
20
-2.9999999999999987
42
-0.41421356237309126
10
108
20
-5
10
62
20
-5.0000000000000018
42
-0.41421356237309503
10
60
20
-2.9999999999999982
10
60
20
23
42
-0.41421356237309503
10
62
20
25
10
108
20
24.999999999999982
42
-0.4142135623730937
10
110
20
23
0
LWPOLYLINE
5
101
100
AcDbEntity
8
0
100
AcDbPolyline
90
12
70
1
43
0.0
10
95.000000521540642
20
14.850000000000001
10
95.000000521540642
20
12.350000000000001
10
75
20
12.350000000000001
10
75
20
14.850000000000001
10
70.149999999999991
20
14.850000000000001
10
70.149999999999991
20
5.1499999999999986
10
75
20
5.1499999999999986
10
75
20
7.6499999999999986
10
95.000000521540642
20
7.6499999999999986
10
95.000000521540642
20
5.1499999999999986
10
99.850000521540636
20
5.1499999999999986
10
99.850000521540636
20
14.850000000000001
0
CIRCLE
5
102
100
AcDbEntity
8
0
100
AcDbCircle
10
105
20
0
30
0
40
2.0000000000000018
210
0
220
0
230
1
0
CIRCLE
5
103
100
AcDbEntity
8
0
100
AcDbCircle
10
65
20
20
30
0
40
1.9999999999999996
210
0
220
0
230
1
0
CIRCLE
5
104
100
AcDbEntity
8
0
100
AcDbCircle
10
65
20
0
30
0
40
2.0000000000000009
210
0
220
0
230
1
0
CIRCLE
5
105
100
AcDbEntity
8
0
100
AcDbCircle
10
105
20
20
30
0
40
2.0000000000000018
210
0
220
0
230
1
0
LWPOLYLINE
5
106
100
AcDbEntity
8
0
100
AcDbPolyline
90
16
70
1
43
0.0
10
80.883168419531941
20
75.000000000000014
42
-0.35365333753908307
10
82.838773247686788
20
73.41905817746175
10
90
20
40
10
80
20
40
10
80
20
32
42
-0.41421356237309503
10
78
20
30
10
72
20
30.000000000000007
42
-0.41421356237309503
10
70
20
32
10
70
20
40
10
60
20
40
10
67.161226752313226
20
73.41905817746175
42
-0.35365333753908135
10
69.116831580468045
20
75
10
72.649999999999991
20
75
10
72.649999999999991
20
60
10
77.350000000000009
20
60
10
77.350000000000009
20
75
0
LWPOLYLINE
5
107
100
AcDbEntity
8
0
100
AcDbPolyline
90
16
70
1
43
0.0
10
95.816831580468033
20
34.999999999999972
42
-0.35365333753908185
10
93.8612267523132
20
36.58094182253825
10
86.699999999999989
20
70
10
96.699999999999989
20
70
10
96.699999999999989
20
77.999999999999986
42
-0.41421356237309243
10
98.699999999999974
20
80
10
104.69999999999999
20
79.999999999999986
42
-0.41421356237309503
10
106.69999999999999
20
77.999999999999986
10
106.69999999999999
20
69.999999999999986
10
116.69999999999999
20
69.999999999999986
10
109.53877324768675
20
36.58094182253825
42
-0.35365333753908135
10
107.58316841953192
20
34.999999999999993
10
104.04999999999998
20
34.999999999999993
10
104.04999999999998
20
50
10
99.349999999999994
20
50
10
99.349999999999994
20
34.999999999999993
0
SPLINE
5
108
100
AcDbEntity
8
0
100
AcDbSpline
70
0
71
3
72
9
73
5
74
0
42
0.000000001
43
0.0000000001
44
0.0000000001
40
0
40
0
40
0
40
0
40
0.038797603113493111
40
0.06951746790304128
40
0.06951746790304128
40
0.06951746790304128
40
0.06951746790304128
10
53.798999260522429
20
61.818563550048381
30
0
10
53.927809451135751
20
61.800643423742912
30
0
10
54.158611293851422
20
61.768534177158408
30
0
10
54.372584435489557
20
61.677054699707632
30
0
10
54.467139461413211
20
61.636629792657999
30
0
0
SPLINE
5
109
100
AcDbEntity
8
0
100
AcDbSpline
70
0
71
3
72
9
73
5
74
0
42
0.000000001
43
0.0000000001
44
0.0000000001
40
0
40
0
40
0
40
0
40
0.044388703884569496
40
0.08425689143670187
40
0.08425689143670187
40
0.08425689143670187
40
0.08425689143670187
10
53.759511632547273
20
59.077686322617694
30
0
10
53.896732570162001
20
59.015572100751839
30
0
10
54.157199955592148
20
58.897669328415105
30
0
10
54.330671044746509
20
58.671161467529842
30
0
10
54.412753089305141
20
58.563983790715241
30
0
0
SPLINE
5
110
100
AcDbEntity
8
0
100
AcDbSpline
70
0
71
3
72
9
73
5
74
0
42
0.000000001
43
0.0000000001
44
0.0000000001
40
0
40
0
40
0
40
0
40
0.036198808798826629
40
0.074855458012287657
40
0.074855458012287657
40
0.074855458012287657
40
0.074855458012287657
10
51.931452648272796
20
58.845605698551864
30
0
10
52.024451666453366
20
58.925513335679597
30
0
10
52.216764185334569
20
59.090754208911598
30
0
10
52.464587429185308
20
59.14587887784581
30
0
10
52.592567625404349
20
59.174346207371038
30
0
0
LWPOLYLINE
5
111
100
AcDbEntity
8
0
100
AcDbPolyline
90
10
70
1
43
0.0
10
53.393221342565163
20
71.909708725667159
10
56.234392100037965
20
71.554562380983072
10
56.279451534318596
20
71.915037855227993
10
54.04682622299628
20
72.19411601914328
10
56.465988146884385
20
73.407330755754401
10
56.514197018886669
20
73.793001731772691
10
53.673026261413881
20
74.148148076456792
10
53.62796682713325
20
73.78767260221187
10
55.8586541252998
20
73.508836689941049
10
53.441430214567447
20
72.295379701685448
0
LINE
5
112
100
AcDbEntity
8
0
100
AcDbLine
10
55.02432667177019
20
68.156932665178559
30
0
11
55.859381009611511
21
68.554473657571478
31
0
0
LINE
5
113
100
AcDbEntity
8
0
100
AcDbLine
10
55.546387079474385
20
66.050522216474349
30
0
11
52.705216322001576
21
66.40566856115845
31
0
0
SPLINE
5
114
100
AcDbEntity
8
0
100
AcDbSpline
70
0
71
3
72
9
73
5
74
0
42
0.000000001
43
0.0000000001
44
0.0000000001
40
0
40
0
40
0
40
0
40
0.01826781212508238
40
0.036760173776706852
40
0.036760173776706852
40
0.036760173776706852
40
0.036760173776706852
10
54.11889733480308
20
59.960828360432515
30
0
10
54.177508241137801
20
59.981148173023293
30
0
10
54.29545050413688
20
60.022037571098579
30
0
10
54.377522863774942
20
60.116137693615606
30
0
10
54.418809713104004
20
60.163475160179757
30
0
0
LINE
5
115
100
AcDbEntity
8
0
100
AcDbLine
10
52.592567625404349
20
59.174346207371038
30
0
11
52.633508763246333
21
58.793278437697872
31
0
0
SPLINE
5
116
100
AcDbEntity
8
0
100
AcDbSpline
70
0
71
3
72
9
73
5
74
0
42
0.000000001
43
0.0000000001
44
0.0000000001
40
0
40
0
40
0
40
0
40
0.027414243852359854
40
0.053236075434399746
40
0.053236075434399746
40
0.053236075434399746
40
0.053236075434399746
10
53.597321559766158
20
57.047949933308779
30
0
10
53.685894728073116
20
57.076409062368285
30
0
10
53.857896111545429
20
57.131674213928477
30
0
10
53.982181839571183
20
57.26248767220504
30
0
10
54.042465868980649
20
57.325937937100022
30
0
0
SPLINE
5
117
100
AcDbEntity
8
0
100
AcDbSpline
70
0
71
3
72
9
73
5
74
0
42
0.000000001
43
0.0000000001
44
0.0000000001
40
0
40
0
40
0
40
0
40
0.035873763270517688
40
0.070992011410203962
40
0.070992011410203962
40
0.070992011410203962
40
0.070992011410203962
10
52.151784086064353
20
56.899931886692407
30
0
10
52.05631457106827
20
56.974769490905246
30
0
10
51.867386165458299
20
57.122868590855461
30
0
10
51.76219059815152
20
57.338553784297474
30
0
10
51.710152573555632
20
57.445248692539835
30
0
0
SPLINE
5
118
100
AcDbEntity
8
0
100
AcDbSpline
70
0
71
3
72
9
73
5
74
0
42
0.000000001
43
0.0000000001
44
0.0000000001
40
0
40
0
40
0
40
0
40
0.03036367426952534
40
0.067434176586624858
40
0.067434176586624858
40
0.067434176586624858
40
0.067434176586624858
10
54.249594120841813
20
68.320696551172347
30
0
10
54.303088517326913
20
68.232920314018401
30
0
10
54.421893328198948
20
68.037979536304661
30
0
10
54.432018342956816
20
67.808972941582923
30
0
10
54.437584354170156
20
67.683081443681147
30
0
0
SPLINE
5
119
100
AcDbEntity
8
0
100
AcDbSpline
70
0
71
3
72
9
73
5
74
0
42
0.000000001
43
0.0000000001
44
0.0000000001
40
0
40
0
40
0
40
0
40
0.027328738749805726
40
0.048013895695525624
40
0.048013895695525624
40
0.048013895695525624
40
0.048013895695525624
10
55.162170167801392
20
67.779499058307394
30
0
10
55.080117174220895
20
67.739854638932698
30
0
10
54.935958165956862
20
67.67020330836111
30
0
10
54.796745080087383
20
67.591161239755706
30
0
10
54.736769848159348
20
67.557108647881364
30
0
0
SPLINE
5
120
100
AcDbEntity
8
0
100
AcDbSpline
70
0
71
3
72
9
73
5
74
0
42
0.000000001
43
0.0000000001
44
0.0000000001
40
0
40
0
40
0
40
0
40
0.0097441859953318576
40
0.018954936670992
40
0.018954936670992
40
0.018954936670992
40
0.018954936670992
10
54.522979361870725
20
67.389951760255713
30
0
10
54.502898046449616
20
67.364237951987619
30
0
10
54.463834746317659
20
67.314218011119763
30
0
10
54.438343203561637
20
67.256116577232362
30
0
10
54.425956127374597
20
67.227883413981857
30
0
0
LINE
5
121
100
AcDbEntity
8
0
100
AcDbLine
10
52.11047945985996
20
61.647773664025536
30
0
11
52.157476981226822
21
62.023753834960331
31
0
0
SPLINE
5
122
100
AcDbEntity
8
0
100
AcDbSpline
70
0
71
3
72
9
73
5
74
0
42
0.000000001
43
0.0000000001
44
0.0000000001
40
0
40
0
40
0
40
0
40
0.020099693641453718
40
0.042760543933635535
40
0.042760543933635535
40
0.042760543933635535
40
0.042760543933635535
10
54.418809713104004
20
60.163475160179757
30
0
10
54.454125214922158
20
60.221171391741606
30
0
10
54.52925621412902
20
60.343915662799425
30
0
10
54.552625944397342
20
60.486132893170783
30
0
10
54.565010678319368
20
60.561500581931149
30
0
0
LWPOLYLINE
5
123
100
AcDbEntity
8
0
100
AcDbPolyline
90
8
70
1
43
0.0
10
53.849388267946651
20
75.559044128718952
10
56.554169298011701
20
74.112779964772898
10
56.604073839112203
20
74.512016293576949
10
55.782585889083123
20
74.931603276091082
10
55.931088383540612
20
76.119623231750879
10
56.833005136352064
20
76.343466671495733
10
56.886543507567481
20
76.771773641219141
10
53.900019693358878
20
75.964095532016813
0
SPLINE
5
124
100
AcDbEntity
8
0
100
AcDbSpline
70
0
71
3
72
9
73
5
74
0
42
0.000000001
43
0.0000000001
44
0.0000000001
40
0
40
0
40
0
40
0
40
0.026448546797794698
40
0.053363552078563831
40
0.053363552078563831
40
0.053363552078563831
40
0.053363552078563831
10
52.034047929348368
20
57.540576128559437
30
0
10
52.082736331297674
20
57.465428941686255
30
0
10
52.18097182578088
20
57.31380923830811
30
0
10
52.337821921473889
20
57.224043140225582
30
0
10
52.416932493941992
20
57.178767761997989
30
0
0
LINE
5
125
100
AcDbEntity
8
0
100
AcDbLine
10
53.519678844962684
20
59.5840002255703
30
0
11
51.878156565667055
21
59.789190510482257
31
0
0
SPLINE
5
126
100
AcDbEntity
8
0
100
AcDbSpline
70
0
71
3
72
9
73
5
74
0
42
0.000000001
43
0.0000000001
44
0.0000000001
40
0
40
0
40
0
40
0
40
0.036736196177270218
40
0.067778376263411447
40
0.067778376263411447
40
0.067778376263411447
40
0.067778376263411447
10
54.908286489115596
20
60.552052564487994
30
0
10
54.889404417710708
20
60.429772961413519
30
0
10
54.85456694749093
20
60.204166779801007
30
0
10
54.74104007330137
20
60.006611681548534
30
0
10
54.689045294619838
20
59.916132368307764
30
0
0
LINE
5
127
100
AcDbEntity
8
0
100
AcDbLine
10
54.386226340168065
20
67.020270815933969
30
0
11
54.331718888444271
21
66.584211202143777
31
0
0
LINE
5
128
100
AcDbEntity
8
0
100
AcDbLine
10
55.593384674771684
20
66.426502978852852
30
0
11
55.546387079474385
21
66.050522216474349
31
0
0
SPLINE
5
129
100
AcDbEntity
8
0
100
AcDbSpline
70
0
71
3
72
9
73
5
74
0
42
0.000000001
43
0.0000000001
44
0.0000000001
40
0
40
0
40
0
40
0
40
0.018869482021155431
40
0.037419478458337152
40
0.037419478458337152
40
0.037419478458337152
40
0.037419478458337152
10
53.715905782063942
20
68.192544174429088
30
0
10
53.65116078798561
20
68.194659336262262
30
0
10
53.522767019228077
20
68.198853847407989
30
0
10
53.418097858853187
20
68.124504928815369
30
0
10
53.366210108621758
20
68.087647863142024
30
0
0
SPLINE
5
130
100
AcDbEntity
8
0
100
AcDbSpline
70
0
71
3
72
9
73
5
74
0
42
0.000000001
43
0.0000000001
44
0.0000000001
40
0
40
0
40
0
40
0
40
0.030554903283658882
40
0.058117474416145107
40
0.058117474416145107
40
0.058117474416145107
40
0.058117474416145107
10
51.945503631787062
20
58.107695878131153
30
0
10
51.93776562349646
20
58.004483294169312
30
0
10
51.92304741297928
20
57.808166040203915
30
0
10
51.99833996947774
20
57.626657618442053
30
0
10
52.034047929348368
20
57.540576128559437
30
0
0
SPLINE
5
131
100
AcDbEntity
8
0
100
AcDbSpline
70
0
71
3
72
9
73
5
74
0
42
0.000000001
43
0.0000000001
44
0.0000000001
40
0
40
0
40
0
40
0
40
0.032143474389641366
40
0.072933471952536938
40
0.072933471952536938
40
0.072933471952536938
40
0.072933471952536938
10
54.24547600922935
20
59.603501880326483
30
0
10
54.139459386430211
20
59.584719969581499
30
0
10
53.898907904916555
20
59.542103855843152
30
0
10
53.655699602130994
20
59.568972959638771
30
0
10
53.519678844962684
20
59.5840002255703
30
0
0
LINE
5
132
100
AcDbEntity
8
0
100
AcDbLine
10
53.617549821594828
20
58.713576537709841
30
0
11
53.759511632547273
21
59.077686322617694
31
0
0
SPLINE
5
133
100
AcDbEntity
8
0
100
AcDbSpline
70
0
71
3
72
9
73
5
74
0
42
0.000000001
43
0.0000000001
44
0.0000000001
40
0
40
0
40
0
40
0
40
0.015053738807795066
40
0.02699756206267578
40
0.02699756206267578
40
0.02699756206267578
40
0.02699756206267578
10
54.437584354170156
20
67.683081443681147
30
0
10
54.465314164361587
20
67.725104598692496
30
0
10
54.515045150210909
20
67.800469446586703
30
0
10
54.579077247693881
20
67.864028211847312
30
0
10
54.60740528906296
20
67.892146849256463
30
0
0
LINE
5
134
100
AcDbEntity
8
0
100
AcDbLine
10
51.878156565667055
20
59.789190510482257
30
0
11
51.925154087033917
21
60.165170681417038
31
0
0
SPLINE
5
135
100
AcDbEntity
8
0
100
AcDbSpline
70
0
71
3
72
9
73
5
74
0
42
0.000000001
43
0.0000000001
44
0.0000000001
40
0
40
0
40
0
40
0
40
0.042231458993278154
40
0.078430729369400293
40
0.078430729369400293
40
0.078430729369400293
40
0.078430729369400293
10
54.562103566172638
20
57.782589180944285
30
0
10
54.539312475112141
20
57.641662808861021
30
0
10
54.496985689876389
20
57.379939477170467
30
0
10
54.349680860369972
20
57.160248505492362
30
0
10
54.281693129108461
20
57.058851349723071
30
0
0
SPLINE
5
136
100
AcDbEntity
8
0
100
AcDbSpline
70
0
71
3
72
9
73
5
74
0
42
0.000000001
43
0.0000000001
44
0.0000000001
40
0
40
0
40
0
40
0
40
0.038760356083550142
40
0.07863755831377861
40
0.07863755831377861
40
0.07863755831377861
40
0.07863755831377861
10
53.685260246698917
20
56.688564120157274
30
0
10
53.558446347170673
20
56.659926039701489
30
0
10
53.301164515248018
20
56.601824697263282
30
0
10
53.038189635843395
20
56.62288992524428
30
0
10
52.904834752091219
20
56.633572128179324
30
0
0
SPLINE
5
137
100
AcDbEntity
8
0
100
AcDbSpline
70
0
71
3
72
9
73
5
74
0
42
0.000000001
43
0.0000000001
44
0.0000000001
40
0
40
0
40
0
40
0
40
0.0085576983031178007
40
0.021160014474168449
40
0.021160014474168449
40
0.021160014474168449
40
0.021160014474168449
10
54.425956127374597
20
67.227883413981857
30
0
10
54.418526225544426
20
67.200311345876159
30
0
10
54.400154833529974
20
67.132135845930492
30
0
10
54.391425367420574
20
67.062026182034558
30
0
10
54.386226340168058
20
67.020270815933969
30
0
0
SPLINE
5
138
100
AcDbEntity
8
0
100
AcDbSpline
70
0
71
3
72
9
73
5
74
0
42
0.000000001
43
0.0000000001
44
0.0000000001
40
0
40
0
40
0
40
0
40
0.026788490881182146
40
0.05505709969026043
40
0.05505709969026043
40
0.05505709969026043
40
0.05505709969026043
10
54.467139461413211
20
61.636629792657999
30
0
10
54.542884492508051
20
61.586654137301089
30
0
10
54.698559619805351
20
61.483941571248906
30
0
10
54.787594384683231
20
61.319834900491834
30
0
10
54.833308542401298
20
61.235575698596165
30
0
0
SPLINE
5
139
100
AcDbEntity
8
0
100
AcDbSpline
70
0
71
3
72
9
73
5
74
0
42
0.000000001
43
0.0000000001
44
0.0000000001
40
0
40
0
40
0
40
0
40
0.020855443441721935
40
0.042499323380614525
40
0.042499323380614525
40
0.042499323380614525
40
0.042499323380614525
10
53.011426984302133
20
68.23336375210738
30
0
10
53.050277369901622
20
68.292423286020693
30
0
10
53.129446873329762
20
68.41277508949608
30
0
10
53.2565441805707
20
68.480817481885225
30
0
10
53.321271772439459
20
68.515469830545868
30
0
0
LWPOLYLINE
5
140
100
AcDbEntity
8
0
100
AcDbPolyline
90
8
70
1
43
0.0
10
55.241871938411116
20
70.605891670714968
10
56.143788691222554
20
70.829735110459836
10
56.197327210298909
20
71.258043263070633
10
53.210803248229382
20
70.450363970980902
10
53.160171822817155
20
70.045312567683055
10
55.864952852882212
20
68.599048403737001
10
55.914857393982714
20
68.998284732541052
10
55.093369443953648
20
69.417871715055185
0
SPLINE
5
141
100
AcDbEntity
8
0
100
AcDbSpline
70
0
71
3
72
9
73
5
74
0
42
0.000000001
43
0.0000000001
44
0.0000000001
40
0
40
0
40
0
40
0
40
0.014950241913099113
40
0.02974945040578585
40
0.02974945040578585
40
0.02974945040578585
40
0.02974945040578585
10
53.113053277282454
20
65.377415274669517
30
0
10
53.070330716068312
20
65.349954786179026
30
0
10
52.985317194318178
20
65.295311226214267
30
0
10
52.938851279633248
20
65.205591999254523
30
0
10
52.91573627247022
20
65.160960131187409
30
0
0
SPLINE
5
142
100
AcDbEntity
8
0
100
AcDbSpline
70
0
71
3
72
9
73
5
74
0
42
0.000000001
43
0.0000000001
44
0.0000000001
40
0
40
0
40
0
40
0
40
0.015449808188829671
40
0.027221995348239436
40
0.027221995348239436
40
0.027221995348239436
40
0.027221995348239436
10
54.736769848159348
20
67.557108647881364
30
0
10
54.692678171476921
20
67.530047098887593
30
0
10
54.614990254392417
20
67.482365642145808
30
0
10
54.550757080951193
20
67.417851140208725
30
0
10
54.522979361870725
20
67.389951760255713
30
0
0
SPLINE
5
143
100
AcDbEntity
8
0
100
AcDbSpline
70
0
71
3
72
9
73
5
74
0
42
0.000000001
43
0.0000000001
44
0.0000000001
40
0
40
0
40
0
40
0
40
0.033746566865904548
40
0.058931929052335172
40
0.058931929052335172
40
0.058931929052335172
40
0.058931929052335172
10
52.862682293648042
20
67.665396334330097
30
0
10
52.877575949799223
20
67.777528442675163
30
0
10
52.903584873643794
20
67.973345738097777
30
0
10
52.979138229209326
20
68.155512364344077
30
0
10
53.011426984302133
20
68.23336375210738
30
0
0
LINE
5
144
100
AcDbEntity
8
0
100
AcDbLine
10
55.610342548641313
20
76.041616982378443
30
0
11
54.786432045202304
21
75.843452364808471
31
0
0
LINE
5
145
100
AcDbEntity
8
0
100
AcDbLine
10
54.800725169465352
20
69.56467794897074
30
0
11
54.921126103511817
21
70.527885421342532
31
0
0
LINE
5
146
100
AcDbEntity
8
0
100
AcDbLine
10
52.37356870103568
20
63.752487593431191
30
0
11
52.507535875033469
21
64.824224985413593
31
0
0
SPLINE
5
147
100
AcDbEntity
8
0
100
AcDbSpline
70
0
71
3
72
9
73
5
74
0
42
0.000000001
43
0.0000000001
44
0.0000000001
40
0
40
0
40
0
40
0
40
0.029750704920997392
40
0.057865199461571315
40
0.057865199461571315
40
0.057865199461571315
40
0.057865199461571315
10
54.236512273283743
20
57.791794928260352
30
0
10
54.242338189902242
20
57.892795653064027
30
0
10
54.253669613075921
20
58.089242328934333
30
0
10
54.164515453201894
20
58.264375935638
30
0
10
54.12119884556256
20
58.349466678871522
30
0
0
SPLINE
5
148
100
AcDbEntity
8
0
100
AcDbSpline
70
0
71
3
72
9
73
5
74
0
42
0.000000001
43
0.0000000001
44
0.0000000001
40
0
40
0
40
0
40
0
40
0.03158200814684213
40
0.054729063075838746
40
0.054729063075838746
40
0.054729063075838746
40
0.054729063075838746
10
53.863196851955522
20
64.694133856209959
30
0
10
53.875329976351551
20
64.801074311262028
30
0
10
53.896355698569387
20
64.986393461415233
30
0
10
53.823169404338586
20
65.156573570664094
30
0
10
53.792216066616305
20
65.228549375021402
30
0
0
SPLINE
5
149
100
AcDbEntity
8
0
100
AcDbSpline
70
0
71
3
72
9
73
5
74
0
42
0.000000001
43
0.0000000001
44
0.0000000001
40
0
40
0
40
0
40
0
40
0.017485495962083406
40
0.036225266252473964
40
0.036225266252473964
40
0.036225266252473964
40
0.036225266252473964
10
52.765295616996042
20
65.587208655030892
30
0
10
52.807811514738852
20
65.627918541472738
30
0
10
52.895893072107043
20
65.712258526947664
30
0
10
53.009317737744404
20
65.757332320279602
30
0
10
53.06799369514092
20
65.780649541118507
30
0
0
SPLINE
5
150
100
AcDbEntity
8
0
100
AcDbSpline
70
0
71
3
72
9
73
5
74
0
42
0.000000001
43
0.0000000001
44
0.0000000001
40
0
40
0
40
0
40
0
40
0.037732380647158469
40
0.089487273840199555
40
0.089487273840199555
40
0.089487273840199555
40
0.089487273840199555
10
54.05094474122631
20
65.511140233988073
30
0
10
54.110637871664231
20
65.397530909244452
30
0
10
54.252207934784025
20
65.128091542319723
30
0
10
54.217705737123438
20
64.822910825172983
30
0
10
54.197751418724636
20
64.646409801701083
30
0
0
LINE
5
151
100
AcDbEntity
8
0
100
AcDbLine
10
52.157476981226822
20
62.023753834960331
30
0
11
53.798999260522429
21
61.818563550048381
31
0
0
LINE
5
152
100
AcDbEntity
8
0
100
AcDbLine
10
55.261736979875323
20
63.773321419681899
30
0
11
55.214739458508468
21
63.397341248747097
31
0
0
SPLINE
5
153
100
AcDbEntity
8
0
100
AcDbSpline
70
0
71
3
72
9
73
5
74
0
42
0.000000001
43
0.0000000001
44
0.0000000001
40
0
40
0
40
0
40
0
40
0.034415545695216591
40
0.071014856360033227
40
0.071014856360033227
40
0.071014856360033227
40
0.071014856360033227
10
54.281693129108461
20
57.058851349723071
30
0
10
54.199281412613317
20
56.976819212741233
30
0
10
54.029228720114553
20
56.807549764676601
30
0
10
53.802243069365154
20
56.729030842047258
30
0
10
53.685260246698917
20
56.688564120157274
30
0
0
SPLINE
5
154
100
AcDbEntity
8
0
100
AcDbSpline
70
0
71
3
72
9
73
5
74
0
42
0.000000001
43
0.0000000001
44
0.0000000001
40
0
40
0
40
0
40
0
40
0.023911081802339317
40
0.050421330681608048
40
0.050421330681608048
40
0.050421330681608048
40
0.050421330681608048
10
52.14609096911051
20
58.562893704521663
30
0
10
52.096240509845359
20
58.499118904321612
30
0
10
51.991120778667295
20
58.36463689649689
30
0
10
51.961223079169528
20
58.196236505829795
30
0
10
51.945503631787062
20
58.107695878131153
30
0
0
LINE
5
155
100
AcDbEntity
8
0
100
AcDbLine
10
54.921126103511817
20
70.527885421342532
30
0
11
54.097215600072808
21
70.329720803772574
31
0
0
LINE
5
156
100
AcDbEntity
8
0
100
AcDbLine
10
53.77138209250468
20
63.959615780603229
30
0
11
53.863196851955522
21
64.694133856209959
31
0
0
LINE
5
157
100
AcDbEntity
8
0
100
AcDbLine
10
53.178583169588372
20
67.641655081728203
30
0
11
53.066176780083453
21
66.742403965688879
31
0
0
LINE
5
158
100
AcDbEntity
8
0
100
AcDbLine
10
55.214739458508468
20
63.397341248747097
30
0
11
52.37356870103568
21
63.752487593431191
31
0
0
SPLINE
5
159
100
AcDbEntity
8
0
100
AcDbSpline
70
0
71
3
72
9
73
5
74
0
42
0.000000001
43
0.0000000001
44
0.0000000001
40
0
40
0
40
0
40
0
40
0.039003630745512261
40
0.080740133712254608
40
0.080740133712254608
40
0.080740133712254608
40
0.080740133712254608
10
54.412753089305141
20
58.563983790715241
30
0
10
54.469866300016285
20
58.444680471026594
30
0
10
54.588094479839882
20
58.197714591187683
30
0
10
54.570960519423437
20
57.924051939769079
30
0
10
54.562103566172638
20
57.782589180944285
30
0
0
LINE
5
160
100
AcDbEntity
8
0
100
AcDbLine
10
54.197751418724636
20
64.646409801701083
30
0
11
54.106663395724581
21
63.91770561770074
31
0
0
LINE
5
161
100
AcDbEntity
8
0
100
AcDbLine
10
54.695586292329345
20
75.494604914050313
30
0
11
55.489941614594827
21
75.078409510006637
31
0
0
SPLINE
5
162
100
AcDbEntity
8
0
100
AcDbSpline
70
0
71
3
72
9
73
5
74
0
42
0.000000001
43
0.0000000001
44
0.0000000001
40
0
40
0
40
0
40
0
40
0.0235573443970289
40
0.049487355255234733
40
0.049487355255234733
40
0.049487355255234733
40
0.049487355255234733
10
54.60740528906296
20
67.892146849256463
30
0
10
54.669509886465093
20
67.940497782227766
30
0
10
54.79997417916401
20
68.042069494070404
30
0
10
54.94718976194239
20
68.117440391349191
30
0
10
55.024326671770197
20
68.156932665178559
30
0
0
SPLINE
5
163
100
AcDbEntity
8
0
100
AcDbSpline
70
0
71
3
72
9
73
5
74
0
42
0.000000001
43
0.0000000001
44
0.0000000001
40
0
40
0
40
0
40
0
40
0.028222013966552727
40
0.05686562313630053
40
0.05686562313630053
40
0.05686562313630053
40
0.05686562313630053
10
54.172072559584485
20
75.715541056822303
30
0
10
54.260818698159206
20
75.684067969541559
30
0
10
54.439636711536004
20
75.620651633543559
30
0
10
54.609849120310692
20
75.536827641034606
30
0
10
54.695586292329352
20
75.494604914050328
30
0
0
SPLINE
5
164
100
AcDbEntity
8
0
100
AcDbSpline
70
0
71
3
72
9
73
5
74
0
42
0.000000001
43
0.0000000001
44
0.0000000001
40
0
40
0
40
0
40
0
40
0.016828674096214181
40
0.032475966466150016
40
0.032475966466150016
40
0.032475966466150016
40
0.032475966466150016
10
53.429559865505745
20
65.429378927024104
30
0
10
53.372702892555409
20
65.433258684440915
30
0
10
53.262980335903279
20
65.440745838273969
30
0
10
53.161802106375582
20
65.398007226848961
30
0
10
53.113053277282454
20
65.377415274669517
30
0
0
LINE
5
165
100
AcDbEntity
8
0
100
AcDbLine
10
55.489941614594827
20
75.078409510006637
30
0
11
55.610342548641313
21
76.041616982378443
31
0
0
SPLINE
5
166
100
AcDbEntity
8
0
100
AcDbSpline
70
0
71
3
72
9
73
5
74
0
42
0.000000001
43
0.0000000001
44
0.0000000001
40
0
40
0
40
0
40
0
40
0.029367187262493925
40
0.06303701738890613
40
0.06303701738890613
40
0.06303701738890613
40
0.06303701738890613
10
54.12119884556256
20
58.349466678871522
30
0
10
54.057981293452322
20
58.426251082379636
30
0
10
53.922284064567663
20
58.591069719448058
30
0
10
53.72364727444554
20
58.670924089965141
30
0
10
53.617549821594835
20
58.713576537709841
30
0
0
SPLINE
5
167
100
AcDbEntity
8
0
100
AcDbSpline
70
0
71
3
72
9
73
5
74
0
42
0.000000001
43
0.0000000001
44
0.0000000001
40
0
40
0
40
0
40
0
40
0.034212859216260529
40
0.067281029088814559
40
0.067281029088814559
40
0.067281029088814559
40
0.067281029088814559
10
53.466382559048178
20
65.818441019447448
30
0
10
53.580687676870831
20
65.795074624795149
30
0
10
53.805473506918347
20
65.749123625249524
30
0
10
53.970054364831306
20
65.589563134126109
30
0
10
54.05094474122631
20
65.511140233988073
30
0
0
LINE
5
168
100
AcDbEntity
8
0
100
AcDbLine
10
52.705216322001576
20
66.40566856115845
30
0
11
52.862682293648042
21
67.665396334330097
31
0
0
SPLINE
5
169
100
AcDbEntity
8
0
100
AcDbSpline
70
0
71
3
72
9
73
5
74
0
42
0.000000001
43
0.0000000001
44
0.0000000001
40
0
40
0
40
0
40
0
40
0.020045105698256745
40
0.038029434160801741
40
0.038029434160801741
40
0.038029434160801741
40
0.038029434160801741
10
52.588691636058051
20
65.253017271661037
30
0
10
52.610163054885071
20
65.316858492141648
30
0
10
52.650898480325736
20
65.437977608576332
30
0
10
52.728566149367033
20
65.539295070394644
30
0
10
52.765295616996042
20
65.587208655030892
30
0
0
LINE
5
170
100
AcDbEntity
8
0
100
AcDbLine
10
54.006127651003233
20
66.624910106823904
30
0
11
54.107148009909224
21
67.433072978071792
31
0
0
LINE
5
171
100
AcDbEntity
8
0
100
AcDbLine
10
53.066176780083453
20
66.742403965688879
30
0
11
54.006127651003233
21
66.624910106823904
31
0
0
LINE
5
172
100
AcDbEntity
8
0
100
AcDbLine
10
54.006369847199835
20
69.980873353014417
30
0
11
54.800725169465352
21
69.56467794897074
31
0
0
SPLINE
5
173
100
AcDbEntity
8
0
100
AcDbSpline
70
0
71
3
72
9
73
5
74
0
42
0.000000001
43
0.0000000001
44
0.0000000001
40
0
40
0
40
0
40
0
40
0.02140169616066637
40
0.049158615566430933
40
0.049158615566430933
40
0.049158615566430933
40
0.049158615566430933
10
53.366210108621758
20
68.087647863142024
30
0
10
53.320835465401082
20
68.03106435011783
30
0
10
53.21661220076804
20
67.901094877452067
30
0
10
53.19230690893329
20
67.735280504773868
30
0
10
53.178583169588372
20
67.641655081728203
30
0
0
LINE
5
174
100
AcDbEntity
8
0
100
AcDbLine
10
53.750063725999802
20
61.442825630758051
30
0
11
52.11047945985996
21
61.647773664025536
31
0
0
SPLINE
5
175
100
AcDbEntity
8
0
100
AcDbSpline
70
0
71
3
72
9
73
5
74
0
42
0.000000001
43
0.0000000001
44
0.0000000001
40
0
40
0
40
0
40
0
40
0.029633034988249929
40
0.05455954458499488
40
0.05455954458499488
40
0.05455954458499488
40
0.05455954458499488
10
52.633508763246333
20
58.793278437697872
30
0
10
52.53551589865404
20
58.771495280439758
30
0
10
52.355094080002843
20
58.731388718958726
30
0
10
52.211633511170717
20
58.615733069081969
30
0
10
52.14609096911051
20
58.562893704521663
30
0
0
LINE
5
176
100
AcDbEntity
8
0
100
AcDbLine
10
54.106663395724581
20
63.91770561770074
30
0
11
55.261736979875323
21
63.773321419681899
31
0
0
SPLINE
5
177
100
AcDbEntity
8
0
100
AcDbSpline
70
0
71
3
72
9
73
5
74
0
42
0.000000001
43
0.0000000001
44
0.0000000001
40
0
40
0
40
0
40
0
40
0.028506016500536607
40
0.056098794742914314
40
0.056098794742914314
40
0.056098794742914314
40
0.056098794742914314
10
53.764356850262857
20
68.580152720020379
30
0
10
53.85964337474995
20
68.560511130565956
30
0
10
54.047163759398131
20
68.521857203062339
30
0
10
54.182853637020081
20
68.387018416811884
30
0
10
54.249594120841813
20
68.320696551172347
30
0
0
SPLINE
5
178
100
AcDbEntity
8
0
100
AcDbSpline
70
0
71
3
72
9
73
5
74
0
42
0.000000001
43
0.0000000001
44
0.0000000001
40
0
40
0
40
0
40
0
40
0.030727535766021399
40
0.076111589177273065
40
0.076111589177273065
40
0.076111589177273065
40
0.076111589177273065
10
54.450908471855328
20
61.176102374641268
30
0
10
54.367641147336485
20
61.238289384173477
30
0
10
54.161389385271107
20
61.392325560641375
30
0
10
53.903712246161213
20
61.423961597195884
30
0
10
53.750063725999802
20
61.442825630758051
30
0
0
SPLINE
5
179
100
AcDbEntity
8
0
100
AcDbSpline
70
0
71
3
72
9
73
5
74
0
42
0.000000001
43
0.0000000001
44
0.0000000001
40
0
40
0
40
0
40
0
40
0.035000353967052096
40
0.062765815127583502
40
0.062765815127583502
40
0.062765815127583502
40
0.062765815127583502
10
54.786432045202282
20
75.843452364808471
30
0
10
54.672915368586388
20
75.816375898980283
30
0
10
54.469346949104676
20
75.767819920087021
30
0
10
54.263245034497757
20
75.731574706263785
30
0
10
54.172072559584485
20
75.715541056822303
30
0
0
LINE
5
180
100
AcDbEntity
8
0
100
AcDbLine
10
51.925154087033917
20
60.165170681417038
30
0
11
53.564738353173752
21
59.960222648149575
31
0
0
SPLINE
5
181
100
AcDbEntity
8
0
100
AcDbSpline
70
0
71
3
72
9
73
5
74
0
42
0.000000001
43
0.0000000001
44
0.0000000001
40
0
40
0
40
0
40
0
40
0.0343074597674492
40
0.064931778843550184
40
0.064931778843550184
40
0.064931778843550184
40
0.064931778843550184
10
52.951347809444691
20
57.02142294389769
30
0
10
53.065841305124088
20
57.010475374643583
30
0
10
53.282536635844394
20
56.989755532647102
30
0
10
53.496437637542456
20
57.029299486784637
30
0
10
53.597321559766158
20
57.047949933308779
30
0
0
SPLINE
5
182
100
AcDbEntity
8
0
100
AcDbSpline
70
0
71
3
72
9
73
5
74
0
42
0.000000001
43
0.0000000001
44
0.0000000001
40
0
40
0
40
0
40
0
40
0.023183521694159211
40
0.041122166732012522
40
0.041122166732012522
40
0.041122166732012522
40
0.041122166732012522
10
54.107148009909224
20
67.433072978071792
30
0
10
54.115942289597463
20
67.510246587927085
30
0
10
54.131541293079302
20
67.647134593711826
30
0
10
54.112533011038835
20
67.78340420068767
30
0
10
54.10424106410602
20
67.842848833673997
30
0
0
SPLINE
5
183
100
AcDbEntity
8
0
100
AcDbSpline
70
0
71
3
72
9
73
5
74
0
42
0.000000001
43
0.0000000001
44
0.0000000001
40
0
40
0
40
0
40
0
40
0.039927077375506825
40
0.076525245280008938
40
0.076525245280008938
40
0.076525245280008938
40
0.076525245280008938
10
51.62475744571806
20
58.155662480006349
30
0
10
51.648889162841769
20
58.288890863007396
30
0
10
51.695140621583704
20
58.544239747964049
30
0
10
51.854999976034946
20
58.748106504089591
30
0
10
51.931452648272796
20
58.845605698551864
30
0
0
SPLINE
5
184
100
AcDbEntity
8
0
100
AcDbSpline
70
0
71
3
72
9
73
5
74
0
42
0.000000001
43
0.0000000001
44
0.0000000001
40
0
40
0
40
0
40
0
40
0.013588398980473109
40
0.027077976667246338
40
0.027077976667246338
40
0.027077976667246338
40
0.027077976667246338
10
53.961310265058309
20
68.085103472329138
30
0
10
53.924218558595101
20
68.112129984201871
30
0
10
53.850304894181619
20
68.16598645831175
30
0
10
53.760596355425193
20
68.18371316697862
30
0
10
53.715905782063942
20
68.192544174429088
30
0
0
LINE
5
185
100
AcDbEntity
8
0
100
AcDbLine
10
55.800270647264476
20
68.081590758795159
30
0
11
55.162170167801392
21
67.779499058307394
31
0
0
LINE
5
186
100
AcDbEntity
8
0
100
AcDbLine
10
55.859381009611511
20
68.554473657571478
30
0
11
55.800270647264476
21
68.081590758795159
31
0
0
SPLINE
5
187
100
AcDbEntity
8
0
100
AcDbSpline
70
0
71
3
72
9
73
5
74
0
42
0.000000001
43
0.0000000001
44
0.0000000001
40
0
40
0
40
0
40
0
40
0.031794281463002644
40
0.069431989650718451
40
0.069431989650718451
40
0.069431989650718451
40
0.069431989650718451
10
54.833308542401298
20
61.235575698596165
30
0
10
54.867311421618901
20
61.133987397344079
30
0
10
54.941566521885221
20
60.912140022388435
30
0
10
54.919985262784969
20
60.678632417949096
30
0
10
54.908286489115596
20
60.552052564487994
30
0
0
LWPOLYLINE
5
188
100
AcDbEntity
8
0
100
AcDbPolyline
90
20
70
1
43
0.0
10
50
20
5
10
39.849999999999994
20
5
10
39.849999999999994
20
25
10
35.150000000000006
20
25
10
35.150000000000006
20
-5
10
14.849999999999994
20
-5
10
14.849999999999994
20
25
10
10.150000000000006
20
25
10
10.150000000000006
20
5
10
0
20
5
10
-9.7189913163526942
20
82.751930530821596
42
-0.45112349228547283
10
-7.7344355629253592
20
85
10
0.75128869403575116
20
84.999999999999986
42
-0.26794919243112164
10
2.4833395016046289
20
84
10
16.33974596215559
20
60.000000000000057
42
0.57735026918962629
10
33.660254037844396
20
60.000000000000036
10
47.516660498395339
20
84
42
-0.26794919243113025
10
49.248711305964235
20
85
10
57.734435562925356
20
84.999999999999986
42
-0.45112349228548371
10
59.718991316352692
20
82.751930530821568
0
SPLINE
5
189
100
AcDbEntity
8
0
100
AcDbSpline
70
0
71
3
72
9
73
5
74
0
42
0.000000001
43
0.0000000001
44
0.0000000001
40
0
40
0
40
0
40
0
40
0.027722892905034258
40
0.055108068896751426
40
0.055108068896751426
40
0.055108068896751426
40
0.055108068896751426
10
54.689045294619838
20
59.916132368307764
30
0
10
54.628512319856064
20
59.844014349656042
30
0
10
54.508183775672933
20
59.700656845294191
30
0
10
54.332686767251737
20
59.635754288601944
30
0
10
54.24547600922935
20
59.603501880326483
30
0
0
SPLINE
5
190
100
AcDbEntity
8
0
100
AcDbSpline
70
0
71
3
72
9
73
5
74
0
42
0.000000001
43
0.0000000001
44
0.0000000001
40
0
40
0
40
0
40
0
40
0.019758581667748319
40
0.040284063760625398
40
0.040284063760625398
40
0.040284063760625398
40
0.040284063760625398
10
53.06799369514092
20
65.780649541118507
30
0
10
53.13202475383374
20
65.798190245499356
30
0
10
53.262572143034852
20
65.833952471025754
30
0
10
53.39758896775411
20
65.823676710935288
30
0
10
53.466382559048178
20
65.818441019447448
30
0
0
SPLINE
5
191
100
AcDbEntity
8
0
100
AcDbSpline
70
0
71
3
72
9
73
5
74
0
42
0.000000001
43
0.0000000001
44
0.0000000001
40
0
40
0
40
0
40
0
40
0.014660188114436293
40
0.028517822862518336
40
0.028517822862518336
40
0.028517822862518336
40
0.028517822862518336
10
54.10424106410602
20
67.842848833673997
30
0
10
54.090033863725822
20
67.890494465035601
30
0
10
54.062397218093956
20
67.983177428223854
30
0
10
53.994367750498057
20
68.051771587078321
30
0
10
53.961310265058309
20
68.085103472329138
30
0
0
SPLINE
5
192
100
AcDbEntity
8
0
100
AcDbSpline
70
0
71
3
72
9
73
5
74
0
42
0.000000001
43
0.0000000001
44
0.0000000001
40
0
40
0
40
0
40
0
40
0.025479187176030003
40
0.050947169540288023
40
0.050947169540288023
40
0.050947169540288023
40
0.050947169540288023
10
54.042465868980649
20
57.325937937100022
30
0
10
54.090945913700814
20
57.396878912396133
30
0
10
54.187884683396064
20
57.538729665750026
30
0
10
54.220305453421354
20
57.707452209807471
30
0
10
54.236512273283743
20
57.791794928260352
30
0
0
SPLINE
5
193
100
AcDbEntity
8
0
100
AcDbSpline
70
0
71
3
72
9
73
5
74
0
42
0.000000001
43
0.0000000001
44
0.0000000001
40
0
40
0
40
0
40
0
40
0.036103065890410374
40
0.06380412587347363
40
0.06380412587347363
40
0.06380412587347363
40
0.06380412587347363
10
54.565010678319368
20
60.561500581931149
30
0
10
54.577601339764215
20
60.684719938497821
30
0
10
54.599852528904087
20
60.902482700261388
30
0
10
54.495997809905475
20
61.093270402424679
30
0
10
54.450908471855328
20
61.176102374641268
30
0
0
SPLINE
5
194
100
AcDbEntity
8
0
100
AcDbSpline
70
0
71
3
72
9
73
5
74
0
42
0.000000001
43
0.0000000001
44
0.0000000001
40
0
40
0
40
0
40
0
40
0.032443787575755757
40
0.055617790189245786
40
0.055617790189245786
40
0.055617790189245786
40
0.055617790189245786
10
53.564738353173752
20
59.960222648149568
30
0
10
53.672697193288492
20
59.947115895007535
30
0
10
53.857769053488397
20
59.92464722840645
30
0
10
54.042095078395569
20
59.950186875852644
30
0
10
54.11889733480308
20
59.960828360432515
30
0
0
SPLINE
5
195
100
AcDbEntity
8
0
100
AcDbSpline
70
0
71
3
72
9
73
5
74
0
42
0.000000001
43
0.0000000001
44
0.0000000001
40
0
40
0
40
0
40
0
40
0.028222013966552727
40
0.05686562313630053
40
0.05686562313630053
40
0.05686562313630053
40
0.05686562313630053
10
53.482856114455011
20
70.201809495786392
30
0
10
53.57160225302971
20
70.170336408505648
30
0
10
53.750420266406508
20
70.106920072507663
30
0
10
53.920632675181217
20
70.023096079998695
30
0
10
54.006369847199842
20
69.980873353014431
30
0
0
SPLINE
5
196
100
AcDbEntity
8
0
100
AcDbSpline
70
0
71
3
72
9
73
5
74
0
42
0.000000001
43
0.0000000001
44
0.0000000001
40
0
40
0
40
0
40
0
40
0.025155774346041954
40
0.043677896732302109
40
0.043677896732302109
40
0.043677896732302109
40
0.043677896732302109
10
52.507535875033469
20
64.824224985413593
30
0
10
52.518209219064929
20
64.907505386575906
30
0
10
52.536741314796984
20
65.052104901254097
30
0
10
52.573221701771224
20
65.193188937742079
30
0
10
52.588691636058051
20
65.253017271661037
30
0
0
SPLINE
5
197
100
AcDbEntity
8
0
100
AcDbSpline
70
0
71
3
72
9
73
5
74
0
42
0.000000001
43
0.0000000001
44
0.0000000001
40
0
40
0
40
0
40
0
40
0.035000353967052096
40
0.062765815127583502
40
0.062765815127583502
40
0.062765815127583502
40
0.062765815127583502
10
54.097215600072808
20
70.329720803772574
30
0
10
53.983698923456878
20
70.302644337944372
30
0
10
53.780130503975201
20
70.254088359051124
30
0
10
53.574028589368261
20
70.217843145227874
30
0
10
53.482856114455011
20
70.201809495786392
30
0
0
SPLINE
5
198
100
AcDbEntity
8
0
100
AcDbSpline
70
0
71
3
72
9
73
5
74
0
42
0.000000001
43
0.0000000001
44
0.0000000001
40
0
40
0
40
0
40
0
40
0.01375551142528815
40
0.035493296973873864
40
0.035493296973873864
40
0.035493296973873864
40
0.035493296973873864
10
52.91573627247022
20
65.160960131187409
30
0
10
52.902852237111304
20
65.116889448817602
30
0
10
52.869607606717182
20
65.003174024590095
30
0
10
52.855396800759742
20
64.885433506817307
30
0
10
52.84669342635631
20
64.813323605964541
30
0
0
LINE
5
199
100
AcDbEntity
8
0
100
AcDbLine
10
52.755847673483345
20
64.086557582980902
30
0
11
53.77138209250468
21
63.959615780603229
31
0
0
SPLINE
5
200
100
AcDbEntity
8
0
100
AcDbSpline
70
0
71
3
72
9
73
5
74
0
42
0.000000001
43
0.0000000001
44
0.0000000001
40
0
40
0
40
0
40
0
40
0.027901078318832574
40
0.055896611319429572
40
0.055896611319429572
40
0.055896611319429572
40
0.055896611319429572
10
52.416932493941992
20
57.178767761997989
30
0
10
52.502628404604138
20
57.141647429022164
30
0
10
52.674310335861705
20
57.067281098062217
30
0
10
52.858898012184667
20
57.036726205945236
30
0
10
52.951347809444691
20
57.02142294389769
30
0
0
SPLINE
5
201
100
AcDbEntity
8
0
100
AcDbSpline
70
0
71
3
72
9
73
5
74
0
42
0.000000001
43
0.0000000001
44
0.0000000001
40
0
40
0
40
0
40
0
40
0.042087535396568974
40
0.080449364753038766
40
0.080449364753038766
40
0.080449364753038766
40
0.080449364753038766
10
52.904834752091219
20
56.633572128179324
30
0
10
52.765148590100956
20
56.656782899722849
30
0
10
52.498141674846401
20
56.701149760564419
30
0
10
52.263616231315986
20
56.835748995014626
30
0
10
52.151784086064353
20
56.899931886692407
30
0
0
LINE
5
202
100
AcDbEntity
8
0
100
AcDbLine
10
52.84669342635631
20
64.813323605964541
30
0
11
52.755847673483345
21
64.086557582980902
31
0
0
SPLINE
5
203
100
AcDbEntity
8
0
100
AcDbSpline
70
0
71
3
72
9
73
5
74
0
42
0.000000001
43
0.0000000001
44
0.0000000001
40
0
40
0
40
0
40
0
40
0.035575988014853462
40
0.072135982669381607
40
0.072135982669381607
40
0.072135982669381607
40
0.072135982669381607
10
51.710152573555632
20
57.445248692539835
30
0
10
51.673602992477115
20
57.559290045024987
30
0
10
51.599492894785612
20
57.790527053060494
30
0
10
51.616259690145313
20
58.032848834221291
30
0
10
51.62475744571806
20
58.155662480006349
30
0
0
LINE
5
204
100
AcDbEntity
8
0
100
AcDbLine
10
54.331718888444271
20
66.584211202143777
30
0
11
55.593384674771684
21
66.426502978852852
31
0
0
SPLINE
5
205
100
AcDbEntity
8
0
100
AcDbSpline
70
0
71
3
72
9
73
5
74
0
42
0.000000001
43
0.0000000001
44
0.0000000001
40
0
40
0
40
0
40
0
40
0.020116845211662324
40
0.042473616914845205
40
0.042473616914845205
40
0.042473616914845205
40
0.042473616914845205
10
53.792216066616305
20
65.228549375021402
30
0
10
53.745999092897847
20
65.279645926294862
30
0
10
53.648419078933038
20
65.38752841590113
30
0
10
53.505033506402171
20
65.41494677039536
30
0
10
53.429559865505745
20
65.429378927024104
30
0
0
SPLINE
5
206
100
AcDbEntity
8
0
100
AcDbSpline
70
0
71
3
72
9
73
5
74
0
42
0.000000001
43
0.0000000001
44
0.0000000001
40
0
40
0
40
0
40
0
40
0.022414714089477168
40
0.045217515835546479
40
0.045217515835546479
40
0.045217515835546479
40
0.045217515835546479
10
53.321271772439459
20
68.515469830545868
30
0
10
53.392208954633666
20
68.541621788904678
30
0
10
53.53531152316927
20
68.594378499808911
30
0
10
53.687572804403146
20
68.584921701520827
30
0
10
53.764356850262857
20
68.580152720020379
30
0
0
ENDSEC
0
SECTION
2
OBJECTS
0
DICTIONARY
5
C
100
AcDbDictionary
3
ACAD_GROUP
350
D
3
ACAD_MLINESTYLE
350
17
0
DICTIONARY
5
D
100
AcDbDictionary
0
DICTIONARY
5
1A
330
C
100
AcDbDictionary
0
DICTIONARY
5
17
100
AcDbDictionary
0
ENDSEC
0
EOF
