0
SECTION
2
HEADER
9
$INSUNITS
70
4
9
$ACADVER
1
AC1014
9
$HANDSEED
5
FFFF
0
ENDSEC
0
SECTION
2
TABLES
0
TABLE
2
VPORT
5
8
100
AcDbSymbolTable
0
ENDTAB
0
TABLE
2
LTYPE
5
5
100
AcDbSymbolTable
0
LTYPE
5
14
100
AcDbSymbolTableRecord
100
AcDbLinetypeTableRecord
2
BYBLOCK
70
0
0
LTYPE
5
15
100
AcDbSymbolTableRecord
100
AcDbLinetypeTableRecord
2
BYLAYER
70
0
0
ENDTAB
0
TABLE
2
LAYER
5
2
100
AcDbSymbolTable
70
2
0
LAYER
5
50
100
AcDbSymbolTableRecord
100
AcDbLayerTableRecord
2
0
70
0
6
CONTINUOUS
0
ENDTAB
0
TABLE
2
STYLE
5
3
100
AcDbSymbolTable
70
1
0
STYLE
5
11
100
AcDbSymbolTableRecord
100
AcDbTextStyleTableRecord
2
STANDARD
70
0
0
ENDTAB
0
TABLE
2
VIEW
5
6
100
AcDbSymbolTable
70
0
0
ENDTAB
0
TABLE
2
UCS
5
7
100
AcDbSymbolTable
70
0
0
ENDTAB
0
TABLE
2
APPID
5
9
100
AcDbSymbolTable
70
2
0
APPID
5
12
100
AcDbSymbolTableRecord
100
AcDbRegAppTableRecord
2
ACAD
70
0
0
ENDTAB
0
TABLE
2
DIMSTYLE
5
A
100
AcDbSymbolTable
70
1
0
ENDTAB
0
TABLE
2
BLOCK_RECORD
5
1
100
AcDbSymbolTable
70
1
0
BLOCK_RECORD
5
1F
100
AcDbSymbolTableRecord
100
AcDbBlockTableRecord
2
*MODEL_SPACE
0
BLOCK_RECORD
5
1B
100
AcDbSymbolTableRecord
100
AcDbBlockTableRecord
2
*PAPER_SPACE
0
ENDTAB
0
ENDSEC
0
SECTION
2
BLOCKS
0
BLOCK
5
20
100
AcDbEntity
100
AcDbBlockBegin
2
*MODEL_SPACE
0
ENDBLK
5
21
100
AcDbEntity
100
AcDbBlockEnd
0
BLOCK
5
1C
100
AcDbEntity
100
AcDbBlockBegin
2
*PAPER_SPACE
0
ENDBLK
5
1D
100
AcDbEntity
100
AcDbBlockEnd
0
ENDSEC
0
SECTION
2
ENTITIES
0
ARC
5
100
100
AcDbEntity
8
0
100
AcDbCircle
10
-40
20
5.5000000000000462
30
0
40
1.5000000000000033
210
0
220
-0
230
1
100
AcDbArc
50
89.999998009279324
51
270
0
LWPOLYLINE
5
101
100
AcDbEntity
8
0
100
AcDbPolyline
90
8
70
1
43
0.0
10
49.999999999999943
20
-9.9999999999999805
42
-0.41421356237309775
10
46.999999999999922
20
-12.999999999999982
10
-47.000000000000064
20
-12.999999999999989
42
-0.41421356237309592
10
-50.000000000000064
20
-9.9999999999999822
10
-50.000000000000064
20
10.000000000000021
42
-0.41421356237309681
10
-47.000000000000043
20
13.000000000000021
10
46.999999999999943
20
13.000000000000027
42
-0.41421356237309592
10
49.999999999999936
20
10.000000000000018
0
ARC
5
102
100
AcDbEntity
8
0
100
AcDbCircle
10
40
20
5.5000000000000435
30
0
40
1.4999999999999991
210
0
220
0
230
1
100
AcDbArc
50
-90
51
90
0
LWPOLYLINE
5
103
100
AcDbEntity
8
0
100
AcDbPolyline
90
4
70
1
43
0.0
10
-40
20
-7.0000000000000204
10
40
20
-7.0000000000000213
42
0.99999999999999989
10
40
20
-4.0000000000000231
10
-40
20
-4.0000000000000169
42
0.99999999999999989
0
CIRCLE
5
104
100
AcDbEntity
8
0
100
AcDbCircle
10
45.5
20
1.2321328918943253e-15
30
0
40
2.0000000000000018
210
0
220
-0
230
1
0
CIRCLE
5
105
100
AcDbEntity
8
0
100
AcDbCircle
10
-45.5
20
1.5960612915878277e-14
30
0
40
2.0000000000000018
210
0
220
-0
230
1
0
LINE
5
106
100
AcDbEntity
8
0
100
AcDbLine
10
40
20
4.0000000000000444
30
0
11
-40
21
4.0000000000000426
31
0
0
LINE
5
107
100
AcDbEntity
8
0
100
AcDbLine
10
-39.999999947883055
20
7.000000000000048
30
0
11
40
21
7.0000000000000426
31
0
0
LWPOLYLINE
5
108
100
AcDbEntity
8
0
100
AcDbPolyline
90
19
70
1
43
0.0
10
15
20
18.000000000000007
42
-0.41421356237309503
10
11.999999999999996
20
15.000000000000009
10
-12.000000000000007
20
15.000000000000009
42
-0.41421356237309548
10
-15.000000000000004
20
18.000000000000011
10
-15.000000000000004
20
33.000000000000007
42
0.41421356237309503
10
-23.000000000000007
20
41.000000000000007
10
-38
20
41
42
-0.41421356237309437
10
-40
20
43.000000000000007
10
-40
20
49.66364272416142
42
-0.30334668360734185
10
-38.765366864730176
20
51.511401789183978
10
-30.52691681549307
20
54.923879532511286
42
-0.098491403357167953
10
-30.14423338312799
20
55
10
8.1442333831280518
20
55
42
-0.098491403357168508
10
8.5269168154931432
20
54.923879532511286
10
11.790038555934359
20
53.572250251946024
42
-0.30484794926025688
10
17.96305316141158
20
44.278487712833019
10
17.933213375124634
20
38.849917966763897
42
-0.17907476663652619
10
17.444369657749171
20
37.550759507969943
42
0.18049337101698568
10
15.000000000000007
20
31.000000000000014
0
CIRCLE
5
109
100
AcDbEntity
8
0
100
AcDbCircle
10
8.9999999999999964
20
18.500000000000011
30
0
40
1.9999999999999996
210
0
220
-0
230
1
0
CIRCLE
5
110
100
AcDbEntity
8
0
100
AcDbCircle
10
-7.0000000000000053
20
18.500000000000011
30
0
40
1.9999999999999996
210
0
220
-0
230
1
0
ENDSEC
0
SECTION
2
OBJECTS
0
DICTIONARY
5
C
100
AcDbDictionary
3
ACAD_GROUP
350
D
3
ACAD_MLINESTYLE
350
17
0
DICTIONARY
5
D
100
AcDbDictionary
0
DICTIONARY
5
1A
330
C
100
AcDbDictionary
0
DICTIONARY
5
17
100
AcDbDictionary
0
ENDSEC
0
EOF
