0
SECTION
2
HEADER
9
$INSUNITS
70
4
9
$ACADVER
1
AC1014
9
$HANDSEED
5
FFFF
0
ENDSEC
0
SECTION
2
TABLES
0
TABLE
2
VPORT
5
8
100
AcDbSymbolTable
0
ENDTAB
0
TABLE
2
LTYPE
5
5
100
AcDbSymbolTable
0
LTYPE
5
14
100
AcDbSymbolTableRecord
100
AcDbLinetypeTableRecord
2
BYBLOCK
70
0
0
LTYPE
5
15
100
AcDbSymbolTableRecord
100
AcDbLinetypeTableRecord
2
BYLAYER
70
0
0
ENDTAB
0
TABLE
2
LAYER
5
2
100
AcDbSymbolTable
70
2
0
LAYER
5
50
100
AcDbSymbolTableRecord
100
AcDbLayerTableRecord
2
0
70
0
6
CONTINUOUS
0
ENDTAB
0
TABLE
2
STYLE
5
3
100
AcDbSymbolTable
70
1
0
STYLE
5
11
100
AcDbSymbolTableRecord
100
AcDbTextStyleTableRecord
2
STANDARD
70
0
0
ENDTAB
0
TABLE
2
VIEW
5
6
100
AcDbSymbolTable
70
0
0
ENDTAB
0
TABLE
2
UCS
5
7
100
AcDbSymbolTable
70
0
0
ENDTAB
0
TABLE
2
APPID
5
9
100
AcDbSymbolTable
70
2
0
APPID
5
12
100
AcDbSymbolTableRecord
100
AcDbRegAppTableRecord
2
ACAD
70
0
0
ENDTAB
0
TABLE
2
DIMSTYLE
5
A
100
AcDbSymbolTable
70
1
0
ENDTAB
0
TABLE
2
BLOCK_RECORD
5
1
100
AcDbSymbolTable
70
1
0
BLOCK_RECORD
5
1F
100
AcDbSymbolTableRecord
100
AcDbBlockTableRecord
2
*MODEL_SPACE
0
BLOCK_RECORD
5
1B
100
AcDbSymbolTableRecord
100
AcDbBlockTableRecord
2
*PAPER_SPACE
0
ENDTAB
0
ENDSEC
0
SECTION
2
BLOCKS
0
BLOCK
5
20
100
AcDbEntity
100
AcDbBlockBegin
2
*MODEL_SPACE
0
ENDBLK
5
21
100
AcDbEntity
100
AcDbBlockEnd
0
BLOCK
5
1C
100
AcDbEntity
100
AcDbBlockBegin
2
*PAPER_SPACE
0
ENDBLK
5
1D
100
AcDbEntity
100
AcDbBlockEnd
0
ENDSEC
0
SECTION
2
ENTITIES
0
LWPOLYLINE
5
100
100
AcDbEntity
8
0
100
AcDbPolyline
90
6
70
1
43
0.0
10
21.953593749999982
20
107.4314062499999
10
21.953593749999982
20
114.48218749999988
10
34.580546874999982
20
114.48218749999987
10
34.580546874999982
20
116.37671874999987
10
20.264140624999989
20
116.37671874999988
10
20.264140624999989
20
107.4314062499999
0
LWPOLYLINE
5
101
100
AcDbEntity
8
0
100
AcDbPolyline
90
12
70
1
43
0.0
10
27.012187499999989
20
135.79078124999984
10
20.264140624999982
20
135.79078124999984
10
20.264140624999982
20
133.89624999999984
10
34.580546874999982
20
133.89624999999984
10
34.580546874999982
20
135.79078124999984
10
28.701640624999982
20
135.79078124999984
10
28.701640624999982
20
143.23218749999984
10
34.580546874999982
20
143.23218749999984
10
34.580546874999982
20
145.12671874999984
10
20.264140624999982
20
145.12671874999984
10
20.264140624999982
20
143.23218749999984
10
27.012187499999989
20
143.23218749999984
0
SPLINE
5
102
100
AcDbEntity
8
0
100
AcDbSpline
70
0
71
3
72
9
73
5
74
0
42
0.000000001
43
0.0000000001
44
0.0000000001
40
0
40
0
40
0
40
0
40
0.21115729572014058
40
0.39215369415169354
40
0.39215369415169354
40
0.39215369415169354
40
0.39215369415169354
10
20.019999999999982
20
153.44703124999984
30
0
10
20.045676299411028
20
154.16035636511609
30
0
10
20.093361394220757
20
155.48511797503355
30
0
10
20.687952521196181
20
156.66644475572525
30
0
10
20.962382812499982
20
157.21167968749981
30
0
0
LWPOLYLINE
5
103
100
AcDbEntity
8
0
100
AcDbPolyline
90
8
70
1
43
0.0
10
24.600078124999982
20
97.177499999999924
10
20.264140624999989
20
95.507578124999924
10
20.264140624999989
20
93.349374999999924
10
34.580546874999982
20
99.208749999999881
10
34.580546874999982
20
101.24976562499988
10
20.264140624999989
20
106.7478124999999
10
20.264140624999989
20
104.7360937499999
10
24.600078124999982
20
103.1638281249999
0
LINE
5
104
100
AcDbEntity
8
0
100
AcDbLine
10
20.264140624999989
20
87.382578124999924
30
0
11
34.580546874999982
21
87.382578124999895
31
0
0
LINE
5
105
100
AcDbEntity
8
0
100
AcDbLine
10
27.773906249999996
20
85.488046874999895
30
0
11
27.773906249999996
21
81.786874999999924
31
0
0
LINE
5
106
100
AcDbEntity
8
0
100
AcDbLine
10
34.580546874999982
20
121.34742187499987
30
0
11
34.580546874999982
21
119.45289062499987
31
0
0
SPLINE
5
107
100
AcDbEntity
8
0
100
AcDbSpline
70
0
71
3
72
9
73
5
74
0
42
0.000000001
43
0.0000000001
44
0.0000000001
40
0
40
0
40
0
40
0
40
0.18866183015293359
40
0.44743641079320512
40
0.44743641079320512
40
0.44743641079320512
40
0.44743641079320512
10
27.349101562499982
20
77.616953124999895
30
0
10
26.982482941610229
20
78.143592689932348
30
0
10
26.112998532771996
20
79.392587871014101
30
0
10
26.094912925279246
20
80.928105926033496
30
0
10
26.084453124999996
20
81.816171874999924
30
0
0
SPLINE
5
108
100
AcDbEntity
8
0
100
AcDbSpline
70
0
71
3
72
9
73
5
74
0
42
0.000000001
43
0.0000000001
44
0.0000000001
40
0
40
0
40
0
40
0
40
0.15790992222510875
40
0.27364519687009181
40
0.27364519687009181
40
0.27364519687009181
40
0.27364519687009181
10
27.773906249999996
20
81.786874999999924
30
0
10
27.780030816857042
20
81.24877753184586
30
0
10
27.790644198712499
20
80.316297890709677
30
0
10
28.259290934685755
20
79.517356668739993
30
0
10
28.457499999999971
20
79.179453124999895
30
0
0
LWPOLYLINE
5
109
100
AcDbEntity
8
0
100
AcDbPolyline
90
20
70
1
43
0.0
10
109.99999999999993
20
394.99999999999943
10
109.99999999999993
20
399.99999999999943
10
157.99999999999983
20
399.99999999999943
10
157.99999999999986
20
299.9999999999996
10
149.99999999999986
20
299.9999999999996
10
149.99999999999977
20
99.999999999999858
10
157.9999999999998
20
99.999999999999858
10
157.99999999999983
20
-3.5527136788005009e-14
10
109.99999999999986
20
-3.5527136788005009e-14
10
109.99999999999989
20
4.9999999999999645
10
49.999999999999972
20
5
10
49.999999999999957
20
0
10
5
20
0
10
5.0000000000000178
20
99.999999999999872
10
2.6645352591003757e-14
20
99.999999999999886
10
3.5527136788005009e-14
20
299.9999999999996
10
5.0000000000000266
20
299.9999999999996
10
5.0000000000000266
20
399.99999999999955
10
50.000000000000007
20
399.99999999999955
10
49.999999999999993
20
394.99999999999955
0
LINE
5
110
100
AcDbEntity
8
0
100
AcDbLine
10
34.580546874999982
20
87.382578124999895
30
0
11
34.580546874999982
21
81.982187499999924
31
0
0
LWPOLYLINE
5
111
100
AcDbEntity
8
0
100
AcDbPolyline
90
8
70
1
43
0.0
10
34.58054687499996
20
53.632578124999917
10
34.58054687499996
20
55.673593749999917
10
20.264140624999982
20
61.171640624999952
10
20.264140624999982
20
59.159921874999952
10
24.600078124999971
20
57.587656249999952
10
24.600078124999971
20
51.601328124999952
10
20.264140624999982
20
49.931406249999952
10
20.264140624999982
20
47.773203124999952
0
LINE
5
112
100
AcDbEntity
8
0
100
AcDbLine
10
32.99851562499996
20
72.118906249999924
30
0
11
28.262187499999971
21
72.118906249999924
31
0
0
LINE
5
113
100
AcDbEntity
8
0
100
AcDbLine
10
30.342265624999982
20
27.685312499999988
30
0
11
26.143046874999989
21
29.257578124999988
31
0
0
SPLINE
5
114
100
AcDbEntity
8
0
100
AcDbSpline
70
0
71
3
72
9
73
5
74
0
42
0.000000001
43
0.0000000001
44
0.0000000001
40
0
40
0
40
0
40
0
40
0.17500166211020113
40
0.31382904658038774
40
0.31382904658038774
40
0.31382904658038774
40
0.31382904658038774
10
30.107890624999982
20
25.898203124999988
30
0
10
30.654299143474184
20
26.102938460187879
30
0
10
31.634169062013477
20
26.470088659040698
30
0
10
32.63424206281173
20
26.777735527569426
30
0
10
33.076640624999982
20
26.913828124999988
30
0
0
LINE
5
115
100
AcDbEntity
8
0
100
AcDbLine
10
26.143046874999989
20
29.257578124999988
30
0
11
26.143046874999989
21
24.404062499999988
31
0
0
LINE
5
116
100
AcDbEntity
8
0
100
AcDbLine
10
28.262187499999971
20
72.118906249999924
30
0
11
28.262187499999971
21
68.046640624999924
31
0
0
LWPOLYLINE
5
117
100
AcDbEntity
8
0
100
AcDbPolyline
90
10
70
1
43
0.0
10
34.58054687499996
20
46.279062499999917
10
20.264140624999982
20
46.279062499999952
10
20.264140624999982
20
44.462656249999952
10
31.51414062499996
20
44.462656249999917
10
20.264140624999982
20
36.943124999999988
10
20.264140624999982
20
34.999765624999988
10
34.58054687499996
20
34.999765624999988
10
34.58054687499996
20
36.816171874999988
10
23.340312499999971
20
36.816171874999988
10
34.58054687499996
20
44.335703124999917
0
SPLINE
5
118
100
AcDbEntity
8
0
100
AcDbSpline
70
0
71
3
72
9
73
5
74
0
42
0.000000001
43
0.0000000001
44
0.0000000001
40
0
40
0
40
0
40
0
40
0.17500166211020113
40
0.31382904658038774
40
0.31382904658038774
40
0.31382904658038774
40
0.31382904658038774
10
30.107890624999982
20
53.681406249999917
30
0
10
30.654299143474184
20
53.886141585187808
30
0
10
31.634169062013456
20
54.253291784040627
30
0
10
32.634242062811715
20
54.560938652569355
30
0
10
33.07664062499996
20
54.697031249999917
30
0
0
SPLINE
5
119
100
AcDbEntity
8
0
100
AcDbSpline
70
0
71
3
72
9
73
5
74
0
42
0.000000001
43
0.0000000001
44
0.0000000001
40
0
40
0
40
0
40
0
40
0.094347401429836983
40
0.18709746594549648
40
0.18709746594549648
40
0.18709746594549648
40
0.18709746594549648
10
30.674296874999982
20
64.521249999999924
30
0
10
30.996833950344971
20
64.550908359681955
30
0
10
31.636447427303331
20
64.609722951886084
30
0
10
32.10964160102791
20
65.04351192746978
30
0
10
32.34421874999996
20
65.258554687499924
30
0
0
LINE
5
120
100
AcDbEntity
8
0
100
AcDbLine
10
20.264140624999982
20
61.396249999999952
30
0
11
20.264140624999982
21
63.779062499999952
31
0
0
SPLINE
5
121
100
AcDbEntity
8
0
100
AcDbSpline
70
0
71
3
72
9
73
5
74
0
42
0.000000001
43
0.0000000001
44
0.0000000001
40
0
40
0
40
0
40
0
40
0.067941862027702193
40
0.13538976936627967
40
0.13538976936627967
40
0.13538976936627967
40
0.13538976936627967
10
29.390117187499982
20
64.902109374999924
30
0
10
29.590905171541657
20
64.791025814632206
30
0
10
29.991021359700298
20
64.569666299751105
30
0
10
30.447093012328502
20
64.537349465110879
30
0
10
30.674296874999982
20
64.521249999999924
30
0
0
SPLINE
5
122
100
AcDbEntity
8
0
100
AcDbSpline
70
0
71
3
72
9
73
5
74
0
42
0.000000001
43
0.0000000001
44
0.0000000001
40
0
40
0
40
0
40
0
40
0.18051520736330362
40
0.31902064018440079
40
0.31902064018440079
40
0.31902064018440079
40
0.31902064018440079
10
21.728984374999982
20
125.21460937499984
30
0
10
21.742934590216365
20
124.59546220404192
30
0
10
21.767588505274496
20
123.50125673663311
30
0
10
22.401173756173975
20
122.61909257212548
30
0
10
22.676249999999982
20
122.23609374999984
30
0
0
SPLINE
5
123
100
AcDbEntity
8
0
100
AcDbSpline
70
0
71
3
72
9
73
5
74
0
42
0.000000001
43
0.0000000001
44
0.0000000001
40
0
40
0
40
0
40
0
40
0.077248906254355487
40
0.13610971225780355
40
0.13610971225780355
40
0.13610971225780355
40
0.13610971225780355
10
25.215312499999982
20
67.040781249999924
30
0
10
25.417285798000051
20
67.202387729133619
30
0
10
25.773155269912465
20
67.48713236100528
30
0
10
26.051830372414557
20
67.84704895559878
30
0
10
26.172343749999982
20
68.002695312499924
30
0
0
SPLINE
5
124
100
AcDbEntity
8
0
100
AcDbSpline
70
0
71
3
72
9
73
5
74
0
42
0.000000001
43
0.0000000001
44
0.0000000001
40
0
40
0
40
0
40
0
40
0.048721349317738784
40
0.094774872268799965
40
0.094774872268799965
40
0.094774872268799965
40
0.094774872268799965
10
26.172343749999982
20
68.002695312499924
30
0
10
26.256027820149328
20
68.142727089027801
30
0
10
26.418813686517979
20
68.415122946692861
30
0
10
26.509255261503782
20
68.719196193919657
30
0
10
26.553203124999982
20
68.866953124999924
30
0
0
LWPOLYLINE
5
125
100
AcDbEntity
8
0
100
AcDbPolyline
90
8
70
1
43
0.0
10
24.600078124999971
20
23.818124999999988
10
20.264140624999982
20
22.148203124999988
10
20.264140624999982
20
19.989999999999988
10
34.580546874999982
20
25.849374999999988
10
34.580546874999982
20
27.890390624999988
10
20.264140624999982
20
33.388437499999988
10
20.264140624999982
20
31.376718749999988
10
24.600078124999971
20
29.804453124999988
0
LINE
5
126
100
AcDbEntity
8
0
100
AcDbLine
10
24.160624999999971
20
63.886484374999952
30
0
11
20.264140624999982
21
61.396249999999952
31
0
0
SPLINE
5
127
100
AcDbEntity
8
0
100
AcDbSpline
70
0
71
3
72
9
73
5
74
0
42
0.000000001
43
0.0000000001
44
0.0000000001
40
0
40
0
40
0
40
0
40
0.07526899418685544
40
0.13498820646808637
40
0.13498820646808637
40
0.13498820646808637
40
0.13498820646808637
10
26.777812499999989
20
66.601328124999924
30
0
10
26.666296002766536
20
66.375636335464947
30
0
10
26.466301142787696
20
65.970878304445336
30
0
10
26.18802994069295
20
65.615826187054608
30
0
10
26.064921874999989
20
65.458749999999924
30
0
0
LINE
5
128
100
AcDbEntity
8
0
100
AcDbLine
10
32.99851562499996
20
67.587656249999924
30
0
11
32.99851562499996
21
72.118906249999924
31
0
0
SPLINE
5
129
100
AcDbEntity
8
0
100
AcDbSpline
70
0
71
3
72
9
73
5
74
0
42
0.000000001
43
0.0000000001
44
0.0000000001
40
0
40
0
40
0
40
0
40
0.1070080502280378
40
0.24579276212269824
40
0.24579276212269824
40
0.24579276212269824
40
0.24579276212269824
10
32.34421874999996
20
65.258554687499924
30
0
10
32.534248346176248
20
65.567426081568414
30
0
10
32.970737930181329
20
66.276890023084974
30
0
10
32.988491326560869
20
67.114632410971211
30
0
10
32.99851562499996
20
67.587656249999924
30
0
0
LINE
5
130
100
AcDbEntity
8
0
100
AcDbLine
10
30.342265624999982
20
55.468515624999917
30
0
11
26.143046874999989
21
57.040781249999917
31
0
0
LINE
5
131
100
AcDbEntity
8
0
100
AcDbLine
10
26.143046874999989
20
24.404062499999988
30
0
11
30.107890624999982
21
25.898203124999988
31
0
0
SPLINE
5
132
100
AcDbEntity
8
0
100
AcDbSpline
70
0
71
3
72
9
73
5
74
0
42
0.000000001
43
0.0000000001
44
0.0000000001
40
0
40
0
40
0
40
0
40
0.14111011329975598
40
0.28432829784114477
40
0.28432829784114477
40
0.28432829784114477
40
0.28432829784114477
10
33.076640624999982
20
26.913828124999988
30
0
10
32.616817460908088
20
27.014940082616477
30
0
10
31.690301745649279
20
27.218674528916686
30
0
10
30.793826551942345
20
27.528999570738577
30
0
10
30.342265624999982
20
27.685312499999988
30
0
0
LINE
5
133
100
AcDbEntity
8
0
100
AcDbLine
10
26.621562499999982
20
69.921640624999895
30
0
11
26.621562499999982
21
72.118906249999924
31
0
0
SPLINE
5
134
100
AcDbEntity
8
0
100
AcDbSpline
70
0
71
3
72
9
73
5
74
0
42
0.000000001
43
0.0000000001
44
0.0000000001
40
0
40
0
40
0
40
0
40
0.14253004125522903
40
0.28049390628257487
40
0.28049390628257487
40
0.28049390628257487
40
0.28049390628257487
10
30.674296874999982
20
62.568124999999917
30
0
10
30.189362157134802
20
62.606479495770877
30
0
10
29.235028375230748
20
62.681959740128796
30
0
10
28.478194276654698
20
63.266795521675228
30
0
10
28.105937499999982
20
63.554453124999917
30
0
0
SPLINE
5
135
100
AcDbEntity
8
0
100
AcDbSpline
70
0
71
3
72
9
73
5
74
0
42
0.000000001
43
0.0000000001
44
0.0000000001
40
0
40
0
40
0
40
0
40
0.15181856841659538
40
0.33717131431310743
40
0.33717131431310743
40
0.33717131431310743
40
0.33717131431310743
10
28.105937499999982
20
63.554453124999917
30
0
10
27.786094467299396
20
63.956770222859909
30
0
10
27.07576043613118
20
64.850269523181652
30
0
10
26.883502308951481
20
65.980182526570417
30
0
10
26.777812499999989
20
66.601328124999924
30
0
0
SPLINE
5
136
100
AcDbEntity
8
0
100
AcDbSpline
70
0
71
3
72
9
73
5
74
0
42
0.000000001
43
0.0000000001
44
0.0000000001
40
0
40
0
40
0
40
0
40
0.11591725144329058
40
0.20561036046787323
40
0.20561036046787323
40
0.20561036046787323
40
0.20561036046787323
10
28.262187499999971
20
68.046640624999924
30
0
10
28.266416752985215
20
67.65829951158554
30
0
10
28.273918468389763
20
66.969472306666106
30
0
10
28.452736609448898
20
66.305175748212761
30
0
10
28.530742187499982
20
66.015390624999924
30
0
0
SPLINE
5
137
100
AcDbEntity
8
0
100
AcDbSpline
70
0
71
3
72
9
73
5
74
0
42
0.000000001
43
0.0000000001
44
0.0000000001
40
0
40
0
40
0
40
0
40
0.16873283475534417
40
0.29465976684326078
40
0.29465976684326078
40
0.29465976684326078
40
0.29465976684326078
10
34.58054687499996
20
67.665781249999924
30
0
10
34.57619497871449
20
67.100213548369851
30
0
10
34.568595220512954
20
66.112557249357138
30
0
10
34.306720483185977
20
65.161901079692768
30
0
10
34.19480468749996
20
64.755624999999924
30
0
0
SPLINE
5
138
100
AcDbEntity
8
0
100
AcDbSpline
70
0
71
3
72
9
73
5
74
0
42
0.000000001
43
0.0000000001
44
0.0000000001
40
0
40
0
40
0
40
0
40
0.14111011329975598
40
0.28432829784114477
40
0.28432829784114477
40
0.28432829784114477
40
0.28432829784114477
10
33.076640624999982
20
100.27320312499988
30
0
10
32.616817460908088
20
100.37431508261636
30
0
10
31.690301745649279
20
100.57804952891655
30
0
10
30.793826551942356
20
100.88837457073845
30
0
10
30.342265624999989
20
101.04468749999988
30
0
0
SPLINE
5
139
100
AcDbEntity
8
0
100
AcDbSpline
70
0
71
3
72
9
73
5
74
0
42
0.000000001
43
0.0000000001
44
0.0000000001
40
0
40
0
40
0
40
0
40
0.13394234223186022
40
0.27528532154452229
40
0.27528532154452229
40
0.27528532154452229
40
0.27528532154452229
10
22.881328124999982
20
119.94117187499988
30
0
10
22.474534148076792
20
120.14214507530623
30
0
10
21.638469847022357
20
120.55519572938836
30
0
10
21.094959397785455
20
121.31417535473945
30
0
10
20.815898437499989
20
121.70386718749987
30
0
0
LINE
5
140
100
AcDbEntity
8
0
100
AcDbLine
10
20.264140624999971
20
74.013437499999924
30
0
11
34.58054687499996
21
74.013437499999895
31
0
0
SPLINE
5
141
100
AcDbEntity
8
0
100
AcDbSpline
70
0
71
3
72
9
73
5
74
0
42
0.000000001
43
0.0000000001
44
0.0000000001
40
0
40
0
40
0
40
0
40
0.1366437433758303
40
0.24006950404487593
40
0.24006950404487593
40
0.24006950404487593
40
0.24006950404487593
10
23.242656249999971
20
65.673593749999952
30
0
10
23.625166907133792
20
65.921172211024484
30
0
10
24.297200192239483
20
66.356143010872046
30
0
10
24.938870657668232
20
66.834637998727189
30
0
10
25.215312499999982
20
67.040781249999924
30
0
0
SPLINE
5
142
100
AcDbEntity
8
0
100
AcDbSpline
70
0
71
3
72
9
73
5
74
0
42
0.000000001
43
0.0000000001
44
0.0000000001
40
0
40
0
40
0
40
0
40
0.11778665598109776
40
0.24743659185886019
40
0.24743659185886019
40
0.24743659185886019
40
0.24743659185886019
10
26.064921874999989
20
65.458749999999924
30
0
10
25.786782192105875
20
65.180347473923803
30
0
10
25.202489051063903
20
64.59550217338122
30
0
10
24.518838824886675
20
64.130258960764365
30
0
10
24.160624999999971
20
63.886484374999952
30
0
0
SPLINE
5
143
100
AcDbEntity
8
0
100
AcDbSpline
70
0
71
3
72
9
73
5
74
0
42
0.000000001
43
0.0000000001
44
0.0000000001
40
0
40
0
40
0
40
0
40
0.1386145352299743
40
0.27554048426778488
40
0.27554048426778488
40
0.27554048426778488
40
0.27554048426778488
10
20.713359374999989
20
128.33960937499984
30
0
10
20.968961235029298
20
128.73495632771022
30
0
10
21.477051242872776
20
129.52083416240387
30
0
10
22.30751038160691
20
129.95167899847718
30
0
10
22.720195312499982
20
130.16578124999984
30
0
0
LINE
5
144
100
AcDbEntity
8
0
100
AcDbLine
10
26.621562499999982
20
72.118906249999924
30
0
11
20.264140624999971
21
72.118906249999938
31
0
0
SPLINE
5
145
100
AcDbEntity
8
0
100
AcDbSpline
70
0
71
3
72
9
73
5
74
0
42
0.000000001
43
0.0000000001
44
0.0000000001
40
0
40
0
40
0
40
0
40
0.11207357758864515
40
0.22608751085587764
40
0.22608751085587764
40
0.22608751085587764
40
0.22608751085587764
10
32.83249999999996
20
63.163828124999917
30
0
10
32.496771558328284
20
62.990085005532315
30
0
10
31.819502131098332
20
62.639590711926765
30
0
10
31.058209845386592
20
62.592082813326861
30
0
10
30.674296874999982
20
62.568124999999917
30
0
0
SPLINE
5
146
100
AcDbEntity
8
0
100
AcDbSpline
70
0
71
3
72
9
73
5
74
0
42
0.000000001
43
0.0000000001
44
0.0000000001
40
0
40
0
40
0
40
0
40
0.10427727390079049
40
0.21249665076950944
40
0.21249665076950944
40
0.21249665076950944
40
0.21249665076950944
10
34.19480468749996
20
64.755624999999924
30
0
10
34.038680370194896
20
64.438513208537699
30
0
10
33.720529604548986
20
63.79230151653136
30
0
10
33.132148293703814
20
63.375894230055394
30
0
10
32.83249999999996
20
63.163828124999917
30
0
0
SPLINE
5
147
100
AcDbEntity
8
0
100
AcDbSpline
70
0
71
3
72
9
73
5
74
0
42
0.000000001
43
0.0000000001
44
0.0000000001
40
0
40
0
40
0
40
0
40
0.073301164406014641
40
0.14258937489981971
40
0.14258937489981971
40
0.14258937489981971
40
0.14258937489981971
10
28.530742187499982
20
66.015390624999924
30
0
10
28.630778249011335
20
65.787812227671594
30
0
10
28.825373786393726
20
65.34511446592785
30
0
10
29.205434793757654
20
65.046980905100753
30
0
10
29.390117187499982
20
64.902109374999924
30
0
0
LINE
5
148
100
AcDbEntity
8
0
100
AcDbLine
10
30.342265624999989
20
101.04468749999987
30
0
11
26.143046874999996
21
102.61695312499988
31
0
0
LINE
5
149
100
AcDbEntity
8
0
100
AcDbLine
10
34.580546874999982
20
130.71265624999984
30
0
11
34.580546874999982
21
128.81812499999984
31
0
0
SPLINE
5
150
100
AcDbEntity
8
0
100
AcDbSpline
70
0
71
3
72
9
73
5
74
0
42
0.000000001
43
0.0000000001
44
0.0000000001
40
0
40
0
40
0
40
0
40
0.042788735358335536
40
0.10580019623985372
40
0.10580019623985372
40
0.10580019623985372
40
0.10580019623985372
10
26.553203124999982
20
68.866953124999924
30
0
10
26.57296654897155
20
69.0083575104006
30
0
10
26.621833946361335
20
69.357996535702
30
0
10
26.621663821390172
20
69.711252088511841
30
0
10
26.621562499999982
20
69.921640624999924
30
0
0
LINE
5
151
100
AcDbEntity
8
0
100
AcDbLine
10
26.143046874999989
20
57.040781249999917
30
0
11
26.143046874999989
21
52.187265624999917
31
0
0
LINE
5
152
100
AcDbEntity
8
0
100
AcDbLine
10
20.264140624999971
20
72.118906249999938
30
0
11
20.264140624999971
21
74.013437499999924
31
0
0
SPLINE
5
153
100
AcDbEntity
8
0
100
AcDbSpline
70
0
71
3
72
9
73
5
74
0
42
0.000000001
43
0.0000000001
44
0.0000000001
40
0
40
0
40
0
40
0
40
0.14111011329975598
40
0.28432829784114477
40
0.28432829784114477
40
0.28432829784114477
40
0.28432829784114477
10
33.07664062499996
20
54.697031249999917
30
0
10
32.616817460908074
20
54.798143207616441
30
0
10
31.690301745649265
20
55.001877653916615
30
0
10
30.793826551942345
20
55.312202695738506
30
0
10
30.342265624999982
20
55.468515624999917
30
0
0
SPLINE
5
154
100
AcDbEntity
8
0
100
AcDbSpline
70
0
71
3
72
9
73
5
74
0
42
0.000000001
43
0.0000000001
44
0.0000000001
40
0
40
0
40
0
40
0
40
0.12577887112281202
40
0.21838929791518397
40
0.21838929791518397
40
0.21838929791518397
40
0.21838929791518397
10
34.580546874999982
20
81.982187499999924
30
0
10
34.579240615240671
20
81.562381680435564
30
0
10
34.576972562195031
20
80.833474691710478
30
0
10
34.483476273130201
20
80.110878240202936
30
0
10
34.44382812499996
20
79.804453124999895
30
0
0
SPLINE
5
155
100
AcDbEntity
8
0
100
AcDbSpline
70
0
71
3
72
9
73
5
74
0
42
0.000000001
43
0.0000000001
44
0.0000000001
40
0
40
0
40
0
40
0
40
0.15363760026328399
40
0.38055787315517131
40
0.38055787315517131
40
0.38055787315517131
40
0.38055787315517131
10
22.676249999999982
20
122.23609374999984
30
0
10
23.127938304957986
20
121.97920049400865
30
0
10
24.246762996109823
20
121.34288001672714
30
0
10
25.544819072070062
20
121.34572528768166
30
0
10
26.318828124999996
20
121.34742187499987
30
0
0
SPLINE
5
156
100
AcDbEntity
8
0
100
AcDbSpline
70
0
71
3
72
9
73
5
74
0
42
0.000000001
43
0.0000000001
44
0.0000000001
40
0
40
0
40
0
40
0
40
0.17106424190427408
40
0.33640517943261072
40
0.33640517943261072
40
0.33640517943261072
40
0.33640517943261072
10
30.439921874999971
20
76.454843749999895
30
0
10
29.858318570688258
20
76.499884240473236
30
0
10
28.714570691133954
20
76.5884582996147
30
0
10
27.79906607296158
20
77.278032119089119
30
0
10
27.349101562499982
20
77.616953124999895
30
0
0
SPLINE
5
157
100
AcDbEntity
8
0
100
AcDbSpline
70
0
71
3
72
9
73
5
74
0
42
0.000000001
43
0.0000000001
44
0.0000000001
40
0
40
0
40
0
40
0
40
0.1622189989905595
40
0.27808899868284209
40
0.27808899868284209
40
0.27808899868284209
40
0.27808899868284209
10
26.318828124999996
20
128.81812499999984
30
0
10
25.775073636786175
20
128.81619928899312
30
0
10
24.842925478446951
20
128.81289807859883
30
0
10
23.944251029032195
20
128.57187234187597
30
0
10
23.569804687499982
20
128.47144531249984
30
0
0
SPLINE
5
158
100
AcDbEntity
8
0
100
AcDbSpline
70
0
71
3
72
9
73
5
74
0
42
0.000000001
43
0.0000000001
44
0.0000000001
40
0
40
0
40
0
40
0
40
0.1487535825666596
40
0.28932601469008734
40
0.28932601469008734
40
0.28932601469008734
40
0.28932601469008734
10
21.641093749999982
20
153.60328124999984
30
0
10
21.674827444830235
20
153.09856410227985
30
0
10
21.740439548536266
20
152.11688824361525
30
0
10
22.291381097258753
20
151.3032731636784
30
0
10
22.559062499999971
20
150.90796874999984
30
0
0
SPLINE
5
159
100
AcDbEntity
8
0
100
AcDbSpline
70
0
71
3
72
9
73
5
74
0
42
0.000000001
43
0.0000000001
44
0.0000000001
40
0
40
0
40
0
40
0
40
0.12739603104449962
40
0.2547359054403267
40
0.2547359054403267
40
0.2547359054403267
40
0.2547359054403267
10
22.314921874999971
20
156.03492187499981
30
0
10
22.118388674604486
20
155.6528898973431
30
0
10
21.725408906385965
20
154.88899434315931
30
0
10
21.669194671310564
20
154.03178929063569
30
0
10
21.641093749999982
20
153.60328124999984
30
0
0
SPLINE
5
160
100
AcDbEntity
8
0
100
AcDbSpline
70
0
71
3
72
9
73
5
74
0
42
0.000000001
43
0.0000000001
44
0.0000000001
40
0
40
0
40
0
40
0
40
0.13950543317503117
40
0.27948304055880452
40
0.27948304055880452
40
0.27948304055880452
40
0.27948304055880452
10
30.288554687499982
20
157.77320312499981
30
0
10
29.840362700450093
20
157.90422515374775
30
0
10
28.942461762515784
20
158.16671267227122
30
0
10
28.007701166369678
20
158.20383123736681
30
0
10
27.539531249999989
20
158.22242187499981
30
0
0
SPLINE
5
161
100
AcDbEntity
8
0
100
AcDbSpline
70
0
71
3
72
9
73
5
74
0
42
0.000000001
43
0.0000000001
44
0.0000000001
40
0
40
0
40
0
40
0
40
0.16071728389456241
40
0.36466726083701206
40
0.36466726083701206
40
0.36466726083701206
40
0.36466726083701206
10
22.720195312499982
20
130.16578124999984
30
0
10
23.234536838189214
20
130.32471381926803
30
0
10
24.401576939681135
20
130.6853315654642
30
0
10
25.624891127418479
20
130.70285551162834
30
0
10
26.309062499999996
20
130.71265624999984
30
0
0
LINE
5
162
100
AcDbEntity
8
0
100
AcDbLine
10
26.084453124999996
20
85.488046874999895
30
0
11
20.264140624999989
21
85.488046874999924
31
0
0
SPLINE
5
163
100
AcDbEntity
8
0
100
AcDbSpline
70
0
71
3
72
9
73
5
74
0
42
0.000000001
43
0.0000000001
44
0.0000000001
40
0
40
0
40
0
40
0
40
0.22194363513009088
40
0.42128449281867819
40
0.42128449281867819
40
0.42128449281867819
40
0.42128449281867819
10
24.805156249999971
20
147.51929687499984
30
0
10
24.085827518590737
20
147.74236849532028
30
0
10
22.720426615771334
20
148.16579408431662
30
0
10
21.719295246216312
20
149.18200636101676
30
0
10
21.245585937499982
20
149.66285156249984
30
0
0
SPLINE
5
164
100
AcDbEntity
8
0
100
AcDbSpline
70
0
71
3
72
9
73
5
74
0
42
0.000000001
43
0.0000000001
44
0.0000000001
40
0
40
0
40
0
40
0
40
0.13707110096271741
40
0.26618029494013207
40
0.26618029494013207
40
0.26618029494013207
40
0.26618029494013207
10
24.351054687499971
20
157.69019531249981
30
0
10
23.929258945084975
20
157.49406750532302
30
0
10
23.110167872408383
20
157.11320416364399
30
0
10
22.574664601831191
20
156.38710972990128
30
0
10
22.314921874999971
20
156.03492187499981
30
0
0
LINE
5
165
100
AcDbEntity
8
0
100
AcDbLine
10
34.58054687499996
20
74.013437499999895
30
0
11
34.58054687499996
21
67.665781249999924
31
0
0
LINE
5
166
100
AcDbEntity
8
0
100
AcDbLine
10
26.084453124999996
20
81.816171874999924
30
0
11
26.084453124999996
21
85.488046874999895
31
0
0
LINE
5
167
100
AcDbEntity
8
0
100
AcDbLine
10
32.891093749999982
20
81.825937499999924
30
0
11
32.891093749999982
21
85.488046874999895
31
0
0
SPLINE
5
168
100
AcDbEntity
8
0
100
AcDbSpline
70
0
71
3
72
9
73
5
74
0
42
0.000000001
43
0.0000000001
44
0.0000000001
40
0
40
0
40
0
40
0
40
0.084143377204164968
40
0.16237987753231614
40
0.16237987753231614
40
0.16237987753231614
40
0.16237987753231614
10
30.381328124999971
20
78.407968749999895
30
0
10
30.665823932408767
20
78.423980616964556
30
0
10
31.214843901662029
20
78.454880315588156
30
0
10
31.690322825611801
20
78.729672341047277
30
0
10
31.91941406249996
20
78.862070312499895
30
0
0
SPLINE
5
169
100
AcDbEntity
8
0
100
AcDbSpline
70
0
71
3
72
9
73
5
74
0
42
0.000000001
43
0.0000000001
44
0.0000000001
40
0
40
0
40
0
40
0
40
0.17207762305396837
40
0.35507421340461859
40
0.35507421340461859
40
0.35507421340461859
40
0.35507421340461859
10
20.962382812499982
20
157.21167968749981
30
0
10
21.32038472509705
20
157.66978263404843
30
0
10
22.059105107542614
20
158.61505686853204
30
0
10
23.136573874085702
20
159.14539011537727
30
0
10
23.691874999999971
20
159.41871093749981
30
0
0
CIRCLE
5
170
100
AcDbEntity
8
0
100
AcDbCircle
10
98.999999999999915
20
129.99999999999986
30
0
40
5.0000000000000009
210
0
220
0
230
1
0
LINE
5
171
100
AcDbEntity
8
0
100
AcDbLine
10
34.580546874999982
20
119.45289062499987
30
0
11
26.309062499999996
21
119.45289062499987
31
0
0
LINE
5
172
100
AcDbEntity
8
0
100
AcDbLine
10
26.143046874999996
20
97.763437499999881
30
0
11
30.107890624999989
21
99.257578124999881
31
0
0
SPLINE
5
173
100
AcDbEntity
8
0
100
AcDbSpline
70
0
71
3
72
9
73
5
74
0
42
0.000000001
43
0.0000000001
44
0.0000000001
40
0
40
0
40
0
40
0
40
0.19963538789802845
40
0.38262623744039037
40
0.38262623744039037
40
0.38262623744039037
40
0.38262623744039037
10
34.824687499999982
20
153.41773437499984
30
0
10
34.787585375225547
20
152.7417706270401
30
0
10
34.71647450378655
20
151.4462013983017
30
0
10
34.049782629909984
20
150.33559852032164
30
0
10
33.730937499999982
20
149.80445312499984
30
0
0
SPLINE
5
174
100
AcDbEntity
8
0
100
AcDbSpline
70
0
71
3
72
9
73
5
74
0
42
0.000000001
43
0.0000000001
44
0.0000000001
40
0
40
0
40
0
40
0
40
0.19398797095257761
40
0.34758735278609898
40
0.34758735278609898
40
0.34758735278609898
40
0.34758735278609898
10
26.309062499999996
20
119.45289062499987
30
0
10
25.658871552815683
20
119.46191469497734
30
0
10
24.493860397600649
20
119.47808400990665
30
0
10
23.375523088970944
20
119.79924870565083
30
0
10
22.881328124999982
20
119.94117187499988
30
0
0
SPLINE
5
175
100
AcDbEntity
8
0
100
AcDbSpline
70
0
71
3
72
9
73
5
74
0
42
0.000000001
43
0.0000000001
44
0.0000000001
40
0
40
0
40
0
40
0
40
0.14683592256189237
40
0.31518500198987881
40
0.31518500198987881
40
0.31518500198987881
40
0.31518500198987881
10
22.559062499999971
20
150.90796874999984
30
0
10
22.920328936688659
20
150.56621720240824
30
0
10
23.69579151137712
20
149.83264356233184
30
0
10
24.730829360416866
20
149.55964451320213
30
0
10
25.283671874999989
20
149.41382812499984
30
0
0
SPLINE
5
176
100
AcDbEntity
8
0
100
AcDbSpline
70
0
71
3
72
9
73
5
74
0
42
0.000000001
43
0.0000000001
44
0.0000000001
40
0
40
0
40
0
40
0
40
0.11955539235167333
40
0.25210666527794973
40
0.25210666527794973
40
0.25210666527794973
40
0.25210666527794973
10
32.490703124999982
20
151.07398437499984
30
0
10
32.698479431657582
20
151.42131176338413
30
0
10
33.136617693469603
20
152.15372163568574
30
0
10
33.180514123487839
20
153.00776342336704
30
0
10
33.203593749999982
20
153.45679687499984
30
0
0
SPLINE
5
177
100
AcDbEntity
8
0
100
AcDbSpline
70
0
71
3
72
9
73
5
74
0
42
0.000000001
43
0.0000000001
44
0.0000000001
40
0
40
0
40
0
40
0
40
0.18099401088943312
40
0.37427723107647259
40
0.37427723107647259
40
0.37427723107647259
40
0.37427723107647259
10
33.730937499999982
20
149.80445312499984
30
0
10
33.31908999961729
20
149.35032459368685
30
0
10
32.467431199906159
20
148.41123291646841
30
0
10
31.272070510603058
20
147.98404480947448
30
0
10
30.654765624999982
20
147.76343749999984
30
0
0
LINE
5
178
100
AcDbEntity
8
0
100
AcDbLine
10
26.143046874999989
20
52.187265624999917
30
0
11
30.107890624999982
21
53.681406249999917
31
0
0
SPLINE
5
179
100
AcDbEntity
8
0
100
AcDbSpline
70
0
71
3
72
9
73
5
74
0
42
0.000000001
43
0.0000000001
44
0.0000000001
40
0
40
0
40
0
40
0
40
0.21043767698284488
40
0.40224684874309502
40
0.40224684874309502
40
0.40224684874309502
40
0.40224684874309502
10
27.529765625000007
20
160.17554687499981
30
0
10
28.237197768985716
20
160.14701886007782
30
0
10
29.589438274097482
20
160.09248820630995
30
0
10
30.836485351900144
20
159.57013561455733
30
0
10
31.431132812499982
20
159.32105468749984
30
0
0
LINE
5
180
100
AcDbEntity
8
0
100
AcDbLine
10
26.318828124999996
20
121.34742187499988
30
0
11
34.580546874999982
21
121.34742187499987
31
0
0
SPLINE
5
181
100
AcDbEntity
8
0
100
AcDbSpline
70
0
71
3
72
9
73
5
74
0
42
0.000000001
43
0.0000000001
44
0.0000000001
40
0
40
0
40
0
40
0
40
0.19380172069925364
40
0.3931878356878038
40
0.3931878356878038
40
0.3931878356878038
40
0.3931878356878038
10
23.691874999999971
20
159.41871093749981
30
0
10
24.303287354338696
20
159.63944220826826
30
0
10
25.543729902773524
20
160.08726511876114
30
0
10
26.861514942648466
20
160.14584230162006
30
0
10
27.529765625000007
20
160.17554687499981
30
0
0
LINE
5
182
100
AcDbEntity
8
0
100
AcDbLine
10
26.309062499999996
20
130.71265624999984
30
0
11
34.580546874999982
21
130.71265624999984
31
0
0
LINE
5
183
100
AcDbEntity
8
0
100
AcDbLine
10
20.264140624999982
20
63.779062499999952
30
0
11
23.242656249999971
21
65.673593749999952
31
0
0
SPLINE
5
184
100
AcDbEntity
8
0
100
AcDbSpline
70
0
71
3
72
9
73
5
74
0
42
0.000000001
43
0.0000000001
44
0.0000000001
40
0
40
0
40
0
40
0
40
0.10049856891372315
40
0.2138027705428735
40
0.2138027705428735
40
0.2138027705428735
40
0.2138027705428735
10
22.207499999999982
20
127.28003906249984
30
0
10
22.068067909716483
20
126.97188343162772
30
0
10
21.77143714643875
20
126.31630665724191
30
0
10
21.743689281296767
20
125.59621827245799
30
0
10
21.728984374999982
20
125.21460937499984
30
0
0
SPLINE
5
185
100
AcDbEntity
8
0
100
AcDbSpline
70
0
71
3
72
9
73
5
74
0
42
0.000000001
43
0.0000000001
44
0.0000000001
40
0
40
0
40
0
40
0
40
0.15897145136762705
40
0.34716009066513509
40
0.34716009066513509
40
0.34716009066513509
40
0.34716009066513509
10
20.815898437499989
20
121.70386718749987
30
0
10
20.584194704557479
20
122.18679883357862
30
0
10
20.0782026648311
20
123.24141960098963
30
0
10
20.040459710997762
20
124.41332625977978
30
0
10
20.019999999999989
20
125.04859374999984
30
0
0
LINE
5
186
100
AcDbEntity
8
0
100
AcDbLine
10
20.264140624999989
20
85.488046874999924
30
0
11
20.264140624999989
21
87.382578124999924
31
0
0
SPLINE
5
187
100
AcDbEntity
8
0
100
AcDbSpline
70
0
71
3
72
9
73
5
74
0
42
0.000000001
43
0.0000000001
44
0.0000000001
40
0
40
0
40
0
40
0
40
0.1005841597612927
40
0.21236804473583831
40
0.21236804473583831
40
0.21236804473583831
40
0.21236804473583831
10
28.457499999999971
20
79.179453124999895
30
0
10
28.7184894098238
20
78.954606697671025
30
0
10
29.269528567406677
20
78.479877910842248
30
0
10
29.997923731967973
20
78.432766644528556
30
0
10
30.381328124999971
20
78.407968749999895
30
0
0
LINE
5
188
100
AcDbEntity
8
0
100
AcDbLine
10
32.891093749999982
20
85.488046874999895
30
0
11
27.773906249999996
21
85.488046874999895
31
0
0
LINE
5
189
100
AcDbEntity
8
0
100
AcDbLine
10
34.580546874999982
20
128.81812499999984
30
0
11
26.318828124999996
21
128.81812499999984
31
0
0
SPLINE
5
190
100
AcDbEntity
8
0
100
AcDbSpline
70
0
71
3
72
9
73
5
74
0
42
0.000000001
43
0.0000000001
44
0.0000000001
40
0
40
0
40
0
40
0
40
0.10022537642988925
40
0.19014712800727965
40
0.19014712800727965
40
0.19014712800727965
40
0.19014712800727965
10
34.44382812499996
20
79.804453124999895
30
0
10
34.376892227775222
20
79.474396628085117
30
0
10
34.249901748205652
20
78.848214944323672
30
0
10
33.927397203939769
20
78.297372021398672
30
0
10
33.77488281249996
20
78.036874999999895
30
0
0
LINE
5
191
100
AcDbEntity
8
0
100
AcDbLine
10
25.283671874999989
20
149.41382812499984
30
0
11
24.805156249999971
21
147.51929687499984
31
0
0
SPLINE
5
192
100
AcDbEntity
8
0
100
AcDbSpline
70
0
71
3
72
9
73
5
74
0
42
0.000000001
43
0.0000000001
44
0.0000000001
40
0
40
0
40
0
40
0
40
0.17500166211020113
40
0.31382904658038774
40
0.31382904658038774
40
0.31382904658038774
40
0.31382904658038774
10
30.107890624999989
20
99.257578124999881
30
0
10
30.654299143474191
20
99.462313460187772
30
0
10
31.634169062013477
20
99.829463659040584
30
0
10
32.63424206281173
20
100.13711052756931
30
0
10
33.076640624999982
20
100.27320312499988
30
0
0
SPLINE
5
193
100
AcDbEntity
8
0
100
AcDbSpline
70
0
71
3
72
9
73
5
74
0
42
0.000000001
43
0.0000000001
44
0.0000000001
40
0
40
0
40
0
40
0
40
0.15277454404105886
40
0.29058738563336795
40
0.29058738563336795
40
0.29058738563336795
40
0.29058738563336795
10
33.203593749999982
20
153.45679687499984
30
0
10
33.1779754082796
20
153.9736737241613
30
0
10
33.129247611436796
20
154.95680801027561
30
0
10
32.643124824398264
20
155.81064739624864
30
0
10
32.412578124999982
20
156.21558593749984
30
0
0
SPLINE
5
194
100
AcDbEntity
8
0
100
AcDbSpline
70
0
71
3
72
9
73
5
74
0
42
0.000000001
43
0.0000000001
44
0.0000000001
40
0
40
0
40
0
40
0
40
0.1778799445992382
40
0.3606799013138966
40
0.3606799013138966
40
0.3606799013138966
40
0.3606799013138966
10
33.960429687499982
20
156.88941406249984
30
0
10
34.212491661749141
20
156.34627750751267
30
0
10
34.723587435935485
20
155.2449816897402
30
0
10
34.790682399237134
20
154.03233071211739
30
0
10
34.824687499999982
20
153.41773437499984
30
0
0
LINE
5
195
100
AcDbEntity
8
0
100
AcDbLine
10
30.654765624999982
20
147.76343749999984
30
0
11
30.215312499999982
21
149.62867187499984
31
0
0
SPLINE
5
196
100
AcDbEntity
8
0
100
AcDbSpline
70
0
71
3
72
9
73
5
74
0
42
0.000000001
43
0.0000000001
44
0.0000000001
40
0
40
0
40
0
40
0
40
0.13224277594149159
40
0.26681775236789351
40
0.26681775236789351
40
0.26681775236789351
40
0.26681775236789351
10
32.412578124999982
20
156.21558593749984
30
0
10
32.124411549461442
20
156.55822518315372
30
0
10
31.542996364810712
20
157.24954637440621
30
0
10
30.709131461921075
20
157.59763667894501
30
0
10
30.288554687499982
20
157.77320312499981
30
0
0
SPLINE
5
197
100
AcDbEntity
8
0
100
AcDbSpline
70
0
71
3
72
9
73
5
74
0
42
0.000000001
43
0.0000000001
44
0.0000000001
40
0
40
0
40
0
40
0
40
0.19501816506019493
40
0.40370064005059336
40
0.40370064005059336
40
0.40370064005059336
40
0.40370064005059336
10
21.245585937499982
20
149.66285156249984
30
0
10
20.88823655052704
20
150.21934185436004
30
0
10
20.148499428099818
20
151.37131396391493
30
0
10
20.063788892985592
20
152.73968676253537
30
0
10
20.019999999999982
20
153.44703124999984
30
0
0
SPLINE
5
198
100
AcDbEntity
8
0
100
AcDbSpline
70
0
71
3
72
9
73
5
74
0
42
0.000000001
43
0.0000000001
44
0.0000000001
40
0
40
0
40
0
40
0
40
0.14816520209745385
40
0.27279773577823352
40
0.27279773577823352
40
0.27279773577823352
40
0.27279773577823352
10
30.215312499999982
20
149.62867187499984
30
0
10
30.687984081275282
20
149.79751911531818
30
0
10
31.558254126557649
20
150.10839605672683
30
0
10
32.198290870235972
20
150.77117976285305
30
0
10
32.490703124999982
20
151.07398437499984
30
0
0
SPLINE
5
199
100
AcDbEntity
8
0
100
AcDbSpline
70
0
71
3
72
9
73
5
74
0
42
0.000000001
43
0.0000000001
44
0.0000000001
40
0
40
0
40
0
40
0
40
0.087427742959708912
40
0.18112638942735421
40
0.18112638942735421
40
0.18112638942735421
40
0.18112638942735421
10
33.77488281249996
20
78.036874999999895
30
0
10
33.589192416902193
20
77.808528572189289
30
0
10
33.204492666372644
20
77.33545718080002
30
0
10
32.669700608841509
20
77.041487676589753
30
0
10
32.39304687499996
20
76.889414062499895
30
0
0
SPLINE
5
200
100
AcDbEntity
8
0
100
AcDbSpline
70
0
71
3
72
9
73
5
74
0
42
0.000000001
43
0.0000000001
44
0.0000000001
40
0
40
0
40
0
40
0
40
0.098792899869131826
40
0.201420352587943
40
0.201420352587943
40
0.201420352587943
40
0.201420352587943
10
32.39304687499996
20
76.889414062499895
30
0
10
32.086242249420451
20
76.762677267887383
30
0
10
31.460724667269318
20
76.504284510001611
30
0
10
30.78448081760822
20
76.471531846973136
30
0
10
30.439921874999971
20
76.454843749999895
30
0
0
LINE
5
201
100
AcDbEntity
8
0
100
AcDbLine
10
26.143046874999996
20
102.61695312499988
30
0
11
26.143046874999996
21
97.763437499999881
31
0
0
SPLINE
5
202
100
AcDbEntity
8
0
100
AcDbSpline
70
0
71
3
72
9
73
5
74
0
42
0.000000001
43
0.0000000001
44
0.0000000001
40
0
40
0
40
0
40
0
40
0.18368106145694951
40
0.33889191571292487
40
0.33889191571292487
40
0.33889191571292487
40
0.33889191571292487
10
20.019999999999989
20
125.04859374999984
30
0
10
20.037846253007601
20
125.6669809685022
30
0
10
20.070772624523929
20
126.80790658962167
30
0
10
20.511505743454386
20
127.85846069048677
30
0
10
20.713359374999989
20
128.33960937499984
30
0
0
SPLINE
5
203
100
AcDbEntity
8
0
100
AcDbSpline
70
0
71
3
72
9
73
5
74
0
42
0.000000001
43
0.0000000001
44
0.0000000001
40
0
40
0
40
0
40
0
40
0.091339024659385565
40
0.1838007394711943
40
0.1838007394711943
40
0.1838007394711943
40
0.1838007394711943
10
23.569804687499982
20
128.47144531249984
30
0
10
23.291614749790305
20
128.334282407605
30
0
10
22.731815513317606
20
128.05827066517946
30
0
10
22.38298208492391
20
127.54050380314385
30
0
10
22.207499999999982
20
127.28003906249984
30
0
0
SPLINE
5
204
100
AcDbEntity
8
0
100
AcDbSpline
70
0
71
3
72
9
73
5
74
0
42
0.000000001
43
0.0000000001
44
0.0000000001
40
0
40
0
40
0
40
0
40
0.17936877302998214
40
0.35496003320375635
40
0.35496003320375635
40
0.35496003320375635
40
0.35496003320375635
10
31.431132812499982
20
159.32105468749984
30
0
10
31.951206414487345
20
159.00896392388663
30
0
10
32.98040084956871
20
158.3913550394449
30
0
10
33.636079335692351
20
157.38649645988596
30
0
10
33.960429687499982
20
156.88941406249984
30
0
0
SPLINE
5
205
100
AcDbEntity
8
0
100
AcDbSpline
70
0
71
3
72
9
73
5
74
0
42
0.000000001
43
0.0000000001
44
0.0000000001
40
0
40
0
40
0
40
0
40
0.068777495001377822
40
0.17746642252674155
40
0.17746642252674155
40
0.17746642252674155
40
0.17746642252674155
10
32.764140624999982
20
80.058359374999924
30
0
10
32.800731776885208
20
80.285001333232515
30
0
10
32.895147847448342
20
80.869805090932445
30
0
10
32.892633597162238
20
81.462774602312152
30
0
10
32.891093749999982
20
81.825937499999924
30
0
0
SPLINE
5
206
100
AcDbEntity
8
0
100
AcDbSpline
70
0
71
3
72
9
73
5
74
0
42
0.000000001
43
0.0000000001
44
0.0000000001
40
0
40
0
40
0
40
0
40
0.1715373276828967
40
0.3246589528063899
40
0.3246589528063899
40
0.3246589528063899
40
0.3246589528063899
10
27.539531249999989
20
158.22242187499981
30
0
10
26.964694941884293
20
158.20573122653104
30
0
10
25.876734925549343
20
158.17414178459018
30
0
10
24.840012690943976
20
157.84529301571814
30
0
10
24.351054687499971
20
157.69019531249981
30
0
0
SPLINE
5
207
100
AcDbEntity
8
0
100
AcDbSpline
70
0
71
3
72
9
73
5
74
0
42
0.000000001
43
0.0000000001
44
0.0000000001
40
0
40
0
40
0
40
0
40
0.074751099198848953
40
0.1487472591038016
40
0.1487472591038016
40
0.1487472591038016
40
0.1487472591038016
10
31.91941406249996
20
78.862070312499895
30
0
10
32.114346931842086
20
79.024807491171046
30
0
10
32.502243970609996
20
79.348638304912328
30
0
10
32.677137620363268
20
79.822587498893228
30
0
10
32.764140624999982
20
80.058359374999924
30
0
0
LWPOLYLINE
5
208
100
AcDbEntity
8
0
100
AcDbPolyline
90
20
70
1
43
0.0
10
325.99999999999977
20
399.99999999999875
10
325.99999999999972
20
299.99999999999898
10
317.99999999999977
20
299.99999999999898
10
317.99999999999955
20
99.999999999999503
10
325.99999999999955
20
99.999999999999503
10
325.99999999999943
20
-1.7763568394002505e-13
10
277.99999999999955
20
-1.7763568394002505e-13
10
277.9999999999996
20
4.9999999999997513
10
217.99999999999977
20
4.9999999999998934
10
217.99999999999972
20
-3.5527136788005009e-14
10
172.99999999999983
20
-3.5527136788005009e-14
10
172.99999999999997
20
99.999999999999645
10
167.99999999999997
20
99.999999999999645
10
168.00000000000011
20
299.99999999999909
10
173.00000000000011
20
299.99999999999909
10
173.00000000000023
20
399.99999999999886
10
218.00000000000011
20
399.99999999999881
10
218.00000000000011
20
394.99999999999881
10
277.99999999999994
20
394.99999999999875
10
277.99999999999994
20
399.99999999999875
0
CIRCLE
5
209
100
AcDbEntity
8
0
100
AcDbCircle
10
202.9999999999998
20
39.999999999999822
30
0
40
6.2500000000000009
210
0
220
0
230
1
0
LWPOLYLINE
5
210
100
AcDbEntity
8
0
100
AcDbPolyline
90
20
70
1
43
0.0
10
340.99999999999943
20
4.9999999999998224
10
340.99999999999943
20
49.999999999999751
10
335.99999999999943
20
49.99999999999973
10
335.99999999999943
20
109.9999999999996
10
340.99999999999943
20
109.9999999999996
10
340.99999999999943
20
157.99999999999952
10
410.99999999999932
20
157.99999999999952
10
410.99999999999932
20
149.99999999999955
10
560.99999999999898
20
149.99999999999952
10
560.99999999999898
20
157.99999999999952
10
630.99999999999886
20
157.99999999999952
10
630.99999999999886
20
109.9999999999996
10
635.99999999999886
20
109.99999999999959
10
635.99999999999886
20
49.99999999999973
10
630.99999999999886
20
49.99999999999973
10
630.99999999999886
20
4.9999999999998224
10
560.99999999999898
20
4.9999999999998224
10
560.99999999999898
20
-1.9539925233402755e-13
10
410.99999999999932
20
-1.7763568394002505e-13
10
410.99999999999932
20
4.9999999999998224
0
LWPOLYLINE
5
211
100
AcDbEntity
8
0
100
AcDbPolyline
90
20
70
1
43
0.0
10
340.99999999999943
20
172.99999999999955
10
340.99999999999943
20
217.99999999999955
10
335.99999999999943
20
217.99999999999955
10
335.99999999999943
20
277.99999999999955
10
340.99999999999943
20
277.99999999999955
10
340.99999999999943
20
325.99999999999955
10
410.99999999999943
20
325.99999999999955
10
410.99999999999943
20
317.99999999999955
10
560.99999999999943
20
317.99999999999955
10
560.99999999999943
20
325.99999999999955
10
630.99999999999943
20
325.99999999999955
10
630.99999999999943
20
277.99999999999955
10
635.99999999999943
20
277.99999999999955
10
635.99999999999943
20
217.99999999999955
10
630.99999999999943
20
217.99999999999955
10
630.99999999999943
20
172.99999999999955
10
560.99999999999943
20
172.99999999999955
10
560.99999999999943
20
167.99999999999955
10
410.99999999999943
20
167.99999999999955
10
410.99999999999943
20
172.99999999999955
0
LWPOLYLINE
5
212
100
AcDbEntity
8
0
100
AcDbPolyline
90
20
70
1
43
0.0
10
-309.99999999999949
20
399.99999999999943
10
-234.9999999999996
20
399.99999999999943
10
-234.9999999999996
20
394.99999999999943
10
-84.999999999999844
20
394.99999999999943
10
-84.999999999999844
20
399.99999999999943
10
-9.9999999999999645
20
399.99999999999937
10
-9.9999999999999734
20
299.99999999999955
10
-14.999999999999964
20
299.99999999999955
10
-14.999999999999982
20
99.999999999999787
10
-9.9999999999999911
20
99.999999999999787
10
-10
20
0
10
-84.999999999999886
20
0
10
-84.999999999999886
20
5
10
-234.99999999999969
20
5
10
-234.99999999999969
20
0
10
-309.99999999999955
20
7.1054273576010019e-14
10
-309.99999999999955
20
99.999999999999858
10
-304.99999999999955
20
99.999999999999858
10
-304.99999999999949
20
299.99999999999955
10
-309.99999999999949
20
299.99999999999955
0
ENDSEC
0
SECTION
2
OBJECTS
0
DICTIONARY
5
C
100
AcDbDictionary
3
ACAD_GROUP
350
D
3
ACAD_MLINESTYLE
350
17
0
DICTIONARY
5
D
100
AcDbDictionary
0
DICTIONARY
5
1A
330
C
100
AcDbDictionary
0
DICTIONARY
5
17
100
AcDbDictionary
0
ENDSEC
0
EOF
