0
SECTION
2
HEADER
9
$INSUNITS
70
4
9
$ACADVER
1
AC1014
9
$HANDSEED
5
FFFF
0
ENDSEC
0
SECTION
2
TABLES
0
TABLE
2
VPORT
5
8
100
AcDbSymbolTable
0
ENDTAB
0
TABLE
2
LTYPE
5
5
100
AcDbSymbolTable
0
LTYPE
5
14
100
AcDbSymbolTableRecord
100
AcDbLinetypeTableRecord
2
BYBLOCK
70
0
0
LTYPE
5
15
100
AcDbSymbolTableRecord
100
AcDbLinetypeTableRecord
2
BYLAYER
70
0
0
ENDTAB
0
TABLE
2
LAYER
5
2
100
AcDbSymbolTable
70
2
0
LAYER
5
50
100
AcDbSymbolTableRecord
100
AcDbLayerTableRecord
2
0
70
0
6
CONTINUOUS
0
ENDTAB
0
TABLE
2
STYLE
5
3
100
AcDbSymbolTable
70
1
0
STYLE
5
11
100
AcDbSymbolTableRecord
100
AcDbTextStyleTableRecord
2
STANDARD
70
0
0
ENDTAB
0
TABLE
2
VIEW
5
6
100
AcDbSymbolTable
70
0
0
ENDTAB
0
TABLE
2
UCS
5
7
100
AcDbSymbolTable
70
0
0
ENDTAB
0
TABLE
2
APPID
5
9
100
AcDbSymbolTable
70
2
0
APPID
5
12
100
AcDbSymbolTableRecord
100
AcDbRegAppTableRecord
2
ACAD
70
0
0
ENDTAB
0
TABLE
2
DIMSTYLE
5
A
100
AcDbSymbolTable
70
1
0
ENDTAB
0
TABLE
2
BLOCK_RECORD
5
1
100
AcDbSymbolTable
70
1
0
BLOCK_RECORD
5
1F
100
AcDbSymbolTableRecord
100
AcDbBlockTableRecord
2
*MODEL_SPACE
0
BLOCK_RECORD
5
1B
100
AcDbSymbolTableRecord
100
AcDbBlockTableRecord
2
*PAPER_SPACE
0
ENDTAB
0
ENDSEC
0
SECTION
2
BLOCKS
0
BLOCK
5
20
100
AcDbEntity
100
AcDbBlockBegin
2
*MODEL_SPACE
0
ENDBLK
5
21
100
AcDbEntity
100
AcDbBlockEnd
0
BLOCK
5
1C
100
AcDbEntity
100
AcDbBlockBegin
2
*PAPER_SPACE
0
ENDBLK
5
1D
100
AcDbEntity
100
AcDbBlockEnd
0
ENDSEC
0
SECTION
2
ENTITIES
0
CIRCLE
5
100
100
AcDbEntity
8
0
100
AcDbCircle
10
25
20
5
30
0
40
2.0000000000000018
210
0
220
0
230
1
0
LWPOLYLINE
5
101
100
AcDbEntity
8
0
100
AcDbPolyline
90
8
70
1
43
0.0
10
20
20
48.000000000000007
42
-0.41421356237309115
10
22
20
50
10
68
20
50
42
-0.41421356237309243
10
70
20
48
10
70
20
2.0000000000000022
42
-0.41421356237309537
10
68
20
0
10
21.999999999999993
20
4.4408920985006262e-15
42
-0.41421356237309437
10
19.999999999999993
20
2.0000000000000018
0
CIRCLE
5
102
100
AcDbEntity
8
0
100
AcDbCircle
10
65
20
25
30
0
40
2.0000000000000018
210
0
220
0
230
1
0
LWPOLYLINE
5
103
100
AcDbEntity
8
0
100
AcDbPolyline
90
4
70
1
43
0.0
10
59.850000000000001
20
15.149999999999999
10
59.850000000000001
20
24.849999999999998
10
55
20
24.849999999999998
10
55
20
15.149999999999999
0
CIRCLE
5
104
100
AcDbEntity
8
0
100
AcDbCircle
10
25
20
25
30
0
40
2.0000000000000018
210
0
220
0
230
1
0
LWPOLYLINE
5
105
100
AcDbEntity
8
0
100
AcDbPolyline
90
4
70
1
43
0.0
10
34.850000000000001
20
15.149999999999999
10
34.850000000000001
20
24.849999999999998
10
30.150000000000002
20
24.849999999999998
10
30.150000000000002
20
15.149999999999999
0
LWPOLYLINE
5
106
100
AcDbEntity
8
0
100
AcDbPolyline
90
4
70
1
43
0.0
10
59.849999999999994
20
39.850000000000001
10
30.149999999999999
20
39.850000000000001
10
30.149999999999999
20
35.149999999999999
10
59.849999999999994
20
35.149999999999999
0
CIRCLE
5
107
100
AcDbEntity
8
0
100
AcDbCircle
10
65
20
5
30
0
40
1.9999999999999996
210
0
220
0
230
1
0
LWPOLYLINE
5
108
100
AcDbEntity
8
0
100
AcDbPolyline
90
15
70
1
43
0.0
10
-40
20
85.000001043081284
10
-40.00000007450582
20
95
10
-30.701562168732416
20
95
42
-0.17030361580407147
10
-29.452172107679711
20
94.561737646130979
10
-5.7506100134531222
20
75.60048881838361
42
-0.22783779731730927
10
-5.0000000745058193
20
74.038751172252631
10
-5.0000000745058193
20
64.999999999999986
10
-15.000000000000014
20
65
10
-15.000000000000014
20
59.999999999999993
10
-30.000000000000014
20
60
10
-30.000000000000014
20
65
10
-40.00000007450582
20
65
10
-40
20
75
10
-45.000000149011626
20
75
10
-45.000000149011626
20
85.000001043081284
0
LWPOLYLINE
5
109
100
AcDbEntity
8
0
100
AcDbPolyline
90
15
70
1
43
0.0
10
34
20
78.000001043081284
10
33.999999925494194
20
88
10
43.298437831267591
20
88
42
-0.17030361580407374
10
44.547827892320306
20
87.561737646130965
10
68.249389986546902
20
68.60048881838361
42
-0.22783779731730927
10
68.999999925494194
20
67.038751172252631
10
68.999999925494194
20
57.999999999999986
10
59
20
57.999999999999986
10
59
20
52.999999999999986
10
43.999999999999993
20
52.999999999999986
10
43.999999999999993
20
57.999999999999986
10
33.999999925494187
20
58
10
33.999999999999993
20
68
10
28.999999850988381
20
68
10
28.999999850988392
20
78.000001043081284
0
LWPOLYLINE
5
110
100
AcDbEntity
8
0
100
AcDbPolyline
90
16
70
1
43
0.0
10
27.225148226554445
20
95
42
-0.51191829385248866
10
29.122514822655464
20
92.367544467966312
10
0
20
5
10
-10
20
5
10
-10
20
2.4651903288156619e-31
10
-40
20
0
10
-40
20
5
10
-50
20
5
10
-79.122514822655475
20
92.367544467966269
42
-0.51191829385249021
10
-77.225148226554438
20
95
10
-73.824378229433336
20
94.999999999999943
42
-0.22388753635207709
10
-72.281599797753614
20
94.272727272727238
10
-40.427784316797386
20
55.660071958585803
42
0.47140452079103151
10
-9.5722156832026073
20
55.660071958585817
10
22.281599797753636
20
94.272727272727252
42
-0.22388753635207148
10
23.824378229433378
20
94.999999999999986
0
LINE
5
111
100
AcDbEntity
8
0
100
AcDbLine
10
16.082320633208692
20
63.470260077804227
30
0
11
15.85009082984282
21
62.773570667706515
31
0
0
SPLINE
5
112
100
AcDbEntity
8
0
100
AcDbSpline
70
0
71
3
72
9
73
5
74
0
42
0.000000001
43
0.0000000001
44
0.0000000001
40
0
40
0
40
0
40
0
40
0.036103065890410374
40
0.06380412587347363
40
0.06380412587347363
40
0.06380412587347363
40
0.06380412587347363
10
15.641331357564283
20
59.392651568360719
30
0
10
15.677842820855297
20
59.511008856419672
30
0
10
15.742368698151097
20
59.720178995273798
30
0
10
15.677947314401912
20
59.927629315280448
30
0
10
15.649978267087228
20
60.017695493279746
30
0
0
LWPOLYLINE
5
113
100
AcDbEntity
8
0
100
AcDbPolyline
90
8
70
1
43
0.0
10
20.960381090052493
20
74.423352232572952
10
21.096877689829228
20
74.832842031903098
10
18.009951440913063
20
74.626553993781471
10
17.880866127824042
20
74.239298054514492
10
20.249486399659276
20
72.290668161393256
10
20.376718514103445
20
72.67236450472582
10
19.653471082356972
20
73.244910433372951
10
20.032079640884888
20
74.380736108956739
0
SPLINE
5
114
100
AcDbEntity
8
0
100
AcDbSpline
70
0
71
3
72
9
73
5
74
0
42
0.000000001
43
0.0000000001
44
0.0000000001
40
0
40
0
40
0
40
0
40
0.030727535766021399
40
0.076111589177273065
40
0.076111589177273065
40
0.076111589177273065
40
0.076111589177273065
10
15.649978267087228
20
60.017695493279746
30
0
10
15.58052381371283
20
60.09500493897395
30
0
10
15.408486301104674
20
60.286499135417415
30
0
10
15.162017415146352
20
60.368055466153905
30
0
10
15.015052186782896
20
60.416686126874311
30
0
0
SPLINE
5
115
100
AcDbEntity
8
0
100
AcDbSpline
70
0
71
3
72
9
73
5
74
0
42
0.000000001
43
0.0000000001
44
0.0000000001
40
0
40
0
40
0
40
0
40
0.039927077375506825
40
0.076525245280008938
40
0.076525245280008938
40
0.076525245280008938
40
0.076525245280008938
10
12.286352185719984
20
57.610164317077661
30
0
10
12.336143516767599
20
57.736072875805498
30
0
10
12.431574839861987
20
57.977392400620253
30
0
10
12.628311393959812
20
58.14594920333208
30
0
10
12.722400572158179
20
58.226561426716955
30
0
0
SPLINE
5
116
100
AcDbEntity
8
0
100
AcDbSpline
70
0
71
3
72
9
73
5
74
0
42
0.000000001
43
0.0000000001
44
0.0000000001
40
0
40
0
40
0
40
0
40
0.020045105698256745
40
0.038029434160801741
40
0.038029434160801741
40
0.038029434160801741
40
0.038029434160801741
10
14.623473216848915
20
64.380650226359563
30
0
10
14.657047968653529
20
64.439040801799081
30
0
10
14.720745752663227
20
64.54981899263106
30
0
10
14.816775157084905
20
64.633937054722594
30
0
10
14.862187990309792
20
64.673716948682895
30
0
0
LINE
5
117
100
AcDbEntity
8
0
100
AcDbLine
10
12.855191669955879
20
59.162274680909981
30
0
11
12.975012309225917
21
59.521736598720061
31
0
0
LWPOLYLINE
5
118
100
AcDbEntity
8
0
100
AcDbPolyline
90
10
70
1
43
0.0
10
20.147576684028614
20
71.984939014501336
10
17.431229471440552
20
72.890388085364037
10
17.316350004106411
20
72.545749683361564
10
19.449034640745424
20
71.834854804481864
10
16.840773090370149
20
71.119018942152778
10
16.717864100836159
20
70.750291973550858
10
19.434211313424221
20
69.844842902688171
10
19.549090780758398
20
70.189481304690631
10
17.414553275325844
20
70.900993806501475
10
20.02466769449466
20
71.616212045899417
0
LINE
5
119
100
AcDbEntity
8
0
100
AcDbLine
10
19.70226418923076
20
74.367148121741138
30
0
11
18.855490192140714
21
74.334413870780551
31
0
0
SPLINE
5
120
100
AcDbEntity
8
0
100
AcDbSpline
70
0
71
3
72
9
73
5
74
0
42
0.000000001
43
0.0000000001
44
0.0000000001
40
0
40
0
40
0
40
0
40
0.038760356083550142
40
0.07863755831377861
40
0.07863755831377861
40
0.07863755831377861
40
0.07863755831377861
10
14.019119754367644
20
55.767458170302042
30
0
10
13.889152105424465
20
55.764246473875509
30
0
10
13.625471902109467
20
55.757730538766843
30
0
10
13.371735048270565
20
55.829960311241308
30
0
10
13.243064778608549
20
55.866588117416498
30
0
0
SPLINE
5
121
100
AcDbEntity
8
0
100
AcDbSpline
70
0
71
3
72
9
73
5
74
0
42
0.000000001
43
0.0000000001
44
0.0000000001
40
0
40
0
40
0
40
0
40
0.023911081802339317
40
0.050421330681608048
40
0.050421330681608048
40
0.050421330681608048
40
0.050421330681608048
10
12.877426378207986
20
57.907245470649649
30
0
10
12.81603671384385
20
57.854485613383382
30
0
10
12.686584245196606
20
57.743230830687722
30
0
10
12.624241105048064
20
57.583964083095807
30
0
10
12.591462673005331
20
57.50022569182812
30
0
0
SPLINE
5
122
100
AcDbEntity
8
0
100
AcDbSpline
70
0
71
3
72
9
73
5
74
0
42
0.000000001
43
0.0000000001
44
0.0000000001
40
0
40
0
40
0
40
0
40
0.020099693641453718
40
0.042760543933635535
40
0.042760543933635535
40
0.042760543933635535
40
0.042760543933635535
10
15.419910308906069
20
59.0310278996091
30
0
10
15.465855169487241
20
59.080677769611789
30
0
10
15.563599307505065
20
59.186304028669348
30
0
10
15.614406306972768
20
59.321176315342328
30
0
10
15.641331357564283
20
59.392651568360719
30
0
0
SPLINE
5
123
100
AcDbEntity
8
0
100
AcDbSpline
70
0
71
3
72
9
73
5
74
0
42
0.000000001
43
0.0000000001
44
0.0000000001
40
0
40
0
40
0
40
0
40
0.030554903283658882
40
0.058117474416145107
40
0.058117474416145107
40
0.058117474416145107
40
0.058117474416145107
10
12.591462673005331
20
57.50022569182812
30
0
10
12.563633278542987
20
57.400534974786638
30
0
10
12.510699904620495
20
57.210916547806256
30
0
10
12.548933600375243
20
57.018166811766271
30
0
10
12.567066166690033
20
56.926754059169191
30
0
0
SPLINE
5
124
100
AcDbEntity
8
0
100
AcDbSpline
70
0
71
3
72
9
73
5
74
0
42
0.000000001
43
0.0000000001
44
0.0000000001
40
0
40
0
40
0
40
0
40
0.029633034988249929
40
0.05455954458499488
40
0.05455954458499488
40
0.05455954458499488
40
0.05455954458499488
10
13.400561011590852
20
58.037565793992947
30
0
10
13.300199073603487
20
58.035423632805063
30
0
10
13.115415380929747
20
58.031479543416822
30
0
10
12.952058780348636
20
57.94620478041729
30
0
10
12.877426378207986
20
57.907245470649649
30
0
0
SPLINE
5
125
100
AcDbEntity
8
0
100
AcDbSpline
70
0
71
3
72
9
73
5
74
0
42
0.000000001
43
0.0000000001
44
0.0000000001
40
0
40
0
40
0
40
0
40
0.037732380647158469
40
0.089487273840199555
40
0.089487273840199555
40
0.089487273840199555
40
0.089487273840199555
10
16.10795243250795
20
64.346989187590168
30
0
10
16.144205741002509
20
64.223879293132484
30
0
10
16.230185201858767
20
63.931908083025384
30
0
10
16.1365021507984
20
63.639420206856755
30
0
10
16.082320633208695
20
63.470260077804227
30
0
0
LWPOLYLINE
5
126
100
AcDbEntity
8
0
100
AcDbPolyline
90
8
70
1
43
0.0
10
17.89630703095483
20
67.973418279166481
10
18.274915589482745
20
69.109243954750269
10
19.203217038650351
20
69.151860078366497
10
19.33971401539992
20
69.561351008615276
10
16.252787389510885
20
69.355061839575001
10
16.1237020764219
20
68.967805900308022
10
18.492322348257098
20
67.0191760071868
10
18.619554462701302
20
67.400872350519364
0
LINE
5
127
100
AcDbEntity
8
0
100
AcDbLine
10
17.680135800772447
20
64.582616364732843
30
0
11
14.963788588184386
21
65.48806543559553
31
0
0
LINE
5
128
100
AcDbEntity
8
0
100
AcDbLine
10
18.697993988609412
20
74.010157119750232
30
0
11
19.395300833151872
21
73.446258053504465
31
0
0
SPLINE
5
129
100
AcDbEntity
8
0
100
AcDbSpline
70
0
71
3
72
9
73
5
74
0
42
0.000000001
43
0.0000000001
44
0.0000000001
40
0
40
0
40
0
40
0
40
0.016828674096214181
40
0.032475966466150016
40
0.032475966466150016
40
0.032475966466150016
40
0.032475966466150016
10
15.482599719684167
20
64.388679230221697
30
0
10
15.427607753760633
20
64.403634215161659
30
0
10
15.321484286693092
20
64.432494337274377
30
0
10
15.213889138723751
20
64.410428364140245
30
0
10
15.162048564876116
20
64.399796725712577
30
0
0
SPLINE
5
130
100
AcDbEntity
8
0
100
AcDbSpline
70
0
71
3
72
9
73
5
74
0
42
0.000000001
43
0.0000000001
44
0.0000000001
40
0
40
0
40
0
40
0
40
0.035873763270517688
40
0.070992011410203962
40
0.070992011410203962
40
0.070992011410203962
40
0.070992011410203962
10
12.556875294082346
20
56.275460735580545
30
0
10
12.477936594260832
20
56.367568156391208
30
0
10
12.321721673730259
20
56.549843180615653
30
0
10
12.260868279805273
20
56.781970461431435
30
0
10
12.230765391528848
20
56.896798922912488
30
0
0
LINE
5
131
100
AcDbEntity
8
0
100
AcDbLine
10
14.963788588184386
20
65.48806543559553
30
0
11
15.365249619260481
21
66.692448528823718
31
0
0
SPLINE
5
132
100
AcDbEntity
8
0
100
AcDbSpline
70
0
71
3
72
9
73
5
74
0
42
0.000000001
43
0.0000000001
44
0.0000000001
40
0
40
0
40
0
40
0
40
0.017485495962083406
40
0.036225266252473964
40
0.036225266252473964
40
0.036225266252473964
40
0.036225266252473964
10
14.862187990309792
20
64.673716948682895
30
0
10
14.911862123636936
20
64.705298223090111
30
0
10
15.014773628665914
20
64.770726168426847
30
0
10
15.13483536208085
20
64.792680252094101
30
0
10
15.196944755264639
20
64.804037366269412
30
0
0
LINE
5
133
100
AcDbEntity
8
0
100
AcDbLine
10
17.638136781749694
20
68.174765899297995
30
0
11
17.945100137828582
21
69.095655967534668
31
0
0
LINE
5
134
100
AcDbEntity
8
0
100
AcDbLine
10
17.581314529648964
20
66.750506215273248
30
0
11
18.478116879475159
21
66.976559600840915
31
0
0
LINE
5
135
100
AcDbEntity
8
0
100
AcDbLine
10
16.940829937207269
20
68.738664965543776
30
0
11
17.638136781749694
21
68.174765899297995
31
0
0
SPLINE
5
136
100
AcDbEntity
8
0
100
AcDbSpline
70
0
71
3
72
9
73
5
74
0
42
0.000000001
43
0.0000000001
44
0.0000000001
40
0
40
0
40
0
40
0
40
0.018869482021155431
40
0.037419478458337152
40
0.037419478458337152
40
0.037419478458337152
40
0.037419478458337152
10
16.305286281093352
20
67.042028621099774
30
0
10
16.242213408416326
20
67.056800245927505
30
0
10
16.117135571208259
20
67.086093392205527
30
0
10
15.999917992637762
20
67.03371559057598
30
0
10
15.941809602183348
20
67.007750289250438
30
0
0
SPLINE
5
137
100
AcDbEntity
8
0
100
AcDbSpline
70
0
71
3
72
9
73
5
74
0
42
0.000000001
43
0.0000000001
44
0.0000000001
40
0
40
0
40
0
40
0
40
0.029367187262493925
40
0.06303701738890613
40
0.06303701738890613
40
0.06303701738890613
40
0.06303701738890613
10
14.772322510857272
20
57.310612530416165
30
0
10
14.725391261348406
20
57.39830381468343
30
0
10
14.624652775059879
20
57.58653420126425
30
0
10
14.445534107704567
20
57.703793733437792
30
0
10
14.349861828905013
20
57.766425321868233
30
0
0
LINE
5
138
100
AcDbEntity
8
0
100
AcDbLine
10
17.945100137828582
20
69.095655967534668
30
0
11
17.098326140738571
21
69.062921716574095
31
0
0
SPLINE
5
139
100
AcDbEntity
8
0
100
AcDbSpline
70
0
71
3
72
9
73
5
74
0
42
0.000000001
43
0.0000000001
44
0.0000000001
40
0
40
0
40
0
40
0
40
0.022414714089477168
40
0.045217515835546479
40
0.045217515835546479
40
0.045217515835546479
40
0.045217515835546479
10
15.981646728899754
20
67.436077375934303
30
0
10
16.05633517994697
20
67.447809554922898
30
0
10
16.207005235539853
20
67.471477043479069
30
0
10
16.354455074842704
20
67.432342995817081
30
0
10
16.428812752193664
20
67.412608034400733
30
0
0
SPLINE
5
140
100
AcDbEntity
8
0
100
AcDbSpline
70
0
71
3
72
9
73
5
74
0
42
0.000000001
43
0.0000000001
44
0.0000000001
40
0
40
0
40
0
40
0
40
0.015449808188829671
40
0.027221995348239436
40
0.027221995348239436
40
0.027221995348239436
40
0.027221995348239436
10
17.18170669721772
20
66.218724907975485
30
0
10
17.133164044704614
20
66.200835965200639
30
0
10
17.047633671462918
20
66.169316304176405
30
0
10
16.971995528067865
20
66.118651791998033
30
0
10
16.939285714953662
20
66.096741858061392
30
0
0
SPLINE
5
141
100
AcDbEntity
8
0
100
AcDbSpline
70
0
71
3
72
9
73
5
74
0
42
0.000000001
43
0.0000000001
44
0.0000000001
40
0
40
0
40
0
40
0
40
0.023183521694159211
40
0.041122166732012522
40
0.041122166732012522
40
0.041122166732012522
40
0.041122166732012522
10
16.539986293454305
20
66.220576928580059
30
0
10
16.563744784272743
20
66.294527178933691
30
0
10
16.60588681228834
20
66.42569769586521
30
0
10
16.613972326898256
20
66.563048869959104
30
0
10
16.617499455648073
20
66.622965312924265
30
0
0
SPLINE
5
142
100
AcDbEntity
8
0
100
AcDbSpline
70
0
71
3
72
9
73
5
74
0
42
0.000000001
43
0.0000000001
44
0.0000000001
40
0
40
0
40
0
40
0
40
0.044388703884569496
40
0.08425689143670187
40
0.08425689143670187
40
0.08425689143670187
40
0.08425689143670187
10
14.560474641193188
20
58.095623339077633
30
0
10
14.682849239788922
20
58.007804093485369
30
0
10
14.915135888556712
20
57.841109056361475
30
0
10
15.040816440117304
20
57.584979345522136
30
0
10
15.100285235082715
20
57.463785373429204
30
0
0
LINE
5
143
100
AcDbEntity
8
0
100
AcDbLine
10
18.327414433943616
20
66.52445226424625
30
0
11
17.642460377876006
21
66.353368780323478
31
0
0
SPLINE
5
144
100
AcDbEntity
8
0
100
AcDbSpline
70
0
71
3
72
9
73
5
74
0
42
0.000000001
43
0.0000000001
44
0.0000000001
40
0
40
0
40
0
40
0
40
0.034415545695216591
40
0.071014856360033227
40
0.071014856360033227
40
0.071014856360033227
40
0.071014856360033227
10
14.676589613558555
20
56.013584560301908
30
0
10
14.579690451250897
20
55.949307699321018
30
0
10
14.379743597185985
20
55.816675426386695
30
0
10
14.141767026760697
20
55.784196836737081
30
0
10
14.019119754367644
20
55.767458170302042
30
0
0
SPLINE
5
145
100
AcDbEntity
8
0
100
AcDbSpline
70
0
71
3
72
9
73
5
74
0
42
0.000000001
43
0.0000000001
44
0.0000000001
40
0
40
0
40
0
40
0
40
0.0097441859953318576
40
0.018954936670992
40
0.018954936670992
40
0.018954936670992
40
0.018954936670992
10
16.939285714953662
20
66.096741858061392
30
0
10
16.914551472412072
20
66.07546566454414
30
0
10
16.866437037691107
20
66.034078020577525
30
0
10
16.830045894811008
20
65.982104180121638
30
0
10
16.812362388414286
20
65.956848591332033
30
0
0
SPLINE
5
146
100
AcDbEntity
8
0
100
AcDbSpline
70
0
71
3
72
9
73
5
74
0
42
0.000000001
43
0.0000000001
44
0.0000000001
40
0
40
0
40
0
40
0
40
0.03036367426952534
40
0.067434176586624858
40
0.067434176586624858
40
0.067434176586624858
40
0.067434176586624858
10
16.853743501776179
20
67.063027470908608
30
0
10
16.888984736839632
20
66.966464674680395
30
0
10
16.967251406653787
20
66.752009974806086
30
0
10
16.932267912188479
20
66.525464854653634
30
0
10
16.91303648120968
20
66.400926499970083
30
0
0
SPLINE
5
147
100
AcDbEntity
8
0
100
AcDbSpline
70
0
71
3
72
9
73
5
74
0
42
0.000000001
43
0.0000000001
44
0.0000000001
40
0
40
0
40
0
40
0
40
0.028222013966552727
40
0.05686562313630053
40
0.05686562313630053
40
0.05686562313630053
40
0.05686562313630053
10
16.470811629851596
20
69.05798016766532
30
0
10
16.551661998141789
20
69.009713716767777
30
0
10
16.714570519803971
20
68.912459785488494
30
0
10
16.865038281168552
20
68.796882198513487
30
0
10
16.940829937207269
20
68.738664965543776
30
0
0
SPLINE
5
148
100
AcDbEntity
8
0
100
AcDbSpline
70
0
71
3
72
9
73
5
74
0
42
0.000000001
43
0.0000000001
44
0.0000000001
40
0
40
0
40
0
40
0
40
0.033746566865904548
40
0.058931929052335172
40
0.058931929052335172
40
0.058931929052335172
40
0.058931929052335172
10
15.365249619260481
20
66.692448528823718
30
0
10
15.401844966386236
20
66.799482221108917
30
0
10
15.46575174567522
20
66.986396107342898
30
0
10
15.575563720816987
20
67.150207948705599
30
0
10
15.622493363386383
20
67.220215169264776
30
0
0
SPLINE
5
149
100
AcDbEntity
8
0
100
AcDbSpline
70
0
71
3
72
9
73
5
74
0
42
0.000000001
43
0.0000000001
44
0.0000000001
40
0
40
0
40
0
40
0
40
0.0235573443970289
40
0.049487355255234733
40
0.049487355255234733
40
0.049487355255234733
40
0.049487355255234733
10
17.120560707625856
20
66.572627371215987
30
0
10
17.190941673814635
20
66.607859648122457
30
0
10
17.33879228966881
20
66.681872753094524
30
0
10
17.497930494378053
20
66.726908647349006
30
0
10
17.581314529648964
20
66.750506215273248
30
0
0
LINE
5
150
100
AcDbEntity
8
0
100
AcDbLine
10
18.478116879475159
20
66.976559600840915
30
0
11
18.327414433943616
21
66.52445226424625
31
0
0
LINE
5
151
100
AcDbEntity
8
0
100
AcDbLine
10
14.349861828905013
20
57.76642532186824
30
0
11
14.560474641193188
21
58.095623339077633
31
0
0
SPLINE
5
152
100
AcDbEntity
8
0
100
AcDbSpline
70
0
71
3
72
9
73
5
74
0
42
0.000000001
43
0.0000000001
44
0.0000000001
40
0
40
0
40
0
40
0
40
0.039003630745512261
40
0.080740133712254608
40
0.080740133712254608
40
0.080740133712254608
40
0.080740133712254608
10
15.100285235082715
20
57.463785373429204
30
0
10
15.132892039866235
20
57.335598021446742
30
0
10
15.200390314458367
20
57.070241598430265
30
0
10
15.129919422448062
20
56.805253536887328
30
0
10
15.093491335718134
20
56.668274880694455
30
0
0
LINE
5
153
100
AcDbEntity
8
0
100
AcDbLine
10
16.593720666507181
20
65.344157502009494
30
0
11
17.799956628528939
21
64.942078848002254
31
0
0
SPLINE
5
154
100
AcDbEntity
8
0
100
AcDbSpline
70
0
71
3
72
9
73
5
74
0
42
0.000000001
43
0.0000000001
44
0.0000000001
40
0
40
0
40
0
40
0
40
0.031794281463002644
40
0.069431989650718451
40
0.069431989650718451
40
0.069431989650718451
40
0.069431989650718451
10
16.036616065085312
20
60.001019061556953
30
0
10
16.050035526347131
20
59.894735023217187
30
0
10
16.079340792972907
20
59.662633151104387
30
0
10
16.01238401843414
20
59.437892539690438
30
0
10
15.976088075397499
20
59.316065099732604
30
0
0
SPLINE
5
155
100
AcDbEntity
8
0
100
AcDbSpline
70
0
71
3
72
9
73
5
74
0
42
0.000000001
43
0.0000000001
44
0.0000000001
40
0
40
0
40
0
40
0
40
0.027901078318832574
40
0.055896611319429572
40
0.055896611319429572
40
0.055896611319429572
40
0.055896611319429572
10
12.871558913240193
20
56.496881925603546
30
0
10
12.948310770982943
20
56.443676093616055
30
0
10
13.102074317727137
20
56.337084309723409
30
0
10
13.277085118748602
20
56.270922151291067
30
0
10
13.364738386805541
20
56.23778517131926
30
0
0
SPLINE
5
156
100
AcDbEntity
8
0
100
AcDbSpline
70
0
71
3
72
9
73
5
74
0
42
0.000000001
43
0.0000000001
44
0.0000000001
40
0
40
0
40
0
40
0
40
0.025479187176030003
40
0.050947169540288023
40
0.050947169540288023
40
0.050947169540288023
40
0.050947169540288023
10
14.49438797444234
20
56.322400832295955
30
0
10
14.555839239349595
20
56.382456462784134
30
0
10
14.678714745152206
20
56.502541313497474
30
0
10
14.74359513898122
20
56.661629143638059
30
0
10
14.77602820132276
20
56.741155564613912
30
0
0
LINE
5
157
100
AcDbEntity
8
0
100
AcDbLine
10
16.954417594571609
20
62.405461746130264
30
0
11
16.834596955301571
21
62.045999828320163
31
0
0
LINE
5
158
100
AcDbEntity
8
0
100
AcDbLine
10
16.834596955301571
20
62.045999828320163
30
0
11
14.118249742713509
21
62.95144889918285
31
0
0
SPLINE
5
159
100
AcDbEntity
8
0
100
AcDbSpline
70
0
71
3
72
9
73
5
74
0
42
0.000000001
43
0.0000000001
44
0.0000000001
40
0
40
0
40
0
40
0
40
0.036198808798826629
40
0.074855458012287657
40
0.074855458012287657
40
0.074855458012287657
40
0.074855458012287657
10
12.722400572158179
20
58.226561426716955
30
0
10
12.82926478920583
20
58.286678703507313
30
0
10
13.050249130339289
20
58.410995122691233
30
0
10
13.304070651268489
20
58.416447171020565
30
0
10
13.435148461196249
20
58.419262702784813
30
0
0
SPLINE
5
160
100
AcDbEntity
8
0
100
AcDbSpline
70
0
71
3
72
9
73
5
74
0
42
0.000000001
43
0.0000000001
44
0.0000000001
40
0
40
0
40
0
40
0
40
0.042087535396568974
40
0.080449364753038766
40
0.080449364753038766
40
0.080449364753038766
40
0.080449364753038766
10
13.243064778608549
20
55.866588117416498
30
0
10
13.110643234308164
20
55.916742861681769
30
0
10
12.857522470210156
20
56.012612512338968
30
0
10
12.653948433979316
20
56.190592144180386
30
0
10
12.556875294082346
20
56.275460735580545
30
0
0
SPLINE
5
161
100
AcDbEntity
8
0
100
AcDbSpline
70
0
71
3
72
9
73
5
74
0
42
0.000000001
43
0.0000000001
44
0.0000000001
40
0
40
0
40
0
40
0
40
0.035575988014853462
40
0.072135982669381607
40
0.072135982669381607
40
0.072135982669381607
40
0.072135982669381607
10
12.230765391528848
20
56.896798922912488
30
0
10
12.217290927913993
20
57.015793631971121
30
0
10
12.189969306560968
20
57.25707435948928
30
0
10
12.253933713265006
20
57.491402176289981
30
0
10
12.286352185719984
20
57.610164317077661
30
0
0
SPLINE
5
162
100
AcDbEntity
8
0
100
AcDbSpline
70
0
71
3
72
9
73
5
74
0
42
0.000000001
43
0.0000000001
44
0.0000000001
40
0
40
0
40
0
40
0
40
0.020855443441721935
40
0.042499323380614525
40
0.042499323380614525
40
0.042499323380614525
40
0.042499323380614525
10
15.622493363386383
20
67.220215169264776
30
0
10
15.672171828282551
20
67.270508619463101
30
0
10
15.773406844002693
20
67.372996855202473
30
0
10
15.911380218436442
20
67.414792077624497
30
0
10
15.981646728899754
20
67.436077375934303
30
0
0
SPLINE
5
163
100
AcDbEntity
8
0
100
AcDbSpline
70
0
71
3
72
9
73
5
74
0
42
0.000000001
43
0.0000000001
44
0.0000000001
40
0
40
0
40
0
40
0
40
0.014660188114436293
40
0.028517822862518336
40
0.028517822862518336
40
0.028517822862518336
40
0.028517822862518336
10
16.617499455648073
20
66.622965312924265
30
0
10
16.612912226578445
20
66.672471959548261
30
0
10
16.603988890464549
20
66.768775074345939
30
0
10
16.550732930490071
20
66.849378857244304
30
0
10
16.524854319593167
20
66.888546566087427
30
0
0
SPLINE
5
164
100
AcDbEntity
8
0
100
AcDbSpline
70
0
71
3
72
9
73
5
74
0
42
0.000000001
43
0.0000000001
44
0.0000000001
40
0
40
0
40
0
40
0
40
0.027328738749805726
40
0.048013895695525624
40
0.048013895695525624
40
0.048013895695525624
40
0.048013895695525624
10
17.642460377876006
20
66.353368780323478
30
0
10
17.554225887680808
20
66.330586144763174
30
0
10
17.399206600191377
20
66.290559303514627
30
0
10
17.247195513376283
20
66.2403541108349
30
0
10
17.18170669721772
20
66.218724907975485
30
0
0
SPLINE
5
165
100
AcDbEntity
8
0
100
AcDbSpline
70
0
71
3
72
9
73
5
74
0
42
0.000000001
43
0.0000000001
44
0.0000000001
40
0
40
0
40
0
40
0
40
0.02140169616066637
40
0.049158615566430933
40
0.049158615566430933
40
0.049158615566430933
40
0.049158615566430933
10
15.941809602183348
20
67.007750289250438
30
0
10
15.886219163987931
20
66.961164289477907
30
0
10
15.758530734066198
20
66.854158600003444
30
0
10
15.702178560656002
20
66.696330890301411
30
0
10
15.67035987093778
20
66.607215056429411
30
0
0
SPLINE
5
166
100
AcDbEntity
8
0
100
AcDbSpline
70
0
71
3
72
9
73
5
74
0
42
0.000000001
43
0.0000000001
44
0.0000000001
40
0
40
0
40
0
40
0
40
0.026448546797794698
40
0.053363552078563831
40
0.053363552078563831
40
0.053363552078563831
40
0.053363552078563831
10
12.567066166690033
20
56.926754059169191
30
0
10
12.60007149691571
20
56.843517598672442
30
0
10
12.666664254235549
20
56.675576681974427
30
0
10
12.802863846830022
20
56.556792946299161
30
0
10
12.871558913240193
20
56.496881925603546
30
0
0
SPLINE
5
167
100
AcDbEntity
8
0
100
AcDbSpline
70
0
71
3
72
9
73
5
74
0
42
0.000000001
43
0.0000000001
44
0.0000000001
40
0
40
0
40
0
40
0
40
0.03158200814684213
40
0.054729063075838746
40
0.054729063075838746
40
0.054729063075838746
40
0.054729063075838746
10
15.763622347194186
20
63.582668912048845
30
0
10
15.79649260324743
20
63.685153154258813
30
0
10
15.853454095641801
20
63.862750048354648
30
0
10
15.815064095096929
20
64.043978388040671
30
0
10
15.798827466852359
20
64.120626919874496
30
0
0
SPLINE
5
168
100
AcDbEntity
8
0
100
AcDbSpline
70
0
71
3
72
9
73
5
74
0
42
0.000000001
43
0.0000000001
44
0.0000000001
40
0
40
0
40
0
40
0
40
0.026788490881182146
40
0.05505709969026043
40
0.05505709969026043
40
0.05505709969026043
40
0.05505709969026043
10
15.756210919141651
20
60.466096621071216
30
0
10
15.820684000533269
20
60.402236636418998
30
0
10
15.953192430562453
20
60.270988274694908
30
0
10
16.008314234447099
20
60.092607290617778
30
0
10
16.036616065085312
20
60.001019061556953
30
0
0
SPLINE
5
169
100
AcDbEntity
8
0
100
AcDbSpline
70
0
71
3
72
9
73
5
74
0
42
0.000000001
43
0.0000000001
44
0.0000000001
40
0
40
0
40
0
40
0
40
0.029750704920997392
40
0.057865199461571315
40
0.057865199461571315
40
0.057865199461571315
40
0.057865199461571315
10
14.77602820132276
20
56.741155564613912
30
0
10
14.80154885437166
20
56.839052367336308
30
0
10
14.851186591796299
20
57.029461906580003
30
0
10
14.798110271545895
20
57.21867910624367
30
0
10
14.772322510857272
20
57.310612530416165
30
0
0
LINE
5
170
100
AcDbEntity
8
0
100
AcDbLine
10
14.424595570104444
20
58.639140047527107
30
0
11
12.855191669955879
21
59.162274680909981
31
0
0
SPLINE
5
171
100
AcDbEntity
8
0
100
AcDbSpline
70
0
71
3
72
9
73
5
74
0
42
0.000000001
43
0.0000000001
44
0.0000000001
40
0
40
0
40
0
40
0
40
0.015053738807795066
40
0.02699756206267578
40
0.02699756206267578
40
0.02699756206267578
40
0.02699756206267578
10
16.91303648120968
20
66.400926499970083
30
0
10
16.948469215971116
20
66.436695330502914
30
0
10
17.0120147223723
20
66.500843595232979
30
0
10
17.087268259185144
20
66.550610364735149
30
0
10
17.120560707625856
20
66.572627371215987
30
0
0
LINE
5
172
100
AcDbEntity
8
0
100
AcDbLine
10
13.447501155427872
20
60.939203137325975
30
0
11
13.567321794697911
21
61.298665055136077
31
0
0
SPLINE
5
173
100
AcDbEntity
8
0
100
AcDbSpline
70
0
71
3
72
9
73
5
74
0
42
0.000000001
43
0.0000000001
44
0.0000000001
40
0
40
0
40
0
40
0
40
0.020116845211662324
40
0.042473616914845205
40
0.042473616914845205
40
0.042473616914845205
40
0.042473616914845205
10
15.798827466852359
20
64.120626919874496
30
0
10
15.763528853689763
20
64.179795104911136
30
0
10
15.689001274572902
20
64.30471960466997
30
0
10
15.553777334691503
20
64.359725737565583
30
0
10
15.482599719684167
20
64.388679230221697
30
0
0
LINE
5
174
100
AcDbEntity
8
0
100
AcDbLine
10
15.67035987093778
20
66.607215056429411
30
0
11
15.383778684168732
21
65.747471496122301
31
0
0
SPLINE
5
175
100
AcDbEntity
8
0
100
AcDbSpline
70
0
71
3
72
9
73
5
74
0
42
0.000000001
43
0.0000000001
44
0.0000000001
40
0
40
0
40
0
40
0
40
0.035000353967052096
40
0.062765815127583502
40
0.062765815127583502
40
0.062765815127583502
40
0.062765815127583502
10
17.098326140738571
20
69.062921716574095
30
0
10
16.981703749448904
20
69.058633509308592
30
0
10
16.772565880205832
20
69.050943506381543
30
0
10
16.563358054267106
20
69.055822061057484
30
0
10
16.470811629851596
20
69.05798016766532
30
0
0
SPLINE
5
176
100
AcDbEntity
8
0
100
AcDbSpline
70
0
71
3
72
9
73
5
74
0
42
0.000000001
43
0.0000000001
44
0.0000000001
40
0
40
0
40
0
40
0
40
0.013588398980473109
40
0.027077976667246338
40
0.027077976667246338
40
0.027077976667246338
40
0.027077976667246338
10
16.524854319593167
20
66.888546566087427
30
0
10
16.493783244061682
20
66.922322523478414
30
0
10
16.431867056622949
20
66.989628803450074
30
0
10
16.347377090666377
20
67.024604563322214
30
0
10
16.305286281093352
20
67.042028621099774
30
0
0
SPLINE
5
177
100
AcDbEntity
8
0
100
AcDbSpline
70
0
71
3
72
9
73
5
74
0
42
0.000000001
43
0.0000000001
44
0.0000000001
40
0
40
0
40
0
40
0
40
0.0343074597674492
40
0.064931778843550184
40
0.064931778843550184
40
0.064931778843550184
40
0.064931778843550184
10
13.364738386805541
20
56.23778517131926
30
0
10
13.474861501189785
20
56.204596174591792
30
0
10
13.683285259673532
20
56.141781247163323
30
0
10
13.900787655903137
20
56.138607846675797
30
0
10
14.00337013401451
20
56.137111149206262
30
0
0
SPLINE
5
178
100
AcDbEntity
8
0
100
AcDbSpline
70
0
71
3
72
9
73
5
74
0
42
0.000000001
43
0.0000000001
44
0.0000000001
40
0
40
0
40
0
40
0
40
0.034212859216260529
40
0.067281029088814559
40
0.067281029088814559
40
0.067281029088814559
40
0.067281029088814559
10
15.595008695293586
20
64.762964475352973
30
0
10
15.70251155795173
20
64.717634762362479
30
0
10
15.913920466628859
20
64.628491971956592
30
0
10
16.044012888647075
20
64.439753075985621
30
0
10
16.10795243250795
20
64.346989187590168
30
0
0
SPLINE
5
179
100
AcDbEntity
8
0
100
AcDbSpline
70
0
71
3
72
9
73
5
74
0
42
0.000000001
43
0.0000000001
44
0.0000000001
40
0
40
0
40
0
40
0
40
0.038797603113493111
40
0.06951746790304128
40
0.06951746790304128
40
0.06951746790304128
40
0.06951746790304128
10
15.136725694846476
20
60.77553042175321
30
0
10
15.259520052681737
20
60.732696535442642
30
0
10
15.479542738220218
20
60.655946863354714
30
0
10
15.671420064465345
20
60.524280269982725
30
0
10
15.756210919141651
20
60.466096621071216
30
0
0
SPLINE
5
180
100
AcDbEntity
8
0
100
AcDbSpline
70
0
71
3
72
9
73
5
74
0
42
0.000000001
43
0.0000000001
44
0.0000000001
40
0
40
0
40
0
40
0
40
0.027414243852359854
40
0.053236075434399746
40
0.053236075434399746
40
0.053236075434399746
40
0.053236075434399746
10
14.00337013401451
20
56.137111149206262
30
0
10
14.095804565641608
20
56.147646993763694
30
0
10
14.275304186398472
20
56.168106686857762
30
0
10
14.422830999425926
20
56.272005399530798
30
0
10
14.49438797444234
20
56.322400832295955
30
0
0
LINE
5
181
100
AcDbEntity
8
0
100
AcDbLine
10
15.529539722156365
20
62.880421036935346
30
0
11
15.763622347194186
21
63.582668912048845
31
0
0
SPLINE
5
182
100
AcDbEntity
8
0
100
AcDbSpline
70
0
71
3
72
9
73
5
74
0
42
0.000000001
43
0.0000000001
44
0.0000000001
40
0
40
0
40
0
40
0
40
0.028506016500536607
40
0.056098794742914314
40
0.056098794742914314
40
0.056098794742914314
40
0.056098794742914314
10
16.428812752193664
20
67.412608034400733
30
0
10
16.518396844147709
20
67.374660646428723
30
0
10
16.694695050761901
20
67.299981578982297
30
0
10
16.801305861018712
20
67.141150296474891
30
0
10
16.853743501776179
20
67.063027470908608
30
0
0
LINE
5
183
100
AcDbEntity
8
0
100
AcDbLine
10
17.799956628528939
20
64.942078848002254
30
0
11
17.680135800772447
21
64.582616364732843
31
0
0
SPLINE
5
184
100
AcDbEntity
8
0
100
AcDbSpline
70
0
71
3
72
9
73
5
74
0
42
0.000000001
43
0.0000000001
44
0.0000000001
40
0
40
0
40
0
40
0
40
0.0085576983031178007
40
0.021160014474168449
40
0.021160014474168449
40
0.021160014474168449
40
0.021160014474168449
10
16.812362388414286
20
65.956848591332033
30
0
10
16.799669442822669
20
65.93126907779012
30
0
10
16.768284495267309
20
65.868020426386821
30
0
10
16.745974913172219
20
65.80098423394648
30
0
10
16.732687946495055
20
65.76105934197308
30
0
0
LINE
5
185
100
AcDbEntity
8
0
100
AcDbLine
10
12.975012309225917
20
59.521736598720061
30
0
11
14.542563340580905
21
58.999219588268389
31
0
0
SPLINE
5
186
100
AcDbEntity
8
0
100
AcDbSpline
70
0
71
3
72
9
73
5
74
0
42
0.000000001
43
0.0000000001
44
0.0000000001
40
0
40
0
40
0
40
0
40
0.025155774346041954
40
0.043677896732302109
40
0.043677896732302109
40
0.043677896732302109
40
0.043677896732302109
10
14.459800359911341
20
63.976100750776354
30
0
10
14.486599065222308
20
64.055670687839452
30
0
10
14.533129578138748
20
64.19382773465621
30
0
10
14.596570396613124
20
64.325017621983022
30
0
10
14.623473216848915
20
64.380650226359563
30
0
0
SPLINE
5
187
100
AcDbEntity
8
0
100
AcDbSpline
70
0
71
3
72
9
73
5
74
0
42
0.000000001
43
0.0000000001
44
0.0000000001
40
0
40
0
40
0
40
0
40
0.027722892905034258
40
0.055108068896751426
40
0.055108068896751426
40
0.055108068896751426
40
0.055108068896751426
10
15.636390185628386
20
58.73549077980428
30
0
10
15.562889213241142
20
58.676644737404366
30
0
10
15.416782648382643
20
58.559669507943859
30
0
10
15.231965234704177
20
58.530445110068392
30
0
10
15.140122833015184
20
58.515922458574785
30
0
0
SPLINE
5
188
100
AcDbEntity
8
0
100
AcDbSpline
70
0
71
3
72
9
73
5
74
0
42
0.000000001
43
0.0000000001
44
0.0000000001
40
0
40
0
40
0
40
0
40
0.036736196177270218
40
0.067778376263411447
40
0.067778376263411447
40
0.067778376263411447
40
0.067778376263411447
10
15.976088075397499
20
59.316065099732604
30
0
10
15.933591677899663
20
59.199863162793953
30
0
10
15.855185715411046
20
58.985470290805786
30
0
10
15.705119714063045
20
58.814016030875571
30
0
10
15.636390185628386
20
58.73549077980428
30
0
0
SPLINE
5
189
100
AcDbEntity
8
0
100
AcDbSpline
70
0
71
3
72
9
73
5
74
0
42
0.000000001
43
0.0000000001
44
0.0000000001
40
0
40
0
40
0
40
0
40
0.028222013966552727
40
0.05686562313630053
40
0.05686562313630053
40
0.05686562313630053
40
0.05686562313630053
10
18.227975681253774
20
74.329472321871805
30
0
10
18.308826049543967
20
74.281205870974247
30
0
10
18.471734571206113
20
74.18395193969495
30
0
10
18.622202332570694
20
74.068374352719957
30
0
10
18.697993988609412
20
74.010157119750232
30
0
0
SPLINE
5
190
100
AcDbEntity
8
0
100
AcDbSpline
70
0
71
3
72
9
73
5
74
0
42
0.000000001
43
0.0000000001
44
0.0000000001
40
0
40
0
40
0
40
0
40
0.032443787575755757
40
0.055617790189245786
40
0.055617790189245786
40
0.055617790189245786
40
0.055617790189245786
10
14.542563340580941
20
58.999219588268389
30
0
10
14.645855247197019
20
58.965194888938953
30
0
10
14.822926668867709
20
58.906866970716152
30
0
10
15.008681943868538
20
58.895761347855675
30
0
10
15.086079719179146
20
58.891134020298814
30
0
0
LINE
5
191
100
AcDbEntity
8
0
100
AcDbLine
10
15.85009082984282
20
62.773570667706515
30
0
11
16.954417594571609
21
62.405461746130264
31
0
0
SPLINE
5
192
100
AcDbEntity
8
0
100
AcDbSpline
70
0
71
3
72
9
73
5
74
0
42
0.000000001
43
0.0000000001
44
0.0000000001
40
0
40
0
40
0
40
0
40
0.01826781212508238
40
0.036760173776706852
40
0.036760173776706852
40
0.036760173776706852
40
0.036760173776706852
10
15.086079719179146
20
58.891134020298814
30
0
10
15.147537484427716
20
58.899564691431685
30
0
10
15.271208459090531
20
58.916529664236123
30
0
10
15.37014158130404
20
58.992706711982578
30
0
10
15.419910308906069
20
59.0310278996091
30
0
0
LWPOLYLINE
5
193
100
AcDbEntity
8
0
100
AcDbPolyline
90
4
70
1
43
0.0
10
-39.849999999999994
20
15.149999999999997
10
-35.150000000000006
20
15.149999999999997
10
-35.150000000000006
20
29.849999999999994
10
-39.849999999999994
20
29.849999999999994
0
LWPOLYLINE
5
194
100
AcDbEntity
8
0
100
AcDbPolyline
90
4
70
1
43
0.0
10
-14.849999999999994
20
29.849999999999994
10
-14.849999999999994
20
15.149999999999997
10
-10.150000000000006
20
15.149999999999997
10
-10.150000000000006
20
29.849999999999994
0
SPLINE
5
195
100
AcDbEntity
8
0
100
AcDbSpline
70
0
71
3
72
9
73
5
74
0
42
0.000000001
43
0.0000000001
44
0.0000000001
40
0
40
0
40
0
40
0
40
0.01375551142528815
40
0.035493296973873864
40
0.035493296973873864
40
0.035493296973873864
40
0.035493296973873864
10
14.926112976801527
20
64.226242043240944
30
0
10
14.904836168804358
20
64.185553950964177
30
0
10
14.849935697164298
20
64.080566611865663
30
0
10
14.812910040161675
20
63.967899503733427
30
0
10
14.790233764347924
20
63.898896800581859
30
0
0
SPLINE
5
196
100
AcDbEntity
8
0
100
AcDbSpline
70
0
71
3
72
9
73
5
74
0
42
0.000000001
43
0.0000000001
44
0.0000000001
40
0
40
0
40
0
40
0
40
0.032143474389641366
40
0.072933471952536938
40
0.072933471952536938
40
0.072933471952536938
40
0.072933471952536938
10
15.140122833015184
20
58.515922458574785
30
0
10
15.032481545650498
20
58.518296850169484
30
0
10
14.788243703848423
20
58.523684339420825
30
0
10
14.55502780676035
20
58.59772873575178
30
0
10
14.424595570104444
20
58.639140047527114
30
0
0
LINE
5
197
100
AcDbEntity
8
0
100
AcDbLine
10
15.383778684168732
20
65.747471496122301
30
0
11
16.282433902788433
21
65.447919756582408
31
0
0
LINE
5
198
100
AcDbEntity
8
0
100
AcDbLine
10
14.790233764347924
20
63.898896800581859
30
0
11
14.558621631034825
21
63.204060400642526
31
0
0
SPLINE
5
199
100
AcDbEntity
8
0
100
AcDbSpline
70
0
71
3
72
9
73
5
74
0
42
0.000000001
43
0.0000000001
44
0.0000000001
40
0
40
0
40
0
40
0
40
0.035000353967052096
40
0.062765815127583502
40
0.062765815127583502
40
0.062765815127583502
40
0.062765815127583502
10
18.855490192140714
20
74.334413870780551
30
0
10
18.738867800851082
20
74.330125663515062
30
0
10
18.529729931607974
20
74.322435660588013
30
0
10
18.320522105669248
20
74.327314215263954
30
0
10
18.227975681253774
20
74.329472321871805
30
0
0
LINE
5
200
100
AcDbEntity
8
0
100
AcDbLine
10
14.118249742713509
20
62.95144889918285
30
0
11
14.459800359911341
21
63.976100750776332
31
0
0
LINE
5
201
100
AcDbEntity
8
0
100
AcDbLine
10
13.567321794697911
20
61.298665055136077
30
0
11
15.136725694846476
21
60.77553042175321
31
0
0
SPLINE
5
202
100
AcDbEntity
8
0
100
AcDbSpline
70
0
71
3
72
9
73
5
74
0
42
0.000000001
43
0.0000000001
44
0.0000000001
40
0
40
0
40
0
40
0
40
0.042231458993278154
40
0.078430729369400293
40
0.078430729369400293
40
0.078430729369400293
40
0.078430729369400293
10
15.093491335718134
20
56.668274880694455
30
0
10
15.043504896814248
20
56.534554904228749
30
0
10
14.950671900861323
20
56.286215028328819
30
0
10
14.763142687321142
20
56.099679160727476
30
0
10
14.676589613558555
20
56.013584560301908
30
0
0
LINE
5
203
100
AcDbEntity
8
0
100
AcDbLine
10
16.282433902788433
20
65.447919756582408
30
0
11
16.539986293454305
21
66.220576928580059
31
0
0
LINE
5
204
100
AcDbEntity
8
0
100
AcDbLine
10
14.558621631034825
20
63.204060400642526
30
0
11
15.529539722156365
21
62.880421036935346
31
0
0
SPLINE
5
205
100
AcDbEntity
8
0
100
AcDbSpline
70
0
71
3
72
9
73
5
74
0
42
0.000000001
43
0.0000000001
44
0.0000000001
40
0
40
0
40
0
40
0
40
0.019758581667748319
40
0.040284063760625398
40
0.040284063760625398
40
0.040284063760625398
40
0.040284063760625398
10
15.196944755264639
20
64.804037366269412
30
0
10
15.263172389213651
20
64.808679918263635
30
0
10
15.398198185780352
20
64.818145216112015
30
0
10
15.528577832638639
20
64.781590026496701
30
0
10
15.595008695293586
20
64.762964475352973
30
0
0
LINE
5
206
100
AcDbEntity
8
0
100
AcDbLine
10
19.395300833151872
20
73.446258053504465
30
0
11
19.70226418923076
21
74.367148121741138
31
0
0
LINE
5
207
100
AcDbEntity
8
0
100
AcDbLine
10
13.435148461196249
20
58.419262702784813
30
0
11
13.400561011590852
21
58.037565793992947
31
0
0
SPLINE
5
208
100
AcDbEntity
8
0
100
AcDbSpline
70
0
71
3
72
9
73
5
74
0
42
0.000000001
43
0.0000000001
44
0.0000000001
40
0
40
0
40
0
40
0
40
0.014950241913099113
40
0.02974945040578585
40
0.02974945040578585
40
0.02974945040578585
40
0.02974945040578585
10
15.162048564876116
20
64.399796725712577
30
0
10
15.11477020206172
20
64.381248084942314
30
0
10
15.020691101670636
20
64.344338189310008
30
0
10
14.957532135613363
20
64.265473964719035
30
0
10
14.926112976801527
20
64.226242043240944
30
0
0
LINE
5
209
100
AcDbEntity
8
0
100
AcDbLine
10
16.732687946495052
20
65.76105934197308
30
0
11
16.593720666507181
21
65.344157502009494
31
0
0
LINE
5
210
100
AcDbEntity
8
0
100
AcDbLine
10
15.015052186782896
20
60.416686126874318
30
0
11
13.447501155427872
21
60.939203137325975
31
0
0
ENDSEC
0
SECTION
2
OBJECTS
0
DICTIONARY
5
C
100
AcDbDictionary
3
ACAD_GROUP
350
D
3
ACAD_MLINESTYLE
350
17
0
DICTIONARY
5
D
100
AcDbDictionary
0
DICTIONARY
5
1A
330
C
100
AcDbDictionary
0
DICTIONARY
5
17
100
AcDbDictionary
0
ENDSEC
0
EOF
