0
SECTION
2
HEADER
9
$INSUNITS
70
4
9
$ACADVER
1
AC1014
9
$HANDSEED
5
FFFF
0
ENDSEC
0
SECTION
2
TABLES
0
TABLE
2
VPORT
5
8
100
AcDbSymbolTable
0
ENDTAB
0
TABLE
2
LTYPE
5
5
100
AcDbSymbolTable
0
LTYPE
5
14
100
AcDbSymbolTableRecord
100
AcDbLinetypeTableRecord
2
BYBLOCK
70
0
0
LTYPE
5
15
100
AcDbSymbolTableRecord
100
AcDbLinetypeTableRecord
2
BYLAYER
70
0
0
ENDTAB
0
TABLE
2
LAYER
5
2
100
AcDbSymbolTable
70
2
0
LAYER
5
50
100
AcDbSymbolTableRecord
100
AcDbLayerTableRecord
2
0
70
0
6
CONTINUOUS
0
ENDTAB
0
TABLE
2
STYLE
5
3
100
AcDbSymbolTable
70
1
0
STYLE
5
11
100
AcDbSymbolTableRecord
100
AcDbTextStyleTableRecord
2
STANDARD
70
0
0
ENDTAB
0
TABLE
2
VIEW
5
6
100
AcDbSymbolTable
70
0
0
ENDTAB
0
TABLE
2
UCS
5
7
100
AcDbSymbolTable
70
0
0
ENDTAB
0
TABLE
2
APPID
5
9
100
AcDbSymbolTable
70
2
0
APPID
5
12
100
AcDbSymbolTableRecord
100
AcDbRegAppTableRecord
2
ACAD
70
0
0
ENDTAB
0
TABLE
2
DIMSTYLE
5
A
100
AcDbSymbolTable
70
1
0
ENDTAB
0
TABLE
2
BLOCK_RECORD
5
1
100
AcDbSymbolTable
70
1
0
BLOCK_RECORD
5
1F
100
AcDbSymbolTableRecord
100
AcDbBlockTableRecord
2
*MODEL_SPACE
0
BLOCK_RECORD
5
1B
100
AcDbSymbolTableRecord
100
AcDbBlockTableRecord
2
*PAPER_SPACE
0
ENDTAB
0
ENDSEC
0
SECTION
2
BLOCKS
0
BLOCK
5
20
100
AcDbEntity
100
AcDbBlockBegin
2
*MODEL_SPACE
0
ENDBLK
5
21
100
AcDbEntity
100
AcDbBlockEnd
0
BLOCK
5
1C
100
AcDbEntity
100
AcDbBlockBegin
2
*PAPER_SPACE
0
ENDBLK
5
1D
100
AcDbEntity
100
AcDbBlockEnd
0
ENDSEC
0
SECTION
2
ENTITIES
0
LINE
5
100
100
AcDbEntity
8
0
100
AcDbLine
10
-5.5109105961630896e-15
20
168
30
0
11
0
21
238
31
0
0
LINE
5
101
100
AcDbEntity
8
0
100
AcDbLine
10
-200
20
7.9999999999999805
30
0
11
-175
21
7.999999999999984
31
0
0
LWPOLYLINE
5
102
100
AcDbEntity
8
0
100
AcDbPolyline
90
16
70
1
43
0.0
10
5.5109105961630896e-15
20
78
42
-0.99999999999999989
10
-5.5109105961630896e-15
20
168
10
0
20
238
10
-100
20
238
10
-100
20
243
10
-200
20
243
10
-200
20
180.5
10
-195
20
180.5
10
-195
20
80.5
10
-200
20
80.5
10
-200
20
7.9999999999999805
10
-175
20
7.999999999999984
10
-175
20
-2.2204460492503131e-15
10
-110
20
0
10
-110
20
8
10
0
20
7.9999999999999982
0
LINE
5
103
100
AcDbEntity
8
0
100
AcDbLine
10
14.999999999999964
20
3.0000000000000426
30
0
11
99.999999999999972
21
3.0000000000000426
31
0
0
LINE
5
104
100
AcDbEntity
8
0
100
AcDbLine
10
99.999999999999972
20
8.0000000000000426
30
0
11
199.99999999999997
21
8.0000000000000071
31
0
0
LINE
5
105
100
AcDbEntity
8
0
100
AcDbLine
10
289.99999999999994
20
65.5
30
0
11
290
21
165.49999999999997
31
0
0
LINE
5
106
100
AcDbEntity
8
0
100
AcDbLine
10
284.99999999999994
20
65.5
30
0
11
289.99999999999994
21
65.5
31
0
0
LINE
5
107
100
AcDbEntity
8
0
100
AcDbLine
10
284.99999999999994
20
3.0000000000000071
30
0
11
284.99999999999994
21
65.5
31
0
0
LINE
5
108
100
AcDbEntity
8
0
100
AcDbLine
10
14.999999999999964
20
65.500000000000043
30
0
11
14.999999999999964
21
3.0000000000000426
31
0
0
LINE
5
109
100
AcDbEntity
8
0
100
AcDbLine
10
285.00000000000006
20
237.99999999999997
30
0
11
15
21
238.00000000000006
31
0
0
LINE
5
110
100
AcDbEntity
8
0
100
AcDbLine
10
10
20
165.50000000000006
30
0
11
9.9999999999999645
21
65.500000000000085
31
0
0
LINE
5
111
100
AcDbEntity
8
0
100
AcDbLine
10
15
20
238.00000000000006
30
0
11
15
21
165.50000000000006
31
0
0
LINE
5
112
100
AcDbEntity
8
0
100
AcDbLine
10
285
20
165.49999999999997
30
0
11
285.00000000000006
21
237.99999999999997
31
0
0
LINE
5
113
100
AcDbEntity
8
0
100
AcDbLine
10
290
20
165.49999999999997
30
0
11
285
21
165.49999999999997
31
0
0
LINE
5
114
100
AcDbEntity
8
0
100
AcDbLine
10
15
20
165.50000000000006
30
0
11
10
21
165.50000000000006
31
0
0
LINE
5
115
100
AcDbEntity
8
0
100
AcDbLine
10
9.9999999999999645
20
65.500000000000085
30
0
11
14.999999999999964
21
65.500000000000043
31
0
0
LINE
5
116
100
AcDbEntity
8
0
100
AcDbLine
10
99.999999999999972
20
3.0000000000000426
30
0
11
99.999999999999972
21
8.0000000000000426
31
0
0
LWPOLYLINE
5
117
100
AcDbEntity
8
0
100
AcDbPolyline
90
16
70
1
43
0.0
10
0
20
-102
10
0
20
-11.999999999999993
10
-100
20
-11.999999999999993
10
-100
20
-6.9999999999999929
10
-200
20
-6.9999999999999929
10
-200
20
-69.5
10
-195
20
-69.5
10
-195
20
-169.5
10
-200
20
-169.5
10
-200
20
-242
10
-175
20
-242
10
-175
20
-250
10
-110
20
-250
10
-110
20
-242
10
0
20
-242
10
0
20
-152
42
-0.99999999999999989
0
LWPOLYLINE
5
118
100
AcDbEntity
8
0
100
AcDbPolyline
90
12
70
1
43
0.0
10
10
20
-90.000000000000014
10
10
20
-5
10
105
20
-5
10
105
20
0
10
205
20
0
10
205
20
-280
10
105
20
-280
10
105
20
-275
10
10
20
-275
10
10
20
-190
10
5
20
-190
10
5
20
-90
0
LWPOLYLINE
5
119
100
AcDbEntity
8
0
100
AcDbPolyline
90
12
70
1
43
0.0
10
305
20
190
10
305
20
275
10
400
20
275
10
400
20
280
10
500
20
280
10
500
20
0
10
400
20
0
10
400
20
4.9999999999999822
10
305
20
5
10
305
20
90
10
300
20
90
10
300
20
190
0
LINE
5
120
100
AcDbEntity
8
0
100
AcDbLine
10
199.99999999999997
20
8.0000000000000071
30
0
11
199.99999999999997
21
3.0000000000000071
31
0
0
LINE
5
121
100
AcDbEntity
8
0
100
AcDbLine
10
284.99999999999994
20
3.0000000000000071
30
0
11
284.99999999999994
21
65.5
31
0
0
LINE
5
122
100
AcDbEntity
8
0
100
AcDbLine
10
199.99999999999997
20
3.0000000000000071
30
0
11
284.99999999999994
21
3.0000000000000071
31
0
0
LINE
5
123
100
AcDbEntity
8
0
100
AcDbLine
10
485
20
-247
30
0
11
485
21
-184.5
31
0
0
LINE
5
124
100
AcDbEntity
8
0
100
AcDbLine
10
485
20
-247
30
0
11
485
21
-184.5
31
0
0
LINE
5
125
100
AcDbEntity
8
0
100
AcDbLine
10
400
20
-247
30
0
11
485
21
-247
31
0
0
LINE
5
126
100
AcDbEntity
8
0
100
AcDbLine
10
300
20
-241.99999999999994
30
0
11
400
21
-242
31
0
0
LINE
5
127
100
AcDbEntity
8
0
100
AcDbLine
10
400
20
-242
30
0
11
400
21
-247
31
0
0
LINE
5
128
100
AcDbEntity
8
0
100
AcDbLine
10
300
20
-246.99999999999994
30
0
11
300
21
-241.99999999999994
31
0
0
LINE
5
129
100
AcDbEntity
8
0
100
AcDbLine
10
215
20
-246.99999999999994
30
0
11
300
21
-246.99999999999994
31
0
0
LINE
5
130
100
AcDbEntity
8
0
100
AcDbLine
10
215
20
-184.49999999999994
30
0
11
215
21
-246.99999999999994
31
0
0
LINE
5
131
100
AcDbEntity
8
0
100
AcDbLine
10
210.00000000000003
20
-84.499999999999957
30
0
11
210
21
-184.49999999999991
31
0
0
LINE
5
132
100
AcDbEntity
8
0
100
AcDbLine
10
210
20
-184.49999999999991
30
0
11
215
21
-184.49999999999994
31
0
0
LINE
5
133
100
AcDbEntity
8
0
100
AcDbLine
10
215.00000000000003
20
-84.499999999999957
30
0
11
210.00000000000003
21
-84.499999999999957
31
0
0
LINE
5
134
100
AcDbEntity
8
0
100
AcDbLine
10
215.00000000000003
20
-11.999999999999957
30
0
11
215.00000000000003
21
-84.499999999999957
31
0
0
LINE
5
135
100
AcDbEntity
8
0
100
AcDbLine
10
485
20
-84.500000000000028
30
0
11
485.00000000000006
21
-12.000000000000028
31
0
0
LINE
5
136
100
AcDbEntity
8
0
100
AcDbLine
10
490
20
-84.500000000000028
30
0
11
485
21
-84.500000000000028
31
0
0
LINE
5
137
100
AcDbEntity
8
0
100
AcDbLine
10
490
20
-184.5
30
0
11
490
21
-84.500000000000028
31
0
0
LINE
5
138
100
AcDbEntity
8
0
100
AcDbLine
10
485
20
-184.5
30
0
11
490
21
-184.5
31
0
0
LINE
5
139
100
AcDbEntity
8
0
100
AcDbLine
10
485.00000000000006
20
-12.000000000000028
30
0
11
215.00000000000003
21
-11.999999999999957
31
0
0
LWPOLYLINE
5
140
100
AcDbEntity
8
0
100
AcDbPolyline
90
16
70
1
43
0.0
10
510
20
243
10
610
20
243
10
610
20
238
10
710
20
238
10
710
20
168
42
0.99999999999999989
10
710
20
78
10
710
20
8
10
600
20
8
10
600
20
0
10
535
20
-2.2204460492503131e-15
10
535
20
7.999999999999984
10
510
20
7.9999999999999805
10
510
20
80.5
10
515
20
80.5
10
515
20
180.5
10
510
20
180.5
0
LINE
5
141
100
AcDbEntity
8
0
100
AcDbLine
10
710
20
168
30
0
11
710
21
238
31
0
0
LWPOLYLINE
5
142
100
AcDbEntity
8
0
100
AcDbPolyline
90
16
70
1
43
0.0
10
610
20
-6.9999999999999929
10
510
20
-6.9999999999999929
10
510
20
-69.5
10
515
20
-69.5
10
515
20
-169.5
10
510
20
-169.5
10
510
20
-242
10
535
20
-242
10
535
20
-250
10
600
20
-250
10
600
20
-242
10
710
20
-242
10
710
20
-152
42
-0.99999999999999989
10
710
20
-102
10
710
20
-11.999999999999993
10
610
20
-11.999999999999993
0
LINE
5
143
100
AcDbEntity
8
0
100
AcDbLine
10
510
20
7.9999999999999805
30
0
11
535
21
7.999999999999984
31
0
0
ENDSEC
0
SECTION
2
OBJECTS
0
DICTIONARY
5
C
100
AcDbDictionary
3
ACAD_GROUP
350
D
3
ACAD_MLINESTYLE
350
17
0
DICTIONARY
5
D
100
AcDbDictionary
0
DICTIONARY
5
1A
330
C
100
AcDbDictionary
0
DICTIONARY
5
17
100
AcDbDictionary
0
ENDSEC
0
EOF
