0
SECTION
2
HEADER
9
$INSUNITS
70
4
9
$ACADVER
1
AC1014
9
$HANDSEED
5
FFFF
0
ENDSEC
0
SECTION
2
TABLES
0
TABLE
2
VPORT
5
8
100
AcDbSymbolTable
0
ENDTAB
0
TABLE
2
LTYPE
5
5
100
AcDbSymbolTable
0
LTYPE
5
14
100
AcDbSymbolTableRecord
100
AcDbLinetypeTableRecord
2
BYBLOCK
70
0
0
LTYPE
5
15
100
AcDbSymbolTableRecord
100
AcDbLinetypeTableRecord
2
BYLAYER
70
0
0
ENDTAB
0
TABLE
2
LAYER
5
2
100
AcDbSymbolTable
70
2
0
LAYER
5
50
100
AcDbSymbolTableRecord
100
AcDbLayerTableRecord
2
0
70
0
6
CONTINUOUS
0
ENDTAB
0
TABLE
2
STYLE
5
3
100
AcDbSymbolTable
70
1
0
STYLE
5
11
100
AcDbSymbolTableRecord
100
AcDbTextStyleTableRecord
2
STANDARD
70
0
0
ENDTAB
0
TABLE
2
VIEW
5
6
100
AcDbSymbolTable
70
0
0
ENDTAB
0
TABLE
2
UCS
5
7
100
AcDbSymbolTable
70
0
0
ENDTAB
0
TABLE
2
APPID
5
9
100
AcDbSymbolTable
70
2
0
APPID
5
12
100
AcDbSymbolTableRecord
100
AcDbRegAppTableRecord
2
ACAD
70
0
0
ENDTAB
0
TABLE
2
DIMSTYLE
5
A
100
AcDbSymbolTable
70
1
0
ENDTAB
0
TABLE
2
BLOCK_RECORD
5
1
100
AcDbSymbolTable
70
1
0
BLOCK_RECORD
5
1F
100
AcDbSymbolTableRecord
100
AcDbBlockTableRecord
2
*MODEL_SPACE
0
BLOCK_RECORD
5
1B
100
AcDbSymbolTableRecord
100
AcDbBlockTableRecord
2
*PAPER_SPACE
0
ENDTAB
0
ENDSEC
0
SECTION
2
BLOCKS
0
BLOCK
5
20
100
AcDbEntity
100
AcDbBlockBegin
2
*MODEL_SPACE
0
ENDBLK
5
21
100
AcDbEntity
100
AcDbBlockEnd
0
BLOCK
5
1C
100
AcDbEntity
100
AcDbBlockBegin
2
*PAPER_SPACE
0
ENDBLK
5
1D
100
AcDbEntity
100
AcDbBlockEnd
0
ENDSEC
0
SECTION
2
ENTITIES
0
LWPOLYLINE
5
100
100
AcDbEntity
8
0
100
AcDbPolyline
90
24
70
1
43
0.0
10
-188
20
85
42
-0.41421356237309503
10
-185
20
88
10
185
20
88
42
-0.41421356237309503
10
188
20
85
10
188
20
43.000000000000007
42
-0.41421356237309503
10
185
20
40.000000000000007
10
41.999999999999993
20
40
42
0.41421356237309243
10
39.999999999999993
20
38
10
40
20
-38
42
0.4142135623730937
10
41.999999999999993
20
-40
10
185
20
-39.999999999999993
42
-0.41421356237309503
10
188
20
-43
10
188
20
-85
42
-0.41421356237309853
10
184.99999999999997
20
-88
10
-185.00000000000003
20
-88
42
-0.41421356237309159
10
-188
20
-85
10
-188
20
-43.000000000000007
42
-0.41421356237309853
10
-184.99999999999997
20
-40.000000000000007
10
-41.999999999999993
20
-40
42
0.41421356237309243
10
-39.999999999999993
20
-38
10
-40
20
38
42
0.4142135623730937
10
-41.999999999999993
20
40
10
-184.99999999999997
20
39.999999999999993
42
-0.41421356237309853
10
-188
20
43
0
CIRCLE
5
101
100
AcDbEntity
8
0
100
AcDbCircle
10
181.99999999999991
20
82
30
0
40
1.9999999999999929
210
0
220
0
230
1
0
CIRCLE
5
102
100
AcDbEntity
8
0
100
AcDbCircle
10
-182
20
82
30
0
40
1.9999999999999929
210
0
220
0
230
1
0
CIRCLE
5
103
100
AcDbEntity
8
0
100
AcDbCircle
10
90.999999999999929
20
82
30
0
40
1.9999999999999929
210
0
220
0
230
1
0
CIRCLE
5
104
100
AcDbEntity
8
0
100
AcDbCircle
10
-91
20
82
30
0
40
1.9999999999999929
210
0
220
0
230
1
0
CIRCLE
5
105
100
AcDbEntity
8
0
100
AcDbCircle
10
-3.5527136788005009e-14
20
82
30
0
40
2.0000000000000018
210
0
220
0
230
1
0
CIRCLE
5
106
100
AcDbEntity
8
0
100
AcDbCircle
10
181.99999999999991
20
-82
30
0
40
1.9999999999999929
210
0
220
0
230
1
0
CIRCLE
5
107
100
AcDbEntity
8
0
100
AcDbCircle
10
-182
20
-82
30
0
40
1.9999999999999929
210
0
220
0
230
1
0
CIRCLE
5
108
100
AcDbEntity
8
0
100
AcDbCircle
10
90.999999999999929
20
-82
30
0
40
1.9999999999999929
210
0
220
0
230
1
0
CIRCLE
5
109
100
AcDbEntity
8
0
100
AcDbCircle
10
-91
20
-82
30
0
40
1.9999999999999929
210
0
220
0
230
1
0
CIRCLE
5
110
100
AcDbEntity
8
0
100
AcDbCircle
10
-3.5527136788005009e-14
20
-82
30
0
40
2.0000000000000018
210
0
220
0
230
1
0
LWPOLYLINE
5
111
100
AcDbEntity
8
0
100
AcDbPolyline
90
4
70
1
43
0.0
10
88
20
60.499999999999972
10
-172
20
60.5
42
-0.99999999999999989
10
-172
20
68.5
10
88
20
68.500000000000028
42
-0.99999999999999989
0
LWPOLYLINE
5
112
100
AcDbEntity
8
0
100
AcDbPolyline
90
4
70
1
43
0.0
10
-88
20
-60.5
10
172
20
-60.5
42
-0.99999999999999989
10
172
20
-68.5
10
-88
20
-68.5
42
-0.99999999999999989
0
CIRCLE
5
113
100
AcDbEntity
8
0
100
AcDbCircle
10
0
20
0
30
0
40
7.5
210
0
220
0
230
1
0
SPLINE
5
114
100
AcDbEntity
8
0
100
AcDbSpline
70
0
71
3
72
9
73
5
74
0
42
0.000000001
43
0.0000000001
44
0.0000000001
40
0
40
0
40
0
40
0
40
0.059501409841994785
40
0.11573039892314263
40
0.11573039892314263
40
0.11573039892314263
40
0.11573039892314263
10
-155.36109374254943
20
53.331562261581411
30
0
10
-155.15920694099694
20
53.318068921736938
30
0
10
-154.7665365800251
20
53.291824340185784
30
0
10
-154.44109059833787
20
53.071447638415499
30
0
10
-154.28296880215407
20
52.96437499999999
30
0
0
SPLINE
5
115
100
AcDbEntity
8
0
100
AcDbSpline
70
0
71
3
72
9
73
5
74
0
42
0.000000001
43
0.0000000001
44
0.0000000001
40
0
40
0
40
0
40
0
40
0.058734374524987851
40
0.12607403477781226
40
0.12607403477781226
40
0.12607403477781226
40
0.12607403477781226
10
-154.28296880215407
20
52.96437499999999
30
0
10
-154.14626821699332
20
52.819868377022573
30
0
10
-153.85283878206553
20
52.509683188907097
30
0
10
-153.74363905470443
20
52.095667972922143
30
0
10
-153.68531243294478
20
51.874530892372121
30
0
0
LINE
5
116
100
AcDbEntity
8
0
100
AcDbLine
10
-153.68531243294478
20
51.874530892372107
30
0
11
-152.92749987334014
21
52.06593749999999
31
0
0
SPLINE
5
117
100
AcDbEntity
8
0
100
AcDbSpline
70
0
71
3
72
9
73
5
74
0
42
0.000000001
43
0.0000000001
44
0.0000000001
40
0
40
0
40
0
40
0
40
0.088777407769138991
40
0.16851378287340374
40
0.16851378287340374
40
0.16851378287340374
40
0.16851378287340374
10
-152.92749987334014
20
52.06593749999999
30
0
10
-153.01672868455941
20
52.353668743280686
30
0
10
-153.1860993037034
20
52.899828869764498
30
0
10
-153.59258390121542
20
53.30028160261363
30
0
10
-153.78492192715407
20
53.4897655057907
30
0
0
SPLINE
5
118
100
AcDbEntity
8
0
100
AcDbSpline
70
0
71
3
72
9
73
5
74
0
42
0.000000001
43
0.0000000001
44
0.0000000001
40
0
40
0
40
0
40
0
40
0.078007261491024521
40
0.16148026742450922
40
0.16148026742450922
40
0.16148026742450922
40
0.16148026742450922
10
-153.78492192715407
20
53.4897655057907
30
0
10
-154.00751797278099
20
53.632705367890594
30
0
10
-154.46830672870476
20
53.928600477093589
30
0
10
-155.01565593054116
20
53.962484526041514
30
0
10
-155.29859380215407
20
53.97999999999999
30
0
0
SPLINE
5
119
100
AcDbEntity
8
0
100
AcDbSpline
70
0
71
3
72
9
73
5
74
0
42
0.000000001
43
0.0000000001
44
0.0000000001
40
0
40
0
40
0
40
0
40
0.084462917986556307
40
0.15686145873880059
40
0.15686145873880059
40
0.15686145873880059
40
0.15686145873880059
10
-155.29859380215407
20
53.97999999999999
30
0
10
-155.58392381854293
20
53.969729339424894
30
0
10
-156.11382834540106
20
53.950655042225307
30
0
10
-156.58635915808395
20
53.712819018048194
30
0
10
-156.80445314735175
20
53.603047113418569
30
0
0
SPLINE
5
120
100
AcDbEntity
8
0
100
AcDbSpline
70
0
71
3
72
9
73
5
74
0
42
0.000000001
43
0.0000000001
44
0.0000000001
40
0
40
0
40
0
40
0
40
0.068831091390433183
40
0.14202971272006645
40
0.14202971272006645
40
0.14202971272006645
40
0.14202971272006645
10
-156.80445314735175
20
53.603047113418569
30
0
10
-156.98769432753005
20
53.459846135974978
30
0
10
-157.36580386572669
20
53.164357668820244
30
0
10
-157.57793725527623
20
52.7333701371372
30
0
10
-157.68726558774711
20
52.511249761581411
30
0
0
SPLINE
5
121
100
AcDbEntity
8
0
100
AcDbSpline
70
0
71
3
72
9
73
5
74
0
42
0.000000001
43
0.0000000001
44
0.0000000001
40
0
40
0
40
0
40
0
40
0.077520712167100284
40
0.15727511662755722
40
0.15727511662755722
40
0.15727511662755722
40
0.15727511662755722
10
-157.68726558774711
20
52.511249761581411
30
0
10
-157.77555811182319
20
52.266684741075039
30
0
10
-157.95468723271506
20
51.770507770457819
30
0
10
-157.9781181520693
20
51.243393820605107
30
0
10
-157.99000000000001
20
50.976093690395345
30
0
0
SPLINE
5
122
100
AcDbEntity
8
0
100
AcDbSpline
70
0
71
3
72
9
73
5
74
0
42
0.000000001
43
0.0000000001
44
0.0000000001
40
0
40
0
40
0
40
0
40
0.084175070793137949
40
0.16089872950607753
40
0.16089872950607753
40
0.16089872950607753
40
0.16089872950607753
10
-157.99000000000001
20
50.976093690395345
30
0
10
-157.9785888018483
20
50.693120830167388
30
0
10
-157.95677655663783
20
50.152224656675948
30
0
10
-157.7478354737882
20
49.653405877750728
30
0
10
-157.64820308774711
20
49.415546934604635
30
0
0
SPLINE
5
123
100
AcDbEntity
8
0
100
AcDbSpline
70
0
71
3
72
9
73
5
74
0
42
0.000000001
43
0.0000000001
44
0.0000000001
40
0
40
0
40
0
40
0
40
0.071747526541035375
40
0.14198402282040792
40
0.14198402282040792
40
0.14198402282040792
40
0.14198402282040792
10
-157.64820308774711
20
49.415546934604635
30
0
10
-157.5233667616416
20
49.207517434590571
30
0
10
-157.27632321005038
20
48.795839615140991
30
0
10
-156.87437972701764
20
48.533568235360448
30
0
10
-156.67554677814246
20
48.40382812499999
30
0
0
SPLINE
5
124
100
AcDbEntity
8
0
100
AcDbSpline
70
0
71
3
72
9
73
5
74
0
42
0.000000001
43
0.0000000001
44
0.0000000001
40
0
40
0
40
0
40
0
40
0.071151976029706923
40
0.14427196533876321
40
0.14427196533876321
40
0.14427196533876321
40
0.14427196533876321
10
-156.67554677814246
20
48.40382812499999
30
0
10
-156.45829219111624
20
48.303003265809892
30
0
10
-156.01777390900918
20
48.098564803211374
30
0
10
-155.53271349400106
20
48.071726807786064
30
0
10
-155.28687493294478
20
48.058124761581411
30
0
0
SPLINE
5
125
100
AcDbEntity
8
0
100
AcDbSpline
70
0
71
3
72
9
73
5
74
0
42
0.000000001
43
0.0000000001
44
0.0000000001
40
0
40
0
40
0
40
0
40
0.079854154751013651
40
0.15305049056001788
40
0.15305049056001788
40
0.15305049056001788
40
0.15305049056001788
10
-155.28687493294478
20
48.058124761581411
30
0
10
-155.016489436683
20
48.072965605388774
30
0
10
-154.49826176309219
20
48.101409941592991
30
0
10
-154.05402059408874
20
48.368086625233211
30
0
10
-153.84156243294478
20
48.495624642372121
30
0
0
SPLINE
5
126
100
AcDbEntity
8
0
100
AcDbSpline
70
0
71
3
72
9
73
5
74
0
42
0.000000001
43
0.0000000001
44
0.0000000001
40
0
40
0
40
0
40
0
40
0.072397617597653258
40
0.14971091602457531
40
0.14971091602457531
40
0.14971091602457531
40
0.14971091602457531
10
-153.84156243294478
20
48.495624642372121
30
0
10
-153.65991105486597
20
48.660363733839922
30
0
10
-153.28427446471684
20
49.001027433932471
30
0
10
-153.11339910527556
20
49.479171730988313
30
0
10
-153.02515612334014
20
49.726093690395345
30
0
0
LINE
5
127
100
AcDbEntity
8
0
100
AcDbLine
10
-153.02515612334014
20
49.726093690395345
30
0
11
-153.77125011175872
21
49.901874940395345
31
0
0
SPLINE
5
128
100
AcDbEntity
8
0
100
AcDbSpline
70
0
71
3
72
9
73
5
74
0
42
0.000000001
43
0.0000000001
44
0.0000000001
40
0
40
0
40
0
40
0
40
0.059266069976499858
40
0.10911908916998976
40
0.10911908916998976
40
0.10911908916998976
40
0.10911908916998976
10
-153.77125011175872
20
49.901874940395345
30
0
10
-153.83878903972578
20
49.712806373431924
30
0
10
-153.96313989184418
20
49.364698428601031
30
0
10
-154.22825316438173
20
49.108683567007709
30
0
10
-154.34937493294478
20
48.991718571186055
30
0
0
SPLINE
5
129
100
AcDbEntity
8
0
100
AcDbSpline
70
0
71
3
72
9
73
5
74
0
42
0.000000001
43
0.0000000001
44
0.0000000001
40
0
40
0
40
0
40
0
40
0.047822163604678634
40
0.1008426613632161
40
0.1008426613632161
40
0.1008426613632161
40
0.1008426613632161
10
-154.34937493294478
20
48.991718571186055
30
0
10
-154.48830595657367
20
48.908608136272989
30
0
10
-154.78126999484823
20
48.733353049259982
30
0
10
-155.12288666547005
20
48.715794393229643
30
0
10
-155.30249999254943
20
48.70656249999999
30
0
0
SPLINE
5
130
100
AcDbEntity
8
0
100
AcDbSpline
70
0
71
3
72
9
73
5
74
0
42
0.000000001
43
0.0000000001
44
0.0000000001
40
0
40
0
40
0
40
0
40
0.061109806567317765
40
0.11623494883229021
40
0.11623494883229021
40
0.11623494883229021
40
0.11623494883229021
10
-155.30249999254943
20
48.70656249999999
30
0
10
-155.50925068348613
20
48.71680988204276
30
0
10
-155.90250435801048
20
48.736301089662504
30
0
10
-156.24404015618984
20
48.930750063689629
30
0
10
-156.40601561754943
20
49.022968690395345
30
0
0
SPLINE
5
131
100
AcDbEntity
8
0
100
AcDbSpline
70
0
71
3
72
9
73
5
74
0
42
0.000000001
43
0.0000000001
44
0.0000000001
40
0
40
0
40
0
40
0
40
0.052897093595589396
40
0.10672710415712766
40
0.10672710415712766
40
0.10672710415712766
40
0.10672710415712766
10
-156.40601561754943
20
49.022968690395345
30
0
10
-156.5430712935858
20
49.138235261366887
30
0
10
-156.81959982128691
20
49.370801296468301
30
0
10
-156.95883592772014
20
49.70434728460306
30
0
10
-157.02906252235175
20
49.872578065395345
30
0
0
SPLINE
5
132
100
AcDbEntity
8
0
100
AcDbSpline
70
0
71
3
72
9
73
5
74
0
42
0.000000001
43
0.0000000001
44
0.0000000001
40
0
40
0
40
0
40
0
40
0.055802156637665148
40
0.11179322263885914
40
0.11179322263885914
40
0.11179322263885914
40
0.11179322263885914
10
-157.02906252235175
20
49.872578065395345
30
0
10
-157.08147135365937
20
50.051854799242115
30
0
10
-157.18646643807259
20
50.41101517992481
30
0
10
-157.20131375813639
20
50.784919450851604
30
0
10
-157.20874996274711
20
50.97218749999999
30
0
0
SPLINE
5
133
100
AcDbEntity
8
0
100
AcDbSpline
70
0
71
3
72
9
73
5
74
0
42
0.000000001
43
0.0000000001
44
0.0000000001
40
0
40
0
40
0
40
0
40
0.0686149195348984
40
0.12986355768710037
40
0.12986355768710037
40
0.12986355768710037
40
0.12986355768710037
10
-157.20874996274711
20
50.97218749999999
30
0
10
-157.20207368359883
20
51.202121983274232
30
0
10
-157.1894378695778
20
51.637305908801558
30
0
10
-157.05789837993291
20
52.051994724673222
30
0
10
-156.99585930794478
20
52.247577886581411
30
0
0
SPLINE
5
134
100
AcDbEntity
8
0
100
AcDbSpline
70
0
71
3
72
9
73
5
74
0
42
0.000000001
43
0.0000000001
44
0.0000000001
40
0
40
0
40
0
40
0
40
0.054828487704719708
40
0.10647215086879949
40
0.10647215086879949
40
0.10647215086879949
40
0.10647215086879949
10
-156.99585930794478
20
52.247577886581411
30
0
10
-156.91740828078684
20
52.416296436305203
30
0
10
-156.76506321439811
20
52.743933174661031
30
0
10
-156.47462511857182
20
52.958134306127377
30
0
10
-156.33374990314246
20
53.06203124999999
30
0
0
SPLINE
5
135
100
AcDbEntity
8
0
100
AcDbSpline
70
0
71
3
72
9
73
5
74
0
42
0.000000001
43
0.0000000001
44
0.0000000001
40
0
40
0
40
0
40
0
40
0.050958374352060007
40
0.10189433908057605
40
0.10189433908057605
40
0.10189433908057605
40
0.10189433908057605
10
-156.33374990314246
20
53.06203124999999
30
0
10
-156.18093716350532
20
53.14064431159111
30
0
10
-155.87537888566777
20
53.29783586363294
30
0
10
-155.53249698691513
20
53.320321777374375
30
0
10
-155.36109374254943
20
53.331562261581411
30
0
0
SPLINE
5
136
100
AcDbEntity
8
0
100
AcDbSpline
70
0
71
3
72
9
73
5
74
0
42
0.000000001
43
0.0000000001
44
0.0000000001
40
0
40
0
40
0
40
0
40
0.061455071532042799
40
0.15222317835454613
40
0.15222317835454613
40
0.15222317835454613
40
0.15222317835454613
10
-142.81421826571227
20
52.917500119209279
30
0
10
-142.71146075914999
20
52.736824772818466
30
0
10
-142.45693214403732
20
52.28929497922644
30
0
10
-142.45807049679584
20
51.770072395484242
30
0
10
-142.45874927729369
20
51.46046874999999
30
0
0
LINE
5
137
100
AcDbEntity
8
0
100
AcDbLine
10
-142.45874927729372
20
51.46046874999999
30
0
11
-142.45874927729369
21
48.155781011581411
31
0
0
LINE
5
138
100
AcDbEntity
8
0
100
AcDbLine
10
-142.45874927729369
20
48.155781011581411
30
0
11
-141.70093701571227
21
48.155781011581411
31
0
0
LINE
5
139
100
AcDbEntity
8
0
100
AcDbLine
10
-141.70093701571227
20
48.155781011581411
30
0
11
-141.70093701571227
21
51.464374940395345
31
0
0
SPLINE
5
140
100
AcDbEntity
8
0
100
AcDbSpline
70
0
71
3
72
9
73
5
74
0
42
0.000000001
43
0.0000000001
44
0.0000000001
40
0
40
0
40
0
40
0
40
0.077595206226986221
40
0.13903493580608256
40
0.13903493580608256
40
0.13903493580608256
40
0.13903493580608256
10
-141.70093701571227
20
51.464374940395345
30
0
10
-141.70454662986373
20
51.724451381497268
30
0
10
-141.71101432930331
20
52.190455830116235
30
0
10
-141.83948024893419
20
52.637790724845061
30
0
10
-141.89624951571227
20
52.8354686307907
30
0
0
SPLINE
5
141
100
AcDbEntity
8
0
100
AcDbSpline
70
0
71
3
72
9
73
5
74
0
42
0.000000001
43
0.0000000001
44
0.0000000001
40
0
40
0
40
0
40
0
40
0.05357692081361156
40
0.11011413843176812
40
0.11011413843176812
40
0.11011413843176812
40
0.11011413843176812
10
-141.89624951571227
20
52.8354686307907
30
0
10
-141.97663851046028
20
52.998186328917676
30
0
10
-142.1418582498863
20
53.332612400158027
30
0
10
-142.44545028057402
20
53.550016486210637
30
0
10
-142.60132716387511
20
53.661640863418569
30
0
0
SPLINE
5
142
100
AcDbEntity
8
0
100
AcDbSpline
70
0
71
3
72
9
73
5
74
0
42
0.000000001
43
0.0000000001
44
0.0000000001
40
0
40
0
40
0
40
0
40
0.063588562926005288
40
0.13886403857198382
40
0.13886403857198382
40
0.13886403857198382
40
0.13886403857198382
10
-142.60132716387511
20
53.661640863418569
30
0
10
-142.79449973637784
20
53.754322427421648
30
0
10
-143.21634797959544
20
53.956719457428648
30
0
10
-143.68511069928743
20
53.971816298258837
30
0
10
-143.93921778887511
20
53.97999999999999
30
0
0
SPLINE
5
143
100
AcDbEntity
8
0
100
AcDbSpline
70
0
71
3
72
9
73
5
74
0
42
0.000000001
43
0.0000000001
44
0.0000000001
40
0
40
0
40
0
40
0
40
0.073472570370455473
40
0.13555681822330992
40
0.13555681822330992
40
0.13555681822330992
40
0.13555681822330992
10
-143.93921778887511
20
53.97999999999999
30
0
10
-144.18657317134171
20
53.972861437850817
30
0
10
-144.64294360249053
20
53.959690797886111
30
0
10
-145.0631653551423
20
53.783397386319784
30
0
10
-145.25562451571227
20
53.702656011581411
30
0
0
SPLINE
5
144
100
AcDbEntity
8
0
100
AcDbSpline
70
0
71
3
72
9
73
5
74
0
42
0.000000001
43
0.0000000001
44
0.0000000001
40
0
40
0
40
0
40
0
40
0.055445738673552375
40
0.1102160906569867
40
0.1102160906569867
40
0.1102160906569867
40
0.1102160906569867
10
-145.25562451571227
20
53.702656011581411
30
0
10
-145.41376289482221
20
53.600415188815163
30
0
10
-145.72811336332168
20
53.397178942704421
30
0
10
-145.90045150833424
20
53.064995868148287
30
0
10
-145.98609255045653
20
52.899922113418569
30
0
0
SPLINE
5
145
100
AcDbEntity
8
0
100
AcDbSpline
70
0
71
3
72
9
73
5
74
0
42
0.000000001
43
0.0000000001
44
0.0000000001
40
0
40
0
40
0
40
0
40
0.064286948779282732
40
0.14586694390507388
40
0.14586694390507388
40
0.14586694390507388
40
0.14586694390507388
10
-145.98609255045653
20
52.899922113418569
30
0
10
-146.04966578682775
20
52.694185433312242
30
0
10
-146.19391331886507
20
52.227369363392356
30
0
10
-146.20092263890982
20
51.738043522502117
30
0
10
-146.20484278887511
20
51.464374940395345
30
0
0
LINE
5
146
100
AcDbEntity
8
0
100
AcDbLine
10
-146.20484278887511
20
51.464374940395345
30
0
11
-146.20484278887511
21
48.155781011581411
31
0
0
LINE
5
147
100
AcDbEntity
8
0
100
AcDbLine
10
-146.20484278887511
20
48.155781011581411
30
0
11
-145.44703052729369
21
48.155781011581411
31
0
0
LINE
5
148
100
AcDbEntity
8
0
100
AcDbLine
10
-145.44703052729369
20
48.155781011581411
30
0
11
-145.44703052729369
21
51.46046874999999
31
0
0
SPLINE
5
149
100
AcDbEntity
8
0
100
AcDbSpline
70
0
71
3
72
9
73
5
74
0
42
0.000000001
43
0.0000000001
44
0.0000000001
40
0
40
0
40
0
40
0
40
0.064887571967007951
40
0.1112356039444978
40
0.1112356039444978
40
0.1112356039444978
40
0.1112356039444978
10
-145.44703052729369
20
51.46046874999999
30
0
10
-145.44626072469995
20
51.677970510680552
30
0
10
-145.44494106588337
20
52.050829888445449
30
0
10
-145.34852936211186
20
52.410299374593251
30
0
10
-145.30835793703795
20
52.560077886581411
30
0
0
SPLINE
5
150
100
AcDbEntity
8
0
100
AcDbSpline
70
0
71
3
72
9
73
5
74
0
42
0.000000001
43
0.0000000001
44
0.0000000001
40
0
40
0
40
0
40
0
40
0.036535562753578145
40
0.073520286056827089
40
0.073520286056827089
40
0.073520286056827089
40
0.073520286056827089
10
-145.30835793703795
20
52.560077886581411
30
0
10
-145.25349300931381
20
52.671353798897648
30
0
10
-145.14308865594526
20
52.895273626269763
30
0
10
-144.93598208178776
20
53.034807214911581
30
0
10
-144.83179615229369
20
53.105000238418569
30
0
0
SPLINE
5
151
100
AcDbEntity
8
0
100
AcDbSpline
70
0
71
3
72
9
73
5
74
0
42
0.000000001
43
0.0000000001
44
0.0000000001
40
0
40
0
40
0
40
0
40
0.040199498631976381
40
0.085521080673350763
40
0.085521080673350763
40
0.085521080673350763
40
0.085521080673350763
10
-144.83179615229369
20
53.105000238418569
30
0
10
-144.70853366669772
20
53.160773151900251
30
0
10
-144.44630300876943
20
53.279425373832709
30
0
10
-144.15826774432421
20
53.290524375110088
30
0
10
-144.00562451571227
20
53.29640624999999
30
0
0
SPLINE
5
152
100
AcDbEntity
8
0
100
AcDbSpline
70
0
71
3
72
9
73
5
74
0
42
0.000000001
43
0.0000000001
44
0.0000000001
40
0
40
0
40
0
40
0
40
0.072206131780820748
40
0.12760825174694726
40
0.12760825174694726
40
0.12760825174694726
40
0.12760825174694726
10
-144.00562451571227
20
53.29640624999999
30
0
10
-143.75796547400307
20
53.290826159233788
30
0
10
-143.32028329158442
20
53.280964591944382
30
0
10
-142.96741764458676
20
53.027530507833731
30
0
10
-142.81421826571227
20
52.917500119209279
30
0
0
LWPOLYLINE
5
153
100
AcDbEntity
8
0
100
AcDbPolyline
90
8
70
1
43
0.0
10
-135.81421778887511
20
53.88234374999999
10
-135.18531010836364
20
52.147968392372121
10
-132.7907793352008
20
52.147968392372121
10
-132.12281153887511
20
53.88234374999999
10
-131.25952885836364
20
53.88234374999999
10
-133.60327885836364
20
48.155781011581411
10
-134.41968606203795
20
48.155781011581411
10
-136.6189043352008
20
53.88234374999999
0
LINE
5
154
100
AcDbEntity
8
0
100
AcDbLine
10
-128.11499999254943
20
51.554218511581411
30
0
11
-128.11499999254943
21
53.88234374999999
31
0
0
LINE
5
155
100
AcDbEntity
8
0
100
AcDbLine
10
-128.11499999254943
20
53.88234374999999
30
0
11
-128.87281344622374
21
53.88234374999999
31
0
0
LINE
5
156
100
AcDbEntity
8
0
100
AcDbLine
10
-128.87281344622374
20
53.88234374999999
30
0
11
-128.87281344622374
21
48.155781011581411
31
0
0
LINE
5
157
100
AcDbEntity
8
0
100
AcDbLine
10
-128.87281344622374
20
48.155781011581411
30
0
11
-126.7126576730609
21
48.155781011581411
31
0
0
SPLINE
5
158
100
AcDbEntity
8
0
100
AcDbSpline
70
0
71
3
72
9
73
5
74
0
42
0.000000001
43
0.0000000001
44
0.0000000001
40
0
40
0
40
0
40
0
40
0.050311548692083909
40
0.087355674988276816
40
0.087355674988276816
40
0.087355674988276816
40
0.087355674988276816
10
-126.7126576730609
20
48.155781011581411
30
0
10
-126.5447353407145
20
48.156303510404257
30
0
10
-126.25317268623327
20
48.157210722337432
30
0
10
-125.96413428494712
20
48.194609506906033
30
0
10
-125.84156439989806
20
48.210468869209279
30
0
0
SPLINE
5
159
100
AcDbEntity
8
0
100
AcDbSpline
70
0
71
3
72
9
73
5
74
0
42
0.000000001
43
0.0000000001
44
0.0000000001
40
0
40
0
40
0
40
0
40
0.040090326678950336
40
0.076058983604040328
40
0.076058983604040328
40
0.076058983604040328
40
0.076058983604040328
10
-125.84156439989806
20
48.210468869209279
30
0
10
-125.70954111904587
20
48.237242982844812
30
0
10
-125.45906781574502
20
48.288038574667389
30
0
10
-125.23873035692452
20
48.417040845870233
30
0
10
-125.13453171938659
20
48.478046636581411
30
0
0
SPLINE
5
160
100
AcDbEntity
8
0
100
AcDbSpline
70
0
71
3
72
9
73
5
74
0
42
0.000000001
43
0.0000000001
44
0.0000000001
40
0
40
0
40
0
40
0
40
0.034971167357177139
40
0.072450579655523914
40
0.072450579655523914
40
0.072450579655523914
40
0.072450579655523914
10
-125.13453171938659
20
48.478046636581411
30
0
10
-125.04319272180255
20
48.552322705654319
30
0
10
-124.85396359906468
20
48.706202163091461
30
0
10
-124.73637638886258
20
48.920119490086975
30
0
10
-124.67554734438659
20
49.030781071186055
30
0
0
SPLINE
5
161
100
AcDbEntity
8
0
100
AcDbSpline
70
0
71
3
72
9
73
5
74
0
42
0.000000001
43
0.0000000001
44
0.0000000001
40
0
40
0
40
0
40
0
40
0.039517202663927761
40
0.080568166849681919
40
0.080568166849681919
40
0.080568166849681919
40
0.080568166849681919
10
-124.67554734438659
20
49.030781071186055
30
0
10
-124.62485219276658
20
49.153502931093939
30
0
10
-124.52149428383447
20
49.403709793387534
30
0
10
-124.50839372065636
20
49.674207506682009
30
0
10
-124.50171874254943
20
49.812031071186055
30
0
0
SPLINE
5
162
100
AcDbEntity
8
0
100
AcDbSpline
70
0
71
3
72
9
73
5
74
0
42
0.000000001
43
0.0000000001
44
0.0000000001
40
0
40
0
40
0
40
0
40
0.068425698186650008
40
0.13456216361248319
40
0.13456216361248319
40
0.13456216361248319
40
0.13456216361248319
10
-124.50171874254943
20
49.812031071186055
30
0
10
-124.51973442764292
20
50.044672539259707
30
0
10
-124.55516306965004
20
50.502172281601872
30
0
10
-124.83099417546283
20
50.868373592173711
30
0
10
-124.96656344622374
20
51.0483592557907
30
0
0
SPLINE
5
163
100
AcDbEntity
8
0
100
AcDbSpline
70
0
71
3
72
9
73
5
74
0
42
0.000000001
43
0.0000000001
44
0.0000000001
40
0
40
0
40
0
40
0
40
0.075464555196915792
40
0.17897457821543267
40
0.17897457821543267
40
0.17897457821543267
40
0.17897457821543267
10
-124.96656344622374
20
51.0483592557907
30
0
10
-125.1772186414629
20
51.195006580069219
30
0
10
-125.6768164277142
20
51.542800891460629
30
0
10
-126.29102383335622
20
51.550034785755805
30
0
10
-126.64625094622374
20
51.554218511581411
30
0
0
LINE
5
164
100
AcDbEntity
8
0
100
AcDbLine
10
-126.64625094622374
20
51.554218511581418
30
0
11
-128.11499999254943
21
51.554218511581411
31
0
0
LWPOLYLINE
5
165
100
AcDbEntity
8
0
100
AcDbPolyline
90
8
70
1
43
0.0
10
-117.58375094622374
20
53.88234374999999
10
-116.95484564989806
20
52.147968392372121
10
-114.56031249254943
20
52.147968392372121
10
-113.89234469622374
20
53.88234374999999
10
-113.02906439989806
20
53.88234374999999
10
-115.37281439989806
20
48.155781011581411
10
-116.1892168352008
20
48.155781011581411
10
-118.38843749254943
20
53.88234374999999
0
LWPOLYLINE
5
166
100
AcDbEntity
8
0
100
AcDbPolyline
90
10
70
1
43
0.0
10
-111.70484469622374
20
53.88234374999999
10
-111.70484469622374
20
49.382343571186055
10
-108.69703219622374
20
53.88234374999999
10
-107.91968749254943
20
53.88234374999999
10
-107.91968749254943
20
48.155781011581411
10
-108.64624903887511
20
48.155781011581411
10
-108.64624903887511
20
52.65187499999999
10
-111.65406153887511
20
48.155781011581411
10
-112.43140624254943
20
48.155781011581411
10
-112.43140624254943
20
53.88234374999999
0
LINE
5
167
100
AcDbEntity
8
0
100
AcDbLine
10
-122.76734278887511
20
51.339375059604635
30
0
11
-122.76734278887511
21
53.88234374999999
31
0
0
LINE
5
168
100
AcDbEntity
8
0
100
AcDbLine
10
-122.76734278887511
20
53.88234374999999
30
0
11
-123.52515624254943
21
53.88234374999999
31
0
0
LINE
5
169
100
AcDbEntity
8
0
100
AcDbLine
10
-123.52515624254943
20
53.88234374999999
30
0
11
-123.52515624254943
21
48.155781011581411
31
0
0
LINE
5
170
100
AcDbEntity
8
0
100
AcDbLine
10
-123.52515624254943
20
48.155781011581411
30
0
11
-120.98609374254943
21
48.155781011581411
31
0
0
SPLINE
5
171
100
AcDbEntity
8
0
100
AcDbSpline
70
0
71
3
72
9
73
5
74
0
42
0.000000001
43
0.0000000001
44
0.0000000001
40
0
40
0
40
0
40
0
40
0.067493133731809096
40
0.11786385810467034
40
0.11786385810467034
40
0.11786385810467034
40
0.11786385810467034
10
-120.98609374254943
20
48.155781011581411
30
0
10
-120.75986666041375
20
48.157521749990778
30
0
10
-120.36480430023019
20
48.160561616915551
30
0
10
-119.98454199322086
20
48.265311485118914
30
0
10
-119.82203171938659
20
48.310077767372121
30
0
0
SPLINE
5
172
100
AcDbEntity
8
0
100
AcDbSpline
70
0
71
3
72
9
73
5
74
0
42
0.000000001
43
0.0000000001
44
0.0000000001
40
0
40
0
40
0
40
0
40
0.041710886883443869
40
0.084998646761229049
40
0.084998646761229049
40
0.084998646761229049
40
0.084998646761229049
10
-119.82203171938659
20
48.310077767372121
30
0
10
-119.69518718703114
20
48.372527656408678
30
0
10
-119.43670278631816
20
48.499788341930142
30
0
10
-119.27013990348406
20
48.735140794098648
30
0
10
-119.18531344622374
20
48.855000119209279
30
0
0
SPLINE
5
173
100
AcDbEntity
8
0
100
AcDbSpline
70
0
71
3
72
9
73
5
74
0
42
0.000000001
43
0.0000000001
44
0.0000000001
40
0
40
0
40
0
40
0
40
0.044829428178954335
40
0.090435031671092958
40
0.090435031671092958
40
0.090435031671092958
40
0.090435031671092958
10
-119.18531344622374
20
48.855000119209279
30
0
10
-119.11581607766746
20
48.989291409836667
30
0
10
-118.97561806529583
20
49.260199106284617
30
0
10
-118.95661423353538
20
49.564716050912985
30
0
10
-118.94703076571227
20
49.718281309604635
30
0
0
SPLINE
5
174
100
AcDbEntity
8
0
100
AcDbSpline
70
0
71
3
72
9
73
5
74
0
42
0.000000001
43
0.0000000001
44
0.0000000001
40
0
40
0
40
0
40
0
40
0.057011991753909357
40
0.11219767607646457
40
0.11219767607646457
40
0.11219767607646457
40
0.11219767607646457
10
-118.94703076571227
20
49.718281309604635
30
0
10
-118.96237181720046
20
49.912255322399787
30
0
10
-118.99256248889236
20
50.293989634521068
30
0
10
-119.22649910163389
20
50.596722384926352
30
0
10
-119.34156344622374
20
50.7456248807907
30
0
0
SPLINE
5
175
100
AcDbEntity
8
0
100
AcDbSpline
70
0
71
3
72
9
73
5
74
0
42
0.000000001
43
0.0000000001
44
0.0000000001
40
0
40
0
40
0
40
0
40
0.06072734853905068
40
0.13486835317324972
40
0.13486835317324972
40
0.13486835317324972
40
0.13486835317324972
10
-119.34156344622374
20
50.7456248807907
30
0
10
-119.50248995614172
20
50.873562097668568
30
0
10
-119.85988895176226
20
51.15769572386818
30
0
10
-120.31185359985369
20
51.23459892455044
30
0
10
-120.56031153887511
20
51.276874821186055
30
0
0
SPLINE
5
176
100
AcDbEntity
8
0
100
AcDbSpline
70
0
71
3
72
9
73
5
74
0
42
0.000000001
43
0.0000000001
44
0.0000000001
40
0
40
0
40
0
40
0
40
0.0301076871875403
40
0.053995141684148727
40
0.053995141684148727
40
0.053995141684148727
40
0.053995141684148727
10
-120.56031153887511
20
51.276874821186055
30
0
10
-120.47003435427612
20
51.321481243479852
30
0
10
-120.30813120499381
20
51.401478424159109
30
0
10
-120.16611165512253
20
51.512787879490922
30
0
10
-120.10328219622374
20
51.562031190395345
30
0
0
SPLINE
5
177
100
AcDbEntity
8
0
100
AcDbSpline
70
0
71
3
72
9
73
5
74
0
42
0.000000001
43
0.0000000001
44
0.0000000001
40
0
40
0
40
0
40
0
40
0.047114525220824148
40
0.098974687462226388
40
0.098974687462226388
40
0.098974687462226388
40
0.098974687462226388
10
-120.10328219622374
20
51.562031190395345
30
0
10
-119.9919218507473
20
51.673287032591951
30
0
10
-119.75798432643693
20
51.907005024191058
30
0
10
-119.57188547439546
20
52.180464164549406
30
0
10
-119.47437451571227
20
52.323749642372121
30
0
0
LINE
5
178
100
AcDbEntity
8
0
100
AcDbLine
10
-119.47437451571227
20
52.323749642372121
30
0
11
-118.47828076571227
21
53.88234374999999
31
0
0
LINE
5
179
100
AcDbEntity
8
0
100
AcDbLine
10
-118.47828076571227
20
53.88234374999999
30
0
11
-119.43140671938659
21
53.88234374999999
31
0
0
LINE
5
180
100
AcDbEntity
8
0
100
AcDbLine
10
-119.43140671938659
20
53.88234374999999
30
0
11
-120.18921778887511
21
52.69093749999999
31
0
0
SPLINE
5
181
100
AcDbEntity
8
0
100
AcDbSpline
70
0
71
3
72
9
73
5
74
0
42
0.000000001
43
0.0000000001
44
0.0000000001
40
0
40
0
40
0
40
0
40
0.054657477499611452
40
0.096027791391051248
40
0.096027791391051248
40
0.096027791391051248
40
0.096027791391051248
10
-120.18921778887511
20
52.69093749999999
30
0
10
-120.28824919199849
20
52.537933329574066
30
0
10
-120.46223758947555
20
52.269120108917726
30
0
10
-120.65363549780355
20
52.012451902404791
30
0
10
-120.73609278887511
20
51.901875119209279
30
0
0
SPLINE
5
182
100
AcDbEntity
8
0
100
AcDbSpline
70
0
71
3
72
9
73
5
74
0
42
0.000000001
43
0.0000000001
44
0.0000000001
40
0
40
0
40
0
40
0
40
0.030899459271321268
40
0.054444017032323044
40
0.054444017032323044
40
0.054444017032323044
40
0.054444017032323044
10
-120.73609278887511
20
51.901875119209279
30
0
10
-120.80073473176523
20
51.821085650740898
30
0
10
-120.91463209834401
20
51.678736777943392
30
0
10
-121.05860019813086
20
51.567267769424994
30
0
10
-121.12085984438659
20
51.51906249999999
30
0
0
SPLINE
5
183
100
AcDbEntity
8
0
100
AcDbSpline
70
0
71
3
72
9
73
5
74
0
42
0.000000001
43
0.0000000001
44
0.0000000001
40
0
40
0
40
0
40
0
40
0.019488581661269561
40
0.037909857404118785
40
0.037909857404118785
40
0.037909857404118785
40
0.037909857404118785
10
-121.12085984438659
20
51.51906249999999
30
0
10
-121.17687273091693
20
51.485588916436697
30
0
10
-121.28583091874538
20
51.420474953720202
30
0
10
-121.40745975402248
20
51.384297938216065
30
0
10
-121.46656201571227
20
51.366718690395345
30
0
0
SPLINE
5
184
100
AcDbEntity
8
0
100
AcDbSpline
70
0
71
3
72
9
73
5
74
0
42
0.000000001
43
0.0000000001
44
0.0000000001
40
0
40
0
40
0
40
0
40
0.017115633307199271
40
0.04232002731843057
40
0.04232002731843057
40
0.04232002731843057
40
0.04232002731843057
10
-121.46656201571227
20
51.366718690395345
30
0
10
-121.52312424883995
20
51.358813416725383
30
0
10
-121.66297973698877
20
51.339266877507832
30
0
10
-121.80428177004693
20
51.339334679189086
30
0
10
-121.88843653887511
20
51.339375059604635
30
0
0
LINE
5
185
100
AcDbEntity
8
0
100
AcDbLine
10
-121.88843653887511
20
51.33937505960462
30
0
11
-122.76734278887511
21
51.339375059604635
31
0
0
LWPOLYLINE
5
186
100
AcDbEntity
8
0
100
AcDbPolyline
90
8
70
1
43
0.0
10
-106.47046969622374
20
53.88234374999999
10
-105.84156439989806
20
52.147968392372121
10
-103.44703124254943
20
52.147968392372121
10
-102.77906344622374
20
53.88234374999999
10
-101.91578314989806
20
53.88234374999999
10
-104.25953314989806
20
48.155781011581411
10
-105.0759355852008
20
48.155781011581411
10
-107.27515624254943
20
53.88234374999999
0
LWPOLYLINE
5
187
100
AcDbEntity
8
0
100
AcDbPolyline
90
6
70
1
43
0.0
10
-136.89234421938659
20
53.88234374999999
10
-136.89234421938659
20
53.2065623807907
10
-139.71265600413085
20
53.2065623807907
10
-139.71265600413085
20
48.155781011581411
10
-140.47046826571227
20
48.155781011581411
10
-140.47046826571227
20
53.88234374999999
0
LWPOLYLINE
5
188
100
AcDbEntity
8
0
100
AcDbPolyline
90
12
70
1
43
0.0
10
-151.21265636175872
20
53.88234374999999
10
-151.21265636175872
20
51.183125059604635
10
-148.23609398096801
20
51.183125059604635
10
-148.23609398096801
20
53.88234374999999
10
-147.47828171938659
20
53.88234374999999
10
-147.47828171938659
20
48.155781011581411
10
-148.23609398096801
20
48.155781011581411
10
-148.23609398096801
20
50.507343690395345
10
-151.21265636175872
20
50.507343690395345
10
-151.21265636175872
20
48.155781011581411
10
-151.97046862334014
20
48.155781011581411
10
-151.97046862334014
20
53.88234374999999
0
SPLINE
5
189
100
AcDbEntity
8
0
100
AcDbSpline
70
0
71
3
72
9
73
5
74
0
42
0.000000001
43
0.0000000001
44
0.0000000001
40
0
40
0
40
0
40
0
40
0.056443972246313902
40
0.11373126414892501
40
0.11373126414892501
40
0.11373126414892501
40
0.11373126414892501
10
-134.02906106203795
20
48.757343869209279
30
0
10
-134.06950480146151
20
48.941273140880412
30
0
10
-134.15099654324533
20
49.311879739754481
30
0
10
-134.27512762392968
20
49.670469311033621
30
0
10
-134.33765338152648
20
49.851093571186055
30
0
0
LINE
5
190
100
AcDbEntity
8
0
100
AcDbLine
10
-134.33765338152648
20
49.851093571186063
30
0
11
-134.96656106203795
21
51.530781369209279
31
0
0
LINE
5
191
100
AcDbEntity
8
0
100
AcDbLine
10
-134.96656106203795
20
51.530781369209279
30
0
11
-133.0251543352008
21
51.530781369209279
31
0
0
LINE
5
192
100
AcDbEntity
8
0
100
AcDbLine
10
-133.0251543352008
20
51.530781369209279
30
0
11
-133.62281010836364
21
49.9448436307907
31
0
0
SPLINE
5
193
100
AcDbEntity
8
0
100
AcDbSpline
70
0
71
3
72
9
73
5
74
0
42
0.000000001
43
0.0000000001
44
0.0000000001
40
0
40
0
40
0
40
0
40
0.070000626776686642
40
0.12553162121435327
40
0.12553162121435327
40
0.12553162121435327
40
0.12553162121435327
10
-133.62281010836364
20
49.9448436307907
30
0
10
-133.70470363617099
20
49.726280148272323
30
0
10
-133.851562711382
20
49.334331824919239
30
0
10
-133.97462320976527
20
48.934303176042164
30
0
10
-134.02906106203795
20
48.757343869209279
30
0
0
LINE
5
194
100
AcDbEntity
8
0
100
AcDbLine
10
-126.65015624254943
20
48.8315623807907
30
0
11
-128.11499999254943
21
48.8315623807907
31
0
0
LINE
5
195
100
AcDbEntity
8
0
100
AcDbLine
10
-128.11499999254943
20
48.8315623807907
30
0
11
-128.11499999254943
21
50.878437440395345
31
0
0
LINE
5
196
100
AcDbEntity
8
0
100
AcDbLine
10
-128.11499999254943
20
50.878437440395345
30
0
11
-126.6345326730609
21
50.878437440395345
31
0
0
SPLINE
5
197
100
AcDbEntity
8
0
100
AcDbSpline
70
0
71
3
72
9
73
5
74
0
42
0.000000001
43
0.0000000001
44
0.0000000001
40
0
40
0
40
0
40
0
40
0.063164016293684261
40
0.10945812615167749
40
0.10945812615167749
40
0.10945812615167749
40
0.10945812615167749
10
-126.6345326730609
20
50.878437440395345
30
0
10
-126.41929351998476
20
50.875987640304047
30
0
10
-126.0463014945783
20
50.871742335094311
30
0
10
-125.72672486481056
20
50.684283564440463
30
0
10
-125.59156344622374
20
50.604999940395345
30
0
0
SPLINE
5
198
100
AcDbEntity
8
0
100
AcDbSpline
70
0
71
3
72
9
73
5
74
0
42
0.000000001
43
0.0000000001
44
0.0000000001
40
0
40
0
40
0
40
0
40
0.040233758999097313
40
0.084947302405463068
40
0.084947302405463068
40
0.084947302405463068
40
0.084947302405463068
10
-125.59156344622374
20
50.604999940395345
30
0
10
-125.50162401794958
20
50.500604343025337
30
0
10
-125.3117309529752
20
50.280189333336899
30
0
10
-125.29288739097626
20
49.988830684711189
30
0
10
-125.28296874254943
20
49.835468809604635
30
0
0
SPLINE
5
199
100
AcDbEntity
8
0
100
AcDbSpline
70
0
71
3
72
9
73
5
74
0
42
0.000000001
43
0.0000000001
44
0.0000000001
40
0
40
0
40
0
40
0
40
0.033657332108953525
40
0.064952020636722479
40
0.064952020636722479
40
0.064952020636722479
40
0.064952020636722479
10
-125.28296874254943
20
49.835468809604635
30
0
10
-125.28937296894699
20
49.721670432969091
30
0
10
-125.30173186429235
20
49.502061983798782
30
0
10
-125.41165027072644
20
49.311870870251511
30
0
10
-125.46461032122374
20
49.220234434604635
30
0
0
SPLINE
5
200
100
AcDbEntity
8
0
100
AcDbSpline
70
0
71
3
72
9
73
5
74
0
42
0.000000001
43
0.0000000001
44
0.0000000001
40
0
40
0
40
0
40
0
40
0.029900316019636084
40
0.059498948935304462
40
0.059498948935304462
40
0.059498948935304462
40
0.059498948935304462
10
-125.46461032122374
20
49.220234434604635
30
0
10
-125.52970448380182
20
49.142261147756599
30
0
10
-125.65923603298934
20
48.98710129561853
30
0
10
-125.84881639083827
20
48.917144696035713
30
0
10
-125.94312594622374
20
48.88234374999999
30
0
0
SPLINE
5
201
100
AcDbEntity
8
0
100
AcDbSpline
70
0
71
3
72
9
73
5
74
0
42
0.000000001
43
0.0000000001
44
0.0000000001
40
0
40
0
40
0
40
0
40
0.027510904789164969
40
0.0709864758863364
40
0.0709864758863364
40
0.0709864758863364
40
0.0709864758863364
10
-125.94312594622374
20
48.88234374999999
30
0
10
-126.03378241058215
20
48.867707257157974
30
0
10
-126.26770357640478
20
48.829940667721779
30
0
10
-126.50489107810003
20
48.830946413282817
30
0
10
-126.65015624254943
20
48.8315623807907
30
0
0
LINE
5
202
100
AcDbEntity
8
0
100
AcDbLine
10
-120.95484421938659
20
48.788593392372121
30
0
11
-122.76734278887511
21
48.788593392372121
31
0
0
LINE
5
203
100
AcDbEntity
8
0
100
AcDbLine
10
-122.76734278887511
20
48.788593392372121
30
0
11
-122.76734278887511
21
50.683124940395345
31
0
0
LINE
5
204
100
AcDbEntity
8
0
100
AcDbLine
10
-122.76734278887511
20
50.683124940395345
30
0
11
-121.13843844622374
21
50.683124940395345
31
0
0
SPLINE
5
205
100
AcDbEntity
8
0
100
AcDbSpline
70
0
71
3
72
9
73
5
74
0
42
0.000000001
43
0.0000000001
44
0.0000000001
40
0
40
0
40
0
40
0
40
0.046366805369982264
40
0.082244327775104722
40
0.082244327775104722
40
0.082244327775104722
40
0.082244327775104722
10
-121.13843844622374
20
50.683124940395345
30
0
10
-120.98310234315939
20
50.681433111973881
30
0
10
-120.70757088754601
20
50.678432187279498
30
0
10
-120.44185154422013
20
50.60690530584818
30
0
10
-120.32593653887511
20
50.575703065395345
30
0
0
SPLINE
5
206
100
AcDbEntity
8
0
100
AcDbSpline
70
0
71
3
72
9
73
5
74
0
42
0.000000001
43
0.0000000001
44
0.0000000001
40
0
40
0
40
0
40
0
40
0.02932058586849844
40
0.057035694070125001
40
0.057035694070125001
40
0.057035694070125001
40
0.057035694070125001
10
-120.32593653887511
20
50.575703065395345
30
0
10
-120.23490447289583
20
50.535688938786365
30
0
10
-120.05782489170838
20
50.457851698630648
30
0
10
-119.93857301715336
20
50.305826091912024
30
0
10
-119.88062546938659
20
50.231952946186055
30
0
0
SPLINE
5
207
100
AcDbEntity
8
0
100
AcDbSpline
70
0
71
3
72
9
73
5
74
0
42
0.000000001
43
0.0000000001
44
0.0000000001
40
0
40
0
40
0
40
0
40
0.027176697723213593
40
0.054155886754026765
40
0.054155886754026765
40
0.054155886754026765
40
0.054155886754026765
10
-119.88062546938659
20
50.231952946186055
30
0
10
-119.83619236446077
20
50.151637818577235
30
0
10
-119.74764907553735
20
49.991591259583302
30
0
10
-119.73472115276959
20
49.80916285168923
30
0
10
-119.72828076571227
20
49.718281309604635
30
0
0
SPLINE
5
208
100
AcDbEntity
8
0
100
AcDbSpline
70
0
71
3
72
9
73
5
74
0
42
0.000000001
43
0.0000000001
44
0.0000000001
40
0
40
0
40
0
40
0
40
0.037738964042310863
40
0.074838956916674304
40
0.074838956916674304
40
0.074838956916674304
40
0.074838956916674304
10
-119.72828076571227
20
49.718281309604635
30
0
10
-119.74014436543982
20
49.589266552027695
30
0
10
-119.76367069827425
20
49.333421429382284
30
0
10
-119.93718549548186
20
49.144143341723179
30
0
10
-120.02320216387511
20
49.050312321186055
30
0
0
SPLINE
5
209
100
AcDbEntity
8
0
100
AcDbSpline
70
0
71
3
72
9
73
5
74
0
42
0.000000001
43
0.0000000001
44
0.0000000001
40
0
40
0
40
0
40
0
40
0.042803180450437094
40
0.098317256018766716
40
0.098317256018766716
40
0.098317256018766716
40
0.098317256018766716
10
-120.02320216387511
20
49.050312321186055
30
0
10
-120.14675056380541
20
48.974300475290889
30
0
10
-120.43053647734806
20
48.799704194484441
30
0
10
-120.76563400250623
20
48.792603017080715
30
0
10
-120.95484421938659
20
48.788593392372121
30
0
0
SPLINE
5
210
100
AcDbEntity
8
0
100
AcDbSpline
70
0
71
3
72
9
73
5
74
0
42
0.000000001
43
0.0000000001
44
0.0000000001
40
0
40
0
40
0
40
0
40
0.056444027933105455
40
0.11373131983571658
40
0.11373131983571658
40
0.11373131983571658
40
0.11373131983571658
10
-115.7985918352008
20
48.757343869209279
30
0
10
-115.83903655061005
20
48.941273097556532
30
0
10
-115.92053021844897
20
49.311879424962669
30
0
10
-116.04466097510735
20
49.67046926440019
30
0
10
-116.10718653887511
20
49.851093571186055
30
0
0
LINE
5
211
100
AcDbEntity
8
0
100
AcDbLine
10
-116.10718653887514
20
49.851093571186041
30
0
11
-116.7360918352008
21
51.530781369209279
31
0
0
LINE
5
212
100
AcDbEntity
8
0
100
AcDbLine
10
-116.7360918352008
20
51.530781369209279
30
0
11
-114.79468749254943
21
51.530781369209279
31
0
0
LINE
5
213
100
AcDbEntity
8
0
100
AcDbLine
10
-114.79468749254943
20
51.530781369209279
30
0
11
-115.39234564989806
21
49.9448436307907
31
0
0
SPLINE
5
214
100
AcDbEntity
8
0
100
AcDbSpline
70
0
71
3
72
9
73
5
74
0
42
0.000000001
43
0.0000000001
44
0.0000000001
40
0
40
0
40
0
40
0
40
0.070000626776686642
40
0.12553147698207565
40
0.12553147698207565
40
0.12553147698207565
40
0.12553147698207565
10
-115.39234564989806
20
49.9448436307907
30
0
10
-115.47423968807202
20
49.726280310296161
30
0
10
-115.62109950978191
20
49.334332727836468
30
0
10
-115.74415588550025
20
48.934303275267453
30
0
10
-115.7985918352008
20
48.757343869209279
30
0
0
SPLINE
5
215
100
AcDbEntity
8
0
100
AcDbSpline
70
0
71
3
72
9
73
5
74
0
42
0.000000001
43
0.0000000001
44
0.0000000001
40
0
40
0
40
0
40
0
40
0.05644413930954497
40
0.11373128408682286
40
0.11373128408682286
40
0.11373128408682286
40
0.11373128408682286
10
-104.6853105852008
20
48.757343869209279
30
0
10
-104.72575759967165
20
48.941272898128005
30
0
10
-104.80725571355063
20
49.311877975920936
30
0
10
-104.93138207827582
20
49.670469049739509
30
0
10
-104.99390528887511
20
49.851093571186055
30
0
0
LINE
5
216
100
AcDbEntity
8
0
100
AcDbLine
10
-104.99390528887511
20
49.851093571186041
30
0
11
-105.6228105852008
21
51.530781369209279
31
0
0
LINE
5
217
100
AcDbEntity
8
0
100
AcDbLine
10
-105.6228105852008
20
51.530781369209279
30
0
11
-103.68140624254943
21
51.530781369209279
31
0
0
LINE
5
218
100
AcDbEntity
8
0
100
AcDbLine
10
-103.68140624254943
20
51.530781369209279
30
0
11
-104.27906439989806
21
49.9448436307907
31
0
0
SPLINE
5
219
100
AcDbEntity
8
0
100
AcDbSpline
70
0
71
3
72
9
73
5
74
0
42
0.000000001
43
0.0000000001
44
0.0000000001
40
0
40
0
40
0
40
0
40
0.070000789092239696
40
0.12553149506907102
40
0.12553149506907102
40
0.12553149506907102
40
0.12553149506907102
10
-104.27906439989806
20
49.9448436307907
30
0
10
-104.36096093797258
20
49.72628061696529
30
0
10
-104.5078249233475
20
49.334334436813634
30
0
10
-104.63087678263712
20
48.934303463072382
30
0
10
-104.6853105852008
20
48.757343869209279
30
0
0
ENDSEC
0
SECTION
2
OBJECTS
0
DICTIONARY
5
C
100
AcDbDictionary
3
ACAD_GROUP
350
D
3
ACAD_MLINESTYLE
350
17
0
DICTIONARY
5
D
100
AcDbDictionary
0
DICTIONARY
5
1A
330
C
100
AcDbDictionary
0
DICTIONARY
5
17
100
AcDbDictionary
0
ENDSEC
0
EOF
